<svg width="25" height="25" viewBox="0 0 25 25" fill="none" xmlns="http://www.w3.org/2000/svg">
<path d="M20.4804 5.51827C18.5691 3.98179 15.5465 3.72163 15.4184 3.71107C15.2168 3.69379 15.0252 3.80803 14.9422 3.99283C14.9364 4.00483 14.8702 4.15603 14.7968 4.39267C16.0606 4.60531 17.6129 5.03539 19.0179 5.90707C19.243 6.04675 19.3121 6.34243 19.1724 6.56803C19.0817 6.71443 18.9248 6.79507 18.764 6.79507C18.6776 6.79507 18.5902 6.77203 18.5115 6.72307C16.0971 5.22547 13.0803 5.14963 12.5 5.14963C11.9196 5.14963 8.90236 5.22547 6.48892 6.72307C6.26332 6.86323 5.96764 6.79363 5.82796 6.56851C5.6878 6.34291 5.7574 6.04723 5.98252 5.90755C7.38748 5.03635 8.93932 4.60579 10.2036 4.39315C10.1297 4.15651 10.0635 4.00531 10.0582 3.99331C9.97516 3.80803 9.78412 3.69139 9.58156 3.71155C9.45388 3.72163 6.43132 3.98179 4.49452 5.53987C3.4822 6.47443 1.45996 11.9426 1.45996 16.6696C1.45996 16.7531 1.48156 16.8347 1.52284 16.9072C2.91916 19.3595 6.727 20.0018 7.59436 20.0291C7.59964 20.0296 7.60444 20.0296 7.60972 20.0296C7.76284 20.0296 7.90732 19.9567 7.99804 19.8323L8.87596 18.6261C6.50812 18.0136 5.29852 16.9754 5.22892 16.9135C5.0302 16.7383 5.01148 16.4349 5.18716 16.2362C5.36236 16.0375 5.66476 16.0187 5.86396 16.1935C5.89324 16.2194 8.11996 18.1096 12.5 18.1096C16.8876 18.1096 19.1153 16.2122 19.1374 16.193C19.3361 16.0207 19.639 16.0379 19.8137 16.2381C19.9884 16.4368 19.9697 16.7387 19.7715 16.9135C19.7014 16.9754 18.4918 18.0136 16.124 18.6261L17.0019 19.8323C17.0926 19.9567 17.2371 20.0296 17.3902 20.0296C17.3955 20.0296 17.4003 20.0296 17.4051 20.0291C18.2734 20.0018 22.0808 19.3595 23.4766 16.9072C23.5184 16.8347 23.54 16.7531 23.54 16.6696C23.54 11.9426 21.5177 6.47443 20.4804 5.51827ZM9.37996 14.7496C8.45212 14.7496 7.69996 13.8899 7.69996 12.8296C7.69996 11.7693 8.45212 10.9096 9.37996 10.9096C10.3078 10.9096 11.06 11.7693 11.06 12.8296C11.06 13.8899 10.3078 14.7496 9.37996 14.7496ZM15.62 14.7496C14.6921 14.7496 13.94 13.8899 13.94 12.8296C13.94 11.7693 14.6921 10.9096 15.62 10.9096C16.5478 10.9096 17.3 11.7693 17.3 12.8296C17.3 13.8899 16.5478 14.7496 15.62 14.7496Z" fill="white"/>
</svg>
