<svg width="21" height="22" viewBox="0 0 21 22" fill="none" xmlns="http://www.w3.org/2000/svg">
<path d="M5.20085 16.0348C2.97093 14.6922 1.59814 12.5761 1.59814 10.2418C1.59814 6.18553 5.69237 2.99414 10.6523 2.99414C15.6123 2.99414 19.7065 6.18553 19.7065 10.2418C19.7065 14.2981 15.6123 17.4895 10.6523 17.4895C10.2712 17.4895 9.89179 17.4705 9.51583 17.4334L6.26925 19.553C5.73893 19.8341 5.44402 19.9195 4.98873 19.6099C4.4541 19.2443 4.47479 18.8407 4.66019 18.2647L5.20085 16.0348ZM3.32275 10.2418C3.32275 12.0802 4.5455 13.7971 6.58313 14.8293L7.19192 15.1388L7.03153 15.8028L6.68574 17.2239L9.10019 15.6459L9.4158 15.6855C9.82367 15.7381 10.2367 15.7649 10.6523 15.7649C14.7405 15.7649 17.9819 13.2383 17.9819 10.2418C17.9819 7.2453 14.7405 4.71875 10.6523 4.71875C6.56416 4.71875 3.32275 7.2453 3.32275 10.2418ZM15.746 9.94345L17.0515 11.8017C17.0823 11.8455 17.1041 11.8949 17.1157 11.9471C17.1274 11.9993 17.1286 12.0533 17.1194 12.106C17.1102 12.1586 17.0907 12.209 17.0621 12.2542C17.0334 12.2993 16.9961 12.3384 16.9523 12.3691C16.9086 12.3999 16.8592 12.4217 16.807 12.4333C16.7548 12.445 16.7008 12.4463 16.6481 12.437C16.5954 12.4278 16.5451 12.4083 16.4999 12.3797C16.4548 12.351 16.4157 12.3137 16.3849 12.27L15.1536 10.5169L14.7854 10.873V12.0483C14.7854 12.1563 14.7425 12.2598 14.6662 12.3361C14.5898 12.4125 14.4863 12.4553 14.3784 12.4553C14.2704 12.4553 14.1669 12.4125 14.0906 12.3361C14.0142 12.2598 13.9714 12.1563 13.9714 12.0483V10.8075C13.9561 10.7446 13.9561 10.6789 13.9714 10.6161V8.41114C13.9714 8.30319 14.0142 8.19967 14.0906 8.12334C14.1669 8.04701 14.2704 8.00413 14.3784 8.00413C14.4863 8.00413 14.5898 8.04701 14.6662 8.12334C14.7425 8.19967 14.7854 8.30319 14.7854 8.41114V9.74081L16.4479 8.13175C16.5262 8.06115 16.6289 8.02371 16.7343 8.02732C16.8397 8.03092 16.9396 8.07529 17.0129 8.15107C17.0862 8.22686 17.1273 8.32815 17.1274 8.4336C17.1275 8.53905 17.0867 8.64043 17.0136 8.71639L15.746 9.94345ZM13.1953 11.6034C13.3032 11.6034 13.4067 11.6463 13.4831 11.7226C13.5594 11.7989 13.6023 11.9025 13.6023 12.0104C13.6023 12.1183 13.5594 12.2219 13.4831 12.2982C13.4067 12.3745 13.3032 12.4174 13.1953 12.4174H11.5293C11.4215 12.4172 11.3182 12.3742 11.2421 12.2979C11.1659 12.2216 11.1232 12.1182 11.1232 12.0104V8.42407C11.1206 8.3691 11.1293 8.31419 11.1486 8.26266C11.1679 8.21113 11.1974 8.16404 11.2354 8.12424C11.2734 8.08445 11.3191 8.05278 11.3697 8.03113C11.4203 8.00949 11.4747 7.99834 11.5297 7.99834C11.5848 7.99834 11.6392 8.00949 11.6898 8.03113C11.7404 8.05278 11.7861 8.08445 11.8241 8.12424C11.8621 8.16404 11.8916 8.21113 11.9109 8.26266C11.9302 8.31419 11.9388 8.3691 11.9363 8.42407V11.6034H13.1953ZM8.14476 10.6618H9.29508L8.74493 9.1898L8.14476 10.6618ZM10.3204 11.0826L10.6179 11.8802C10.6384 11.9306 10.6486 11.9847 10.6479 12.0391C10.6472 12.0936 10.6355 12.1474 10.6137 12.1972C10.5918 12.2471 10.5601 12.2921 10.5205 12.3295C10.481 12.3669 10.4343 12.396 10.3833 12.4151C10.3322 12.4341 10.2779 12.4427 10.2235 12.4404C10.1691 12.4381 10.1157 12.4248 10.0665 12.4015C10.0173 12.3781 9.97326 12.3452 9.93703 12.3045C9.9008 12.2638 9.8731 12.2163 9.85557 12.1648L9.59861 11.4758H7.81364L7.52821 12.1768C7.508 12.2263 7.47824 12.2713 7.44063 12.3093C7.40301 12.3473 7.35829 12.3775 7.30901 12.3982C7.25972 12.4189 7.20684 12.4297 7.15339 12.4299C7.09993 12.4302 7.04695 12.4199 6.99747 12.3997C6.94798 12.3795 6.90296 12.3498 6.86498 12.3121C6.82699 12.2745 6.79679 12.2298 6.77609 12.1805C6.75539 12.1312 6.7446 12.0784 6.74434 12.0249C6.74408 11.9714 6.75435 11.9185 6.77456 11.869L8.20599 8.35509C8.24965 8.24112 8.32701 8.14317 8.42777 8.0743C8.52853 8.00544 8.64789 7.96893 8.76993 7.96964C8.89094 7.97464 9.00754 8.01646 9.10415 8.08949C9.20077 8.16253 9.27279 8.26331 9.3106 8.37837L10.2126 10.7928C10.2827 10.8676 10.3219 10.9662 10.3221 11.0688L10.3204 11.0826ZM7.45578 8.42838C7.45578 8.65258 7.2747 8.83539 7.04963 8.83539H6.06661V12.057C6.06661 12.165 6.02368 12.2687 5.94727 12.3451C5.87086 12.4215 5.76723 12.4644 5.65917 12.4644C5.55111 12.4644 5.44748 12.4215 5.37107 12.3451C5.29466 12.2687 5.25173 12.165 5.25173 12.057V8.83539H4.25146C4.14351 8.83539 4.03999 8.79251 3.96366 8.71618C3.88733 8.63985 3.84445 8.53633 3.84445 8.42838C3.84445 8.32044 3.88733 8.21691 3.96366 8.14059C4.03999 8.06426 4.14351 8.02138 4.25146 8.02138H7.04963C7.27383 8.02138 7.45578 8.20332 7.45578 8.42838Z" fill="white"/>
</svg>
