<svg width="21" height="21" viewBox="0 0 21 21" fill="none" xmlns="http://www.w3.org/2000/svg">
<g clip-path="url(#clip0_148_50716)">
<path d="M6.68918 16.1073C9.64489 16.1073 12.041 13.7112 12.041 10.7555C12.041 7.79982 9.64489 5.40375 6.68918 5.40375C3.73348 5.40375 1.3374 7.79982 1.3374 10.7555C1.3374 13.7112 3.73348 16.1073 6.68918 16.1073Z" fill="white"/>
<path d="M15.0307 15.7925C16.5087 15.7925 17.7069 13.5374 17.7069 10.7555C17.7069 7.97365 16.5087 5.71851 15.0307 5.71851C13.5527 5.71851 12.3545 7.97365 12.3545 10.7555C12.3545 13.5374 13.5527 15.7925 15.0307 15.7925Z" fill="white"/>
<path d="M19.1232 15.4777C19.7316 15.4777 20.2249 13.3635 20.2249 10.7555C20.2249 8.14748 19.7316 6.03326 19.1232 6.03326C18.5147 6.03326 18.0215 8.14748 18.0215 10.7555C18.0215 13.3635 18.5147 15.4777 19.1232 15.4777Z" fill="white"/>
</g>
<defs>
<clipPath id="clip0_148_50716">
<rect width="20.1455" height="20.1455" fill="white" transform="translate(0.708984 0.682129)"/>
</clipPath>
</defs>
</svg>
