<svg width="21" height="17" viewBox="0 0 21 17" fill="none" xmlns="http://www.w3.org/2000/svg">
<path d="M20.5 0.348633C19.72 0.811633 18.155 1.44263 17.235 1.62463C17.208 1.63163 17.186 1.64063 17.16 1.64763C16.347 0.845633 15.233 0.348633 14 0.348633C11.515 0.348633 9.5 2.36363 9.5 4.84863C9.5 4.97963 9.489 5.22063 9.5 5.34863C6.147 5.34863 3.595 3.59263 1.765 1.34863C1.566 1.84863 1.479 2.63863 1.479 3.38063C1.479 4.78163 2.574 6.15763 4.279 7.01063C3.965 7.09163 3.619 7.14963 3.259 7.14963C2.678 7.14963 2.063 6.99663 1.5 6.53263C1.5 6.54963 1.5 6.56563 1.5 6.58363C1.5 8.54163 3.578 9.87463 5.426 10.2456C5.051 10.4666 4.295 10.4886 3.926 10.4886C3.666 10.4886 2.746 10.3696 2.5 10.3236C3.014 11.9286 4.868 12.8306 6.635 12.8626C5.253 13.9466 4.294 14.3486 1.464 14.3486H0.5C2.288 15.4946 4.565 16.3496 6.847 16.3496C14.277 16.3496 18.5 10.6866 18.5 5.34863C18.5 5.26263 18.498 5.08263 18.495 4.90163C18.495 4.88363 18.5 4.86663 18.5 4.84863C18.5 4.82163 18.492 4.79563 18.492 4.76863C18.489 4.63263 18.486 4.50563 18.483 4.43963C19.273 3.86963 19.958 3.15863 20.5 2.34863C19.775 2.67063 18.997 2.88663 18.18 2.98463C19.014 2.48463 20.199 1.29263 20.5 0.348633Z" fill="white"/>
</svg>
