<svg width="217" height="41" viewBox="0 0 217 41" fill="none" xmlns="http://www.w3.org/2000/svg">
<g clip-path="url(#clip0_85_19514)">
<g clip-path="url(#clip1_85_19514)">
<path d="M0.5 0.639893H16.3355C19.3518 0.639893 21.614 1.3962 23.2898 2.6567C25.133 4.1693 26.1385 6.35418 26.1385 9.04325C26.1385 12.1525 24.8817 14.0853 22.3681 15.2618V15.4298C25.7196 16.5223 27.6466 19.5475 27.6466 23.1609C27.6466 26.6063 26.3061 29.2954 24.1276 30.976C22.2843 32.3206 19.9383 32.9088 16.7545 32.9088H0.5V0.639893ZM14.7436 13.2449C16.4193 13.2449 17.6761 12.3206 17.6761 10.3878C17.6761 8.53905 16.4193 7.61468 14.6598 7.61468H9.21373V13.1609H14.7436V13.2449ZM15.4977 25.766C17.4247 25.766 18.8491 24.5895 18.8491 22.4886C18.8491 20.2197 17.341 19.2113 15.4977 19.2113H9.29752V25.85H15.4977V25.766Z" fill="#C4C9CA"/>
<path d="M29.0708 0.639893H37.3656V32.9928H29.0708V0.639893Z" fill="#C4C9CA"/>
<path d="M39.0415 21.48C39.0415 14.1691 43.7335 9.29517 51.0229 9.29517C58.3123 9.29517 62.9205 14.2532 62.9205 21.48C62.9205 28.791 58.3123 33.6649 51.0229 33.6649C43.7335 33.6649 39.0415 28.791 39.0415 21.48ZM54.6257 21.48C54.6257 17.4464 53.3689 14.9254 50.8553 14.9254C48.3417 14.9254 47.1687 17.4464 47.1687 21.48C47.1687 25.5137 48.3417 28.1187 50.8553 28.1187C53.3689 28.0347 54.6257 25.5137 54.6257 21.48Z" fill="#C4C9CA"/>
<path d="M63.8423 21.48C63.8423 14.1691 68.5343 9.29517 75.8237 9.29517C83.113 9.29517 87.6375 14.1691 87.6375 21.48C87.6375 28.791 83.0292 33.6649 75.7399 33.6649C68.5343 33.6649 63.8423 28.791 63.8423 21.48ZM79.4264 21.48C79.4264 17.4464 78.1697 14.9254 75.6561 14.9254C73.1425 14.9254 71.9695 17.4464 71.9695 21.48C71.9695 25.5137 73.1425 28.1187 75.6561 28.1187C78.1697 28.0347 79.4264 25.5137 79.4264 21.48Z" fill="#C4C9CA"/>
<path d="M89.313 9.88345H97.0213V13.3288H97.1889C98.697 10.6398 100.792 9.21118 104.143 9.21118C107.076 9.21118 109.254 10.6398 110.343 13.1608H110.511C112.354 10.1356 114.784 9.21118 117.633 9.21118C122.995 9.21118 125.257 13.1608 125.257 18.4549V32.9087H117.214V19.8835C117.214 17.5305 116.46 16.0179 114.449 16.0179C112.438 16.0179 111.432 17.8667 111.432 20.3877V32.9087H103.389V19.8835C103.389 17.5305 102.635 16.0179 100.624 16.0179C98.6132 16.0179 97.6078 17.8667 97.6078 20.3877V32.9087H89.313V9.88345Z" fill="#C4C9CA"/>
<path d="M135.395 29.8836H135.311V32.9088H127.603V0.639893H135.646V12.2365H135.814C137.322 10.2197 139.417 9.12729 142.349 9.12729C148.131 9.12729 151.482 14.3374 151.482 21.3122C151.482 29.1273 147.879 33.6651 141.847 33.6651C139.333 33.6651 136.736 32.4886 135.395 29.8836ZM143.187 21.2281C143.187 17.5307 141.847 15.0937 139.417 15.0937C136.903 15.0937 135.395 17.5307 135.395 21.2281C135.395 24.9256 136.987 27.3626 139.417 27.3626C141.847 27.3626 143.187 25.0096 143.187 21.2281Z" fill="#C4C9CA"/>
<path d="M152.404 21.3961C152.404 14.1692 157.18 9.21118 164.05 9.21118C167.485 9.21118 170.083 10.3036 172.093 12.2364C174.775 14.8414 175.948 18.8751 175.864 23.5809H160.447C160.782 26.4381 162.123 27.9507 164.553 27.9507C165.977 27.9507 167.234 27.2784 167.737 25.7658H175.529C174.188 31.0599 170.083 33.665 164.301 33.665C157.18 33.5809 152.404 28.707 152.404 21.3961ZM160.447 18.9591H167.82C167.653 16.186 166.145 14.7574 164.218 14.7574C161.955 14.6734 160.699 16.27 160.447 18.9591Z" fill="#C4C9CA"/>
<path d="M184.996 13.8329H185.164C186.84 10.6397 189.018 9.37915 191.783 9.37915C192.453 9.37915 192.872 9.46318 193.124 9.63125V16.6901H192.956C188.18 15.8497 185.415 18.1187 185.415 23.3287V32.9926H177.288V9.88335H184.996V13.8329Z" fill="#C4C9CA"/>
<path d="M193.961 32.9927H201.754C202.089 34.0012 203.094 34.9255 205.021 34.9255C207.619 34.9255 208.54 33.3289 208.54 30.8919V29.2112H208.373C207.116 30.7238 205.356 31.8163 202.843 31.8163C197.899 31.8163 193.542 28.1188 193.542 20.8919C193.542 14.2533 197.061 9.1272 202.424 9.1272C205.524 9.1272 207.367 10.3877 208.624 12.3205H208.792V9.79947H216.5V29.7995C216.5 33.497 215.243 36.3541 213.316 38.0348C211.305 39.7995 208.456 40.5558 205.189 40.5558C198.989 40.6398 194.715 38.1188 193.961 32.9927ZM208.875 20.5558C208.875 17.6986 207.535 15.3457 205.189 15.3457C202.926 15.3457 201.502 17.3625 201.502 20.5558C201.502 23.665 202.926 25.8499 205.189 25.8499C207.451 25.8499 208.875 23.581 208.875 20.5558Z" fill="#C4C9CA"/>
</g>
</g>
<defs>
<clipPath id="clip0_85_19514">
<rect width="216" height="40" fill="white" transform="translate(0.5 0.639893)"/>
</clipPath>
<clipPath id="clip1_85_19514">
<rect width="216" height="40" fill="white" transform="translate(0.5 0.639893)"/>
</clipPath>
</defs>
</svg>
