<svg width="81" height="27" viewBox="0 0 81 27" fill="none" xmlns="http://www.w3.org/2000/svg">
<path d="M7.8193 0.249451L1.8769 3.77613L7.8193 7.30413L13.8735 3.77613L7.8193 0.249451ZM8.79655 19.0806V26.1353L16.8684 21.4708V14.4148L8.79655 19.0806ZM14.8508 5.99445V13.0505L8.79524 16.5785V9.52246L14.8508 5.99445ZM0.274902 13.0505L6.33042 16.5785V9.52246L0.274902 5.99445V13.0505ZM0.274902 22.6086L6.33042 26.1353V19.0806L0.274902 15.5539V22.6073V22.6086Z" fill="#898989"/>
<path d="M25.1764 18.5681V6.98288H29.815C30.6673 6.98288 31.3782 7.10922 31.9476 7.36189C32.5171 7.61457 32.9451 7.96529 33.2317 8.41407C33.5183 8.85908 33.6617 9.37197 33.6617 9.95274C33.6617 10.4053 33.5711 10.8032 33.3901 11.1463C33.2091 11.4857 32.9602 11.7648 32.6434 11.9836C32.3304 12.1985 31.9721 12.3512 31.5686 12.4418V12.5549C32.0099 12.5738 32.4228 12.6982 32.8075 12.9282C33.1959 13.1583 33.5108 13.4807 33.7522 13.8956C33.9935 14.3066 34.1142 14.7969 34.1142 15.3664C34.1142 15.9811 33.9615 16.5298 33.656 17.0125C33.3543 17.4915 32.9074 17.8705 32.3153 18.1495C31.7232 18.4286 30.9935 18.5681 30.1261 18.5681H25.1764ZM27.6258 16.5656H29.6227C30.3052 16.5656 30.8031 16.4355 31.1161 16.1753C31.4291 15.9113 31.5856 15.5606 31.5856 15.1231C31.5856 14.8026 31.5083 14.5197 31.3537 14.2746C31.199 14.0295 30.9784 13.8371 30.6918 13.6976C30.409 13.558 30.0714 13.4883 29.6792 13.4883H27.6258V16.5656ZM27.6258 11.8308H29.4416C29.7773 11.8308 30.0752 11.7724 30.3354 11.6555C30.5994 11.5348 30.8068 11.3651 30.9577 11.1463C31.1123 10.9276 31.1896 10.6655 31.1896 10.36C31.1896 9.94142 31.0406 9.6039 30.7427 9.34745C30.4486 9.09101 30.0299 8.96279 29.4869 8.96279H27.6258V11.8308ZM38.1405 18.7322C37.5861 18.7322 37.0921 18.636 36.6584 18.4437C36.2247 18.2476 35.8815 17.9591 35.6288 17.5782C35.3799 17.1935 35.2555 16.7146 35.2555 16.1413C35.2555 15.6586 35.3441 15.2532 35.5214 14.9251C35.6986 14.597 35.94 14.333 36.2454 14.1332C36.5509 13.9333 36.8979 13.7824 37.2863 13.6806C37.6785 13.5788 38.0896 13.5071 38.5195 13.4657C39.0248 13.4129 39.4321 13.3638 39.7414 13.3186C40.0506 13.2695 40.275 13.1979 40.4145 13.1036C40.5541 13.0093 40.6238 12.8698 40.6238 12.685V12.6511C40.6238 12.2928 40.5107 12.0156 40.2844 11.8195C40.0619 11.6234 39.7451 11.5253 39.3341 11.5253C38.9004 11.5253 38.5553 11.6215 38.2989 11.8138C38.0424 12.0024 37.8727 12.24 37.7898 12.5266L35.5609 12.3456C35.6741 11.8176 35.8966 11.3613 36.2285 10.9766C36.5603 10.5882 36.9884 10.2903 37.5126 10.0828C38.0405 9.87166 38.6515 9.76606 39.3454 9.76606C39.8281 9.76606 40.2901 9.82263 40.7313 9.93577C41.1763 10.0489 41.5704 10.2243 41.9136 10.4619C42.2606 10.6994 42.534 11.0049 42.7339 11.3783C42.9337 11.7478 43.0337 12.191 43.0337 12.7076V18.5681H40.7483V17.3632H40.6804C40.5409 17.6348 40.3542 17.8742 40.1204 18.0817C39.8866 18.2853 39.6056 18.4456 39.2775 18.5625C38.9494 18.6756 38.5704 18.7322 38.1405 18.7322ZM38.8306 17.0691C39.1851 17.0691 39.4981 16.9993 39.7697 16.8598C40.0412 16.7165 40.2543 16.5241 40.4089 16.2828C40.5635 16.0414 40.6408 15.768 40.6408 15.4625V14.5405C40.5654 14.5895 40.4617 14.6347 40.3297 14.6762C40.2015 14.7139 40.0563 14.7498 39.8941 14.7837C39.7319 14.8139 39.5698 14.8422 39.4076 14.8686C39.2455 14.8912 39.0984 14.9119 38.9664 14.9308C38.6835 14.9723 38.4365 15.0383 38.2253 15.1288C38.0141 15.2193 37.8501 15.3418 37.7332 15.4965C37.6163 15.6473 37.5578 15.8359 37.5578 16.0622C37.5578 16.3903 37.6766 16.641 37.9142 16.8145C38.1556 16.9842 38.461 17.0691 38.8306 17.0691ZM47.3131 13.5448V18.5681H44.9033V9.8792H47.2V11.4122H47.3018C47.4941 10.9069 47.8166 10.5071 48.2691 10.213C48.7216 9.91502 49.2704 9.76606 49.9152 9.76606C50.5186 9.76606 51.0447 9.89805 51.4935 10.162C51.9423 10.426 52.2911 10.8032 52.54 11.2934C52.7889 11.7799 52.9134 12.3607 52.9134 13.0357V18.5681H50.5036V13.4657C50.5073 12.9339 50.3716 12.5191 50.0963 12.2211C49.821 11.9194 49.442 11.7686 48.9592 11.7686C48.6349 11.7686 48.3483 11.8384 48.0994 11.9779C47.8543 12.1174 47.6619 12.3211 47.5224 12.5888C47.3866 12.8528 47.3169 13.1715 47.3131 13.5448ZM58.7385 18.7379C57.8485 18.7379 57.083 18.5493 56.4419 18.1722C55.8045 17.7913 55.3143 17.2633 54.9711 16.5882C54.6317 15.9132 54.462 15.1363 54.462 14.2576C54.462 13.3676 54.6335 12.587 54.9767 11.9157C55.3237 11.2406 55.8158 10.7145 56.4532 10.3374C57.0905 9.95651 57.8485 9.76606 58.7272 9.76606C59.4853 9.76606 60.149 9.90371 60.7184 10.179C61.2879 10.4543 61.7386 10.8409 62.0704 11.3387C62.4023 11.8365 62.5852 12.421 62.6192 13.0923H60.3451C60.281 12.6586 60.1113 12.3098 59.836 12.0458C59.5644 11.778 59.2081 11.6441 58.7668 11.6441C58.3935 11.6441 58.0673 11.746 57.7882 11.9496C57.5129 12.1495 57.2979 12.4418 57.1433 12.8264C56.9887 13.2111 56.9114 13.6768 56.9114 14.2237C56.9114 14.778 56.9868 15.2495 57.1377 15.6379C57.2923 16.0263 57.5091 16.3224 57.7882 16.526C58.0673 16.7297 58.3935 16.8315 58.7668 16.8315C59.0421 16.8315 59.2891 16.7749 59.5079 16.6618C59.7304 16.5486 59.9133 16.3846 60.0566 16.1696C60.2037 15.9509 60.2998 15.6888 60.3451 15.3833H62.6192C62.5814 16.0471 62.4004 16.6316 62.0761 17.137C61.7555 17.6385 61.3124 18.0307 60.7467 18.3136C60.181 18.5964 59.5117 18.7379 58.7385 18.7379ZM68.0879 18.7379C67.2092 18.7379 66.4493 18.5512 65.8082 18.1778C65.1709 17.8007 64.6787 17.2765 64.3318 16.6052C63.9848 15.9302 63.8113 15.1476 63.8113 14.2576C63.8113 13.3601 63.9848 12.5756 64.3318 11.9044C64.6787 11.2293 65.1709 10.7051 65.8082 10.3317C66.4493 9.95462 67.2092 9.76606 68.0879 9.76606C68.9666 9.76606 69.7247 9.95462 70.362 10.3317C71.0031 10.7051 71.4971 11.2293 71.8441 11.9044C72.191 12.5756 72.3645 13.3601 72.3645 14.2576C72.3645 15.1476 72.191 15.9302 71.8441 16.6052C71.4971 17.2765 71.0031 17.8007 70.362 18.1778C69.7247 18.5512 68.9666 18.7379 68.0879 18.7379ZM68.0992 16.8711C68.499 16.8711 68.8328 16.7579 69.1005 16.5317C69.3683 16.3016 69.57 15.9886 69.7058 15.5926C69.8453 15.1967 69.9151 14.746 69.9151 14.2406C69.9151 13.7353 69.8453 13.2846 69.7058 12.8887C69.57 12.4927 69.3683 12.1797 69.1005 11.9496C68.8328 11.7196 68.499 11.6045 68.0992 11.6045C67.6957 11.6045 67.3563 11.7196 67.081 11.9496C66.8095 12.1797 66.6039 12.4927 66.4644 12.8887C66.3286 13.2846 66.2608 13.7353 66.2608 14.2406C66.2608 14.746 66.3286 15.1967 66.4644 15.5926C66.6039 15.9886 66.8095 16.3016 67.081 16.5317C67.3563 16.7579 67.6957 16.8711 68.0992 16.8711ZM73.9315 18.5681V9.8792H76.2678V11.3952H76.3583C76.5167 10.856 76.7825 10.4487 77.1559 10.1734C77.5292 9.89428 77.9592 9.75475 78.4457 9.75475C78.5663 9.75475 78.6964 9.76229 78.836 9.77737C78.9755 9.79246 79.0981 9.8132 79.2037 9.8396V11.9779C79.0905 11.944 78.934 11.9138 78.7342 11.8874C78.5343 11.861 78.3514 11.8478 78.1854 11.8478C77.8309 11.8478 77.5142 11.9251 77.2351 12.0797C76.9598 12.2306 76.7411 12.4418 76.5789 12.7133C76.4205 12.9848 76.3413 13.2978 76.3413 13.6523V18.5681H73.9315Z" fill="#898989"/>
</svg>
