<svg width="94" height="27" viewBox="0 0 94 27" fill="none" xmlns="http://www.w3.org/2000/svg">
<path d="M8.24596 11.1267L13.273 6.09965L18.3026 11.1293L21.2277 8.20416L13.273 0.249451L5.32086 8.20158L8.24596 11.1267ZM0.330078 13.1924L3.25518 10.2673L6.18027 13.1924L3.25518 16.1175L0.330078 13.1924ZM8.24596 15.2581L13.273 20.2851L18.3026 15.2555L21.2277 18.1793L13.273 26.1353L5.32086 18.1831L5.31698 18.1793L8.24596 15.2581ZM20.3657 13.1924L23.2908 10.2673L26.2159 13.1924L23.2908 16.1175L20.3657 13.1924ZM16.2395 13.1898H16.2421V13.1924L13.273 16.1615L10.3078 13.1975L10.3026 13.1924L10.3078 13.1885L10.8268 12.6682L11.0792 12.4158L13.273 10.2233L16.2408 13.1911L16.2395 13.1898Z" fill="#898989"/>
<path d="M31.8692 18.5681V6.98288H36.5079C37.3602 6.98288 38.071 7.10922 38.6405 7.36189C39.21 7.61457 39.638 7.96529 39.9246 8.41407C40.2112 8.85908 40.3545 9.37197 40.3545 9.95274C40.3545 10.4053 40.264 10.8032 40.083 11.1463C39.902 11.4857 39.6531 11.7648 39.3363 11.9836C39.0233 12.1985 38.665 12.3512 38.2615 12.4418V12.5549C38.7027 12.5738 39.1157 12.6982 39.5003 12.9282C39.8888 13.1583 40.2037 13.4807 40.445 13.8956C40.6864 14.3066 40.8071 14.7969 40.8071 15.3664C40.8071 15.9811 40.6543 16.5298 40.3489 17.0125C40.0472 17.4915 39.6003 17.8705 39.0082 18.1495C38.4161 18.4286 37.6864 18.5681 36.819 18.5681H31.8692ZM34.3187 16.5656H36.3155C36.9981 16.5656 37.4959 16.4355 37.8089 16.1753C38.122 15.9113 38.2785 15.5606 38.2785 15.1231C38.2785 14.8026 38.2011 14.5197 38.0465 14.2746C37.8919 14.0295 37.6713 13.8371 37.3847 13.6976C37.1018 13.558 36.7643 13.4883 36.3721 13.4883H34.3187V16.5656ZM34.3187 11.8308H36.1345C36.4701 11.8308 36.7681 11.7724 37.0283 11.6555C37.2923 11.5348 37.4997 11.3651 37.6505 11.1463C37.8052 10.9276 37.8825 10.6655 37.8825 10.36C37.8825 9.94142 37.7335 9.6039 37.4356 9.34745C37.1414 9.09101 36.7228 8.96279 36.1798 8.96279H34.3187V11.8308ZM42.3556 18.5681V9.8792H44.7655V18.5681H42.3556ZM43.5662 8.75914C43.2079 8.75914 42.9006 8.64034 42.6441 8.40276C42.3915 8.1614 42.2651 7.8729 42.2651 7.53725C42.2651 7.20539 42.3915 6.92066 42.6441 6.68307C42.9006 6.44171 43.2079 6.32103 43.5662 6.32103C43.9245 6.32103 44.23 6.44171 44.4826 6.68307C44.7391 6.92066 44.8673 7.20539 44.8673 7.53725C44.8673 7.8729 44.7391 8.1614 44.4826 8.40276C44.23 8.64034 43.9245 8.75914 43.5662 8.75914ZM49.1057 13.5448V18.5681H46.6959V9.8792H48.9926V11.4122H49.0944C49.2867 10.9069 49.6092 10.5071 50.0617 10.213C50.5143 9.91502 51.063 9.76606 51.7079 9.76606C52.3113 9.76606 52.8373 9.89805 53.2861 10.162C53.7349 10.426 54.0837 10.8032 54.3326 11.2934C54.5815 11.7799 54.706 12.3607 54.706 13.0357V18.5681H52.2962V13.4657C52.2999 12.9339 52.1642 12.5191 51.8889 12.2211C51.6136 11.9194 51.2346 11.7686 50.7518 11.7686C50.4275 11.7686 50.1409 11.8384 49.892 11.9779C49.6469 12.1174 49.4545 12.3211 49.315 12.5888C49.1792 12.8528 49.1095 13.1715 49.1057 13.5448ZM59.083 18.7322C58.5286 18.7322 58.0346 18.636 57.6009 18.4437C57.1672 18.2476 56.824 17.9591 56.5713 17.5782C56.3224 17.1935 56.198 16.7146 56.198 16.1413C56.198 15.6586 56.2866 15.2532 56.4639 14.9251C56.6411 14.597 56.8825 14.333 57.1879 14.1332C57.4934 13.9333 57.8404 13.7824 58.2288 13.6806C58.621 13.5788 59.0321 13.5071 59.462 13.4657C59.9674 13.4129 60.3746 13.3638 60.6839 13.3186C60.9931 13.2695 61.2175 13.1979 61.3571 13.1036C61.4966 13.0093 61.5664 12.8698 61.5664 12.685V12.6511C61.5664 12.2928 61.4532 12.0156 61.227 11.8195C61.0044 11.6234 60.6877 11.5253 60.2766 11.5253C59.8429 11.5253 59.4978 11.6215 59.2414 11.8138C58.9849 12.0024 58.8152 12.24 58.7323 12.5266L56.5035 12.3456C56.6166 11.8176 56.8391 11.3613 57.171 10.9766C57.5028 10.5882 57.9309 10.2903 58.4551 10.0828C58.9831 9.87166 59.594 9.76606 60.2879 9.76606C60.7706 9.76606 61.2326 9.82263 61.6738 9.93577C62.1189 10.0489 62.5129 10.2243 62.8561 10.4619C63.2031 10.6994 63.4765 11.0049 63.6764 11.3783C63.8763 11.7478 63.9762 12.191 63.9762 12.7076V18.5681H61.6908V17.3632H61.6229C61.4834 17.6348 61.2967 17.8742 61.0629 18.0817C60.8291 18.2853 60.5481 18.4456 60.22 18.5625C59.8919 18.6756 59.5129 18.7322 59.083 18.7322ZM59.7731 17.0691C60.1276 17.0691 60.4406 16.9993 60.7122 16.8598C60.9837 16.7165 61.1968 16.5241 61.3514 16.2828C61.506 16.0414 61.5833 15.768 61.5833 15.4625V14.5405C61.5079 14.5895 61.4042 14.6347 61.2722 14.6762C61.144 14.7139 60.9988 14.7498 60.8366 14.7837C60.6745 14.8139 60.5123 14.8422 60.3501 14.8686C60.188 14.8912 60.0409 14.9119 59.9089 14.9308C59.6261 14.9723 59.379 15.0383 59.1679 15.1288C58.9567 15.2193 58.7926 15.3418 58.6757 15.4965C58.5588 15.6473 58.5003 15.8359 58.5003 16.0622C58.5003 16.3903 58.6191 16.641 58.8567 16.8145C59.0981 16.9842 59.4036 17.0691 59.7731 17.0691ZM68.2556 13.5448V18.5681H65.8458V9.8792H68.1425V11.4122H68.2443C68.4366 10.9069 68.7591 10.5071 69.2116 10.213C69.6642 9.91502 70.2129 9.76606 70.8578 9.76606C71.4612 9.76606 71.9873 9.89805 72.436 10.162C72.8848 10.426 73.2337 10.8032 73.4826 11.2934C73.7315 11.7799 73.8559 12.3607 73.8559 13.0357V18.5681H71.4461V13.4657C71.4499 12.9339 71.3141 12.5191 71.0388 12.2211C70.7635 11.9194 70.3845 11.7686 69.9018 11.7686C69.5774 11.7686 69.2908 11.8384 69.0419 11.9779C68.7968 12.1174 68.6044 12.3211 68.4649 12.5888C68.3291 12.8528 68.2594 13.1715 68.2556 13.5448ZM79.6811 18.7379C78.7911 18.7379 78.0255 18.5493 77.3844 18.1722C76.747 17.7913 76.2568 17.2633 75.9136 16.5882C75.5742 15.9132 75.4045 15.1363 75.4045 14.2576C75.4045 13.3676 75.5761 12.587 75.9192 11.9157C76.2662 11.2406 76.7584 10.7145 77.3957 10.3374C78.033 9.95651 78.7911 9.76606 79.6698 9.76606C80.4278 9.76606 81.0915 9.90371 81.661 10.179C82.2304 10.4543 82.6811 10.8409 83.013 11.3387C83.3448 11.8365 83.5277 12.421 83.5617 13.0923H81.2876C81.2235 12.6586 81.0538 12.3098 80.7785 12.0458C80.507 11.778 80.1506 11.6441 79.7094 11.6441C79.336 11.6441 79.0098 11.746 78.7307 11.9496C78.4554 12.1495 78.2405 12.4418 78.0858 12.8264C77.9312 13.2111 77.8539 13.6768 77.8539 14.2237C77.8539 14.778 77.9293 15.2495 78.0802 15.6379C78.2348 16.0263 78.4516 16.3224 78.7307 16.526C79.0098 16.7297 79.336 16.8315 79.7094 16.8315C79.9847 16.8315 80.2317 16.7749 80.4504 16.6618C80.6729 16.5486 80.8558 16.3846 80.9991 16.1696C81.1462 15.9509 81.2424 15.6888 81.2876 15.3833H83.5617C83.524 16.0471 83.3429 16.6316 83.0186 17.137C82.6981 17.6385 82.2549 18.0307 81.6893 18.3136C81.1236 18.5964 80.4542 18.7379 79.6811 18.7379ZM89.0644 18.7379C88.1706 18.7379 87.4013 18.5568 86.7564 18.1948C86.1153 17.829 85.6212 17.3123 85.2743 16.6448C84.9273 15.9735 84.7539 15.1797 84.7539 14.2633C84.7539 13.3695 84.9273 12.5851 85.2743 11.91C85.6212 11.235 86.1096 10.7089 86.7394 10.3317C87.373 9.95462 88.1159 9.76606 88.9682 9.76606C89.5415 9.76606 90.0751 9.85846 90.5691 10.0432C91.0669 10.2243 91.5006 10.4977 91.8702 10.8635C92.2436 11.2293 92.5339 11.6894 92.7414 12.2438C92.9488 12.7944 93.0525 13.4393 93.0525 14.1784V14.8403H85.7155V13.3469H90.7841C90.7841 12.9999 90.7087 12.6925 90.5578 12.4248C90.407 12.157 90.1977 11.9477 89.9299 11.7969C89.6659 11.6423 89.3585 11.5649 89.0078 11.5649C88.642 11.5649 88.3177 11.6498 88.0348 11.8195C87.7558 11.9854 87.537 12.2098 87.3786 12.4927C87.2203 12.7717 87.1392 13.0829 87.1354 13.4261V14.8459C87.1354 15.2758 87.2146 15.6473 87.373 15.9603C87.5352 16.2733 87.7633 16.5147 88.0575 16.6844C88.3516 16.8541 88.7005 16.939 89.104 16.939C89.3717 16.939 89.6169 16.9013 89.8394 16.8258C90.0619 16.7504 90.2523 16.6373 90.4107 16.4864C90.5691 16.3356 90.6898 16.1508 90.7728 15.932L93.0016 16.0791C92.8884 16.6146 92.6565 17.0823 92.3058 17.482C91.9588 17.878 91.51 18.1873 90.9594 18.4098C90.4126 18.6285 89.7809 18.7379 89.0644 18.7379Z" fill="#898989"/>
</svg>
