<svg width="80" height="20" viewBox="0 0 80 20" fill="none" xmlns="http://www.w3.org/2000/svg">
<path d="M11.2518 8.03886H8.77412C8.72887 7.7183 8.63647 7.43357 8.49694 7.18467C8.3574 6.932 8.17827 6.71703 7.95953 6.53979C7.7408 6.36254 7.48813 6.22677 7.20151 6.13249C6.91867 6.03821 6.61131 5.99107 6.27944 5.99107C5.67982 5.99107 5.1575 6.14003 4.71249 6.43796C4.26749 6.73212 3.92242 7.16204 3.67729 7.72773C3.43215 8.28964 3.30959 8.97224 3.30959 9.77551C3.30959 10.6014 3.43215 11.2953 3.67729 11.8572C3.92619 12.4192 4.27314 12.8434 4.71815 13.13C5.16316 13.4167 5.67793 13.56 6.26247 13.56C6.59057 13.56 6.89416 13.5166 7.17323 13.4299C7.45607 13.3431 7.70686 13.2168 7.92559 13.0508C8.14432 12.8811 8.32534 12.6756 8.46865 12.4342C8.61573 12.1929 8.71755 11.9176 8.77412 11.6083L11.2518 11.6197C11.1877 12.1514 11.0274 12.6643 10.771 13.1583C10.5183 13.6486 10.177 14.0879 9.7471 14.4764C9.32095 14.861 8.81183 15.1665 8.21975 15.3928C7.63144 15.6153 6.96581 15.7265 6.22288 15.7265C5.18955 15.7265 4.2656 15.4927 3.45101 15.0251C2.64019 14.5575 1.99908 13.8805 1.52768 12.9943C1.06004 12.108 0.826224 11.0351 0.826224 9.77551C0.826224 8.51215 1.06381 7.43734 1.53899 6.5511C2.01417 5.66486 2.65905 4.9898 3.47364 4.52594C4.28823 4.05831 5.20464 3.82449 6.22288 3.82449C6.89416 3.82449 7.51641 3.91877 8.08964 4.10733C8.66664 4.2959 9.17765 4.5712 9.62265 4.93324C10.0677 5.2915 10.4297 5.73085 10.7088 6.25129C10.9916 6.77172 11.1726 7.36757 11.2518 8.03886ZM16.8889 15.7379C16.0102 15.7379 15.2503 15.5512 14.6092 15.1778C13.9718 14.8007 13.4797 14.2765 13.1327 13.6052C12.7858 12.9302 12.6123 12.1476 12.6123 11.2576C12.6123 10.3601 12.7858 9.57564 13.1327 8.90436C13.4797 8.2293 13.9718 7.7051 14.6092 7.33175C15.2503 6.95462 16.0102 6.76606 16.8889 6.76606C17.7676 6.76606 18.5256 6.95462 19.163 7.33175C19.8041 7.7051 20.2981 8.2293 20.6451 8.90436C20.992 9.57564 21.1655 10.3601 21.1655 11.2576C21.1655 12.1476 20.992 12.9302 20.6451 13.6052C20.2981 14.2765 19.8041 14.8007 19.163 15.1778C18.5256 15.5512 17.7676 15.7379 16.8889 15.7379ZM16.9002 13.8711C17.3 13.8711 17.6337 13.7579 17.9015 13.5317C18.1692 13.3016 18.371 12.9886 18.5068 12.5926C18.6463 12.1967 18.7161 11.746 18.7161 11.2406C18.7161 10.7353 18.6463 10.2846 18.5068 9.88865C18.371 9.49267 18.1692 9.17966 17.9015 8.94961C17.6337 8.71957 17.3 8.60454 16.9002 8.60454C16.4967 8.60454 16.1573 8.71957 15.882 8.94961C15.6104 9.17966 15.4049 9.49267 15.2654 9.88865C15.1296 10.2846 15.0617 10.7353 15.0617 11.2406C15.0617 11.746 15.1296 12.1967 15.2654 12.5926C15.4049 12.9886 15.6104 13.3016 15.882 13.5317C16.1573 13.7579 16.4967 13.8711 16.9002 13.8711ZM22.7324 15.5681V6.8792H25.1423V15.5681H22.7324ZM23.943 5.75914C23.5847 5.75914 23.2774 5.64034 23.0209 5.40276C22.7683 5.1614 22.6419 4.8729 22.6419 4.53725C22.6419 4.20539 22.7683 3.92066 23.0209 3.68307C23.2774 3.44171 23.5847 3.32103 23.943 3.32103C24.3013 3.32103 24.6068 3.44171 24.8594 3.68307C25.1159 3.92066 25.2441 4.20539 25.2441 4.53725C25.2441 4.8729 25.1159 5.1614 24.8594 5.40276C24.6068 5.64034 24.3013 5.75914 23.943 5.75914ZM29.4825 10.5448V15.5681H27.0727V6.8792H29.3694V8.41221H29.4712C29.6635 7.90686 29.986 7.50711 30.4385 7.21295C30.8911 6.91502 31.4398 6.76606 32.0847 6.76606C32.6881 6.76606 33.2141 6.89805 33.6629 7.16204C34.1117 7.42603 34.4605 7.80315 34.7094 8.29341C34.9583 8.77991 35.0828 9.36068 35.0828 10.0357V15.5681H32.673V10.4657C32.6767 9.93391 32.541 9.51907 32.2657 9.22114C31.9904 8.91944 31.6114 8.76859 31.1286 8.76859C30.8043 8.76859 30.5177 8.83836 30.2688 8.9779C30.0237 9.11743 29.8313 9.32108 29.6918 9.58884C29.556 9.85282 29.4863 10.1715 29.4825 10.5448ZM37.0273 15.5681V3.98288H39.4372V8.33867H39.5107C39.6163 8.10485 39.769 7.86726 39.9689 7.6259C40.1726 7.38077 40.4365 7.17713 40.7609 7.01496C41.089 6.84903 41.4963 6.76606 41.9828 6.76606C42.6163 6.76606 43.2009 6.932 43.7364 7.26387C44.2719 7.59196 44.6999 8.08788 45.0205 8.75162C45.3411 9.41159 45.5013 10.2394 45.5013 11.235C45.5013 12.2042 45.3448 13.0226 45.0318 13.6901C44.7226 14.3538 44.3002 14.8573 43.7647 15.2004C43.2329 15.5399 42.6371 15.7096 41.9771 15.7096C41.5095 15.7096 41.1116 15.6323 40.7835 15.4776C40.4592 15.323 40.1933 15.1288 39.9859 14.895C39.7785 14.6574 39.6201 14.4179 39.5107 14.1766H39.4032V15.5681H37.0273ZM39.3863 11.2237C39.3863 11.7403 39.4579 12.191 39.6012 12.5757C39.7445 12.9603 39.9519 13.2601 40.2235 13.4751C40.495 13.6863 40.825 13.7919 41.2134 13.7919C41.6056 13.7919 41.9375 13.6844 42.209 13.4694C42.4806 13.2507 42.6861 12.949 42.8256 12.5643C42.9689 12.1759 43.0406 11.729 43.0406 11.2237C43.0406 10.7221 42.9708 10.2809 42.8313 9.89996C42.6918 9.51907 42.4862 9.22114 42.2147 9.00618C41.9432 8.79122 41.6094 8.68374 41.2134 8.68374C40.8212 8.68374 40.4893 8.78745 40.2178 8.99487C39.9501 9.20228 39.7445 9.49644 39.6012 9.87734C39.4579 10.2582 39.3863 10.707 39.3863 11.2237ZM49.587 15.7322C49.0326 15.7322 48.5386 15.636 48.1049 15.4437C47.6712 15.2476 47.328 14.9591 47.0754 14.5782C46.8265 14.1935 46.702 13.7146 46.702 13.1413C46.702 12.6586 46.7906 12.2532 46.9679 11.9251C47.1451 11.597 47.3865 11.333 47.692 11.1332C47.9974 10.9333 48.3444 10.7824 48.7328 10.6806C49.125 10.5788 49.5361 10.5071 49.966 10.4657C50.4714 10.4129 50.8787 10.3638 51.1879 10.3186C51.4971 10.2695 51.7215 10.1979 51.8611 10.1036C52.0006 10.0093 52.0704 9.8698 52.0704 9.685V9.65106C52.0704 9.29279 51.9572 9.01561 51.731 8.8195C51.5085 8.6234 51.1917 8.52535 50.7806 8.52535C50.3469 8.52535 50.0018 8.62151 49.7454 8.81385C49.489 9.00241 49.3192 9.24 49.2363 9.52661L47.0075 9.34559C47.1206 8.81762 47.3431 8.3613 47.675 7.97663C48.0069 7.58819 48.4349 7.29026 48.9591 7.08284C49.4871 6.87166 50.098 6.76606 50.7919 6.76606C51.2746 6.76606 51.7366 6.82263 52.1778 6.93577C52.6229 7.0489 53.017 7.22427 53.3601 7.46186C53.7071 7.69944 53.9805 8.00491 54.1804 8.37827C54.3803 8.74785 54.4802 9.19097 54.4802 9.70763V15.5681H52.1948V14.3632H52.1269C51.9874 14.6348 51.8007 14.8742 51.5669 15.0817C51.3331 15.2853 51.0521 15.4456 50.724 15.5625C50.3959 15.6756 50.0169 15.7322 49.587 15.7322ZM50.2771 14.0691C50.6316 14.0691 50.9447 13.9993 51.2162 13.8598C51.4877 13.7165 51.7008 13.5241 51.8554 13.2828C52.01 13.0414 52.0873 12.768 52.0873 12.4625V11.5405C52.0119 11.5895 51.9082 11.6347 51.7762 11.6762C51.648 11.7139 51.5028 11.7498 51.3406 11.7837C51.1785 11.8139 51.0163 11.8422 50.8541 11.8686C50.692 11.8912 50.5449 11.9119 50.4129 11.9308C50.1301 11.9723 49.883 12.0383 49.6719 12.1288C49.4607 12.2193 49.2966 12.3418 49.1797 12.4965C49.0628 12.6473 49.0043 12.8359 49.0043 13.0622C49.0043 13.3903 49.1231 13.641 49.3607 13.8145C49.6021 13.9842 49.9076 14.0691 50.2771 14.0691ZM63.5793 9.35691L61.3731 9.49267C61.3354 9.30411 61.2543 9.1344 61.1298 8.98355C61.0054 8.82893 60.8413 8.70637 60.6377 8.61586C60.4378 8.52158 60.1983 8.47443 59.9193 8.47443C59.5459 8.47443 59.231 8.55363 58.9746 8.71202C58.7181 8.86664 58.5899 9.07406 58.5899 9.33428C58.5899 9.5417 58.6729 9.71706 58.8388 9.86037C59.0047 10.0037 59.2895 10.1187 59.693 10.2054L61.2656 10.5222C62.1104 10.6957 62.7402 10.9748 63.155 11.3594C63.5698 11.7441 63.7773 12.2495 63.7773 12.8755C63.7773 13.4449 63.6094 13.9446 63.2738 14.3745C62.9419 14.8045 62.4856 15.1401 61.9048 15.3815C61.3278 15.6191 60.6622 15.7379 59.908 15.7379C58.7577 15.7379 57.8413 15.4984 57.1587 15.0194C56.4799 14.5367 56.082 13.8805 55.9651 13.0508L58.3353 12.9264C58.407 13.2771 58.5805 13.5449 58.8558 13.7297C59.1311 13.9107 59.4837 14.0012 59.9136 14.0012C60.336 14.0012 60.6754 13.9201 60.9318 13.7579C61.1921 13.592 61.3241 13.3789 61.3278 13.1187C61.3241 12.9 61.2317 12.7209 61.0506 12.5813C60.8696 12.438 60.5906 12.3286 60.2134 12.2532L58.7087 11.9534C57.8602 11.7837 57.2285 11.4895 56.8136 11.0709C56.4026 10.6523 56.1971 10.1187 56.1971 9.47004C56.1971 8.9119 56.3479 8.43107 56.6496 8.02754C56.9551 7.62402 57.3831 7.31289 57.9337 7.09416C58.4881 6.87543 59.1367 6.76606 59.8797 6.76606C60.9771 6.76606 61.8407 6.99799 62.4705 7.46186C63.1041 7.92572 63.4737 8.5574 63.5793 9.35691ZM69.2545 15.7379C68.3607 15.7379 67.5914 15.5568 66.9465 15.1948C66.3054 14.829 65.8114 14.3123 65.4644 13.6448C65.1175 12.9735 64.944 12.1797 64.944 11.2633C64.944 10.3695 65.1175 9.58507 65.4644 8.91001C65.8114 8.23496 66.2997 7.70887 66.9295 7.33175C67.5631 6.95462 68.306 6.76606 69.1583 6.76606C69.7316 6.76606 70.2652 6.85846 70.7592 7.04325C71.257 7.22427 71.6907 7.49768 72.0603 7.86349C72.4337 8.2293 72.7241 8.6894 72.9315 9.24377C73.1389 9.79437 73.2426 10.4393 73.2426 11.1784V11.8403H65.9056V10.3469H70.9742C70.9742 9.9999 70.8988 9.69255 70.7479 9.42479C70.5971 9.15703 70.3878 8.94773 70.12 8.79688C69.856 8.64225 69.5487 8.56494 69.1979 8.56494C68.8321 8.56494 68.5078 8.6498 68.225 8.8195C67.9459 8.98544 67.7272 9.20983 67.5688 9.49267C67.4104 9.77174 67.3293 10.0829 67.3255 10.4261V11.8459C67.3255 12.2758 67.4047 12.6473 67.5631 12.9603C67.7253 13.2733 67.9534 13.5147 68.2476 13.6844C68.5417 13.8541 68.8906 13.939 69.2941 13.939C69.5619 13.939 69.807 13.9013 70.0295 13.8258C70.252 13.7504 70.4425 13.6373 70.6008 13.4864C70.7592 13.3356 70.8799 13.1508 70.9629 12.932L73.1917 13.0791C73.0786 13.6146 72.8466 14.0823 72.4959 14.482C72.1489 14.878 71.7002 15.1873 71.1496 15.4098C70.6027 15.6285 69.971 15.7379 69.2545 15.7379Z" fill="#898989"/>
</svg>
