<svg width="121" height="27" viewBox="0 0 121 27" fill="none" xmlns="http://www.w3.org/2000/svg">
<g clip-path="url(#clip0_103_19510)">
<path d="M16.2088 21.0794H14.5725L12.6136 19.3268V18.428L14.6417 16.5404V13.5519L17.292 11.8666L20.3111 14.0912L16.2088 21.0794ZM9.43313 16.3607L9.73274 13.5519L8.74178 11.0352H14.5956L13.6276 13.5519L13.9041 16.3607H11.6456H9.43313ZM10.7698 19.3268L8.81087 21.1019H7.15152L3.02623 14.0912L6.06836 11.8891L8.74178 13.5519V16.5404L10.7698 18.428V19.3268ZM7.12849 5.84457H16.1857L17.269 10.3386H6.06836L7.12849 5.84457ZM11.6687 0.249451L0.168457 6.72091V19.6638L11.6687 26.1353L23.1689 19.6638V6.72091L11.6687 0.249451Z" fill="#898989"/>
</g>
<path d="M35.5882 18.7379C34.6982 18.7379 33.9326 18.5493 33.2915 18.1722C32.6542 17.7913 32.1639 17.2633 31.8207 16.5882C31.4813 15.9132 31.3116 15.1363 31.3116 14.2576C31.3116 13.3676 31.4832 12.587 31.8264 11.9157C32.1734 11.2406 32.6655 10.7145 33.3028 10.3374C33.9402 9.95651 34.6982 9.76606 35.5769 9.76606C36.3349 9.76606 36.9987 9.90371 37.5681 10.179C38.1376 10.4543 38.5882 10.8409 38.9201 11.3387C39.252 11.8365 39.4349 12.421 39.4688 13.0923H37.1948C37.1307 12.6586 36.9609 12.3098 36.6856 12.0458C36.4141 11.778 36.0577 11.6441 35.6165 11.6441C35.2431 11.6441 34.9169 11.746 34.6379 11.9496C34.3626 12.1495 34.1476 12.4418 33.993 12.8264C33.8384 13.2111 33.761 13.6768 33.761 14.2237C33.761 14.778 33.8365 15.2495 33.9873 15.6379C34.1419 16.0263 34.3588 16.3224 34.6379 16.526C34.9169 16.7297 35.2431 16.8315 35.6165 16.8315C35.8918 16.8315 36.1388 16.7749 36.3576 16.6618C36.5801 16.5486 36.763 16.3846 36.9063 16.1696C37.0533 15.9509 37.1495 15.6888 37.1948 15.3833H39.4688C39.4311 16.0471 39.2501 16.6316 38.9258 17.137C38.6052 17.6385 38.1621 18.0307 37.5964 18.3136C37.0307 18.5964 36.3613 18.7379 35.5882 18.7379ZM41.0117 18.5681V9.8792H43.348V11.3952H43.4385C43.5969 10.856 43.8628 10.4487 44.2362 10.1734C44.6095 9.89428 45.0394 9.75475 45.5259 9.75475C45.6466 9.75475 45.7767 9.76229 45.9162 9.77737C46.0558 9.79246 46.1783 9.8132 46.2839 9.8396V11.9779C46.1708 11.944 46.0143 11.9138 45.8144 11.8874C45.6145 11.861 45.4316 11.8478 45.2657 11.8478C44.9112 11.8478 44.5944 11.9251 44.3153 12.0797C44.04 12.2306 43.8213 12.4418 43.6592 12.7133C43.5008 12.9848 43.4216 13.2978 43.4216 13.6523V18.5681H41.0117ZM49.2821 21.8265C48.9766 21.8265 48.69 21.802 48.4222 21.753C48.1582 21.7077 47.9395 21.6493 47.766 21.5776L48.3091 19.7787C48.5919 19.8655 48.8465 19.9126 49.0728 19.9201C49.3028 19.9277 49.5008 19.8749 49.6667 19.7617C49.8364 19.6486 49.9741 19.4563 50.0797 19.1847L50.2211 18.817L47.1042 9.8792H49.6385L51.4373 16.2601H51.5279L53.3437 9.8792H55.895L52.5178 19.5072C52.3556 19.9748 52.135 20.3821 51.856 20.7291C51.5807 21.0798 51.2318 21.3494 50.8094 21.538C50.3871 21.7303 49.8779 21.8265 49.2821 21.8265ZM57.1282 21.8265V9.8792H59.504V11.3387H59.6115C59.7171 11.1049 59.8698 10.8673 60.0697 10.6259C60.2734 10.3808 60.5374 10.1771 60.8617 10.015C61.1898 9.84903 61.5971 9.76606 62.0836 9.76606C62.7171 9.76606 63.3017 9.932 63.8372 10.2639C64.3727 10.592 64.8007 11.0879 65.1213 11.7516C65.4419 12.4116 65.6021 13.2394 65.6021 14.235C65.6021 15.2042 65.4456 16.0226 65.1326 16.6901C64.8234 17.3538 64.401 17.8573 63.8655 18.2004C63.3337 18.5399 62.7379 18.7096 62.0779 18.7096C61.6103 18.7096 61.2124 18.6323 60.8843 18.4776C60.56 18.323 60.2941 18.1288 60.0867 17.895C59.8793 17.6574 59.7209 17.4179 59.6115 17.1766H59.538V21.8265H57.1282ZM59.4871 14.2237C59.4871 14.7403 59.5587 15.191 59.702 15.5757C59.8453 15.9603 60.0528 16.2601 60.3243 16.4751C60.5958 16.6863 60.9258 16.7919 61.3142 16.7919C61.7064 16.7919 62.0383 16.6844 62.3098 16.4694C62.5814 16.2507 62.7869 15.949 62.9264 15.5643C63.0697 15.1759 63.1414 14.729 63.1414 14.2237C63.1414 13.7221 63.0716 13.2809 62.9321 12.9C62.7926 12.5191 62.587 12.2211 62.3155 12.0062C62.044 11.7912 61.7102 11.6837 61.3142 11.6837C60.922 11.6837 60.5902 11.7874 60.3186 11.9949C60.0509 12.2023 59.8453 12.4964 59.702 12.8773C59.5587 13.2582 59.4871 13.707 59.4871 14.2237ZM71.8303 9.8792V11.6894H66.5977V9.8792H71.8303ZM67.7857 7.79747H70.1955V15.8981C70.1955 16.1206 70.2295 16.2941 70.2973 16.4185C70.3652 16.5392 70.4595 16.6241 70.5802 16.6731C70.7046 16.7221 70.8479 16.7466 71.0101 16.7466C71.1232 16.7466 71.2364 16.7372 71.3495 16.7184C71.4627 16.6957 71.5494 16.6788 71.6097 16.6674L71.9887 18.4607C71.8681 18.4984 71.6984 18.5417 71.4796 18.5908C71.2609 18.6436 70.995 18.6756 70.682 18.6869C70.1012 18.7096 69.5921 18.6323 69.1547 18.455C68.721 18.2778 68.3834 18.0025 68.1421 17.6291C67.9007 17.2558 67.7819 16.7843 67.7857 16.2149V7.79747ZM77.2327 18.7379C76.354 18.7379 75.5941 18.5512 74.9529 18.1778C74.3156 17.8007 73.8235 17.2765 73.4765 16.6052C73.1295 15.9302 72.9561 15.1476 72.9561 14.2576C72.9561 13.3601 73.1295 12.5756 73.4765 11.9044C73.8235 11.2293 74.3156 10.7051 74.9529 10.3317C75.5941 9.95462 76.354 9.76606 77.2327 9.76606C78.1114 9.76606 78.8694 9.95462 79.5067 10.3317C80.1478 10.7051 80.6419 11.2293 80.9888 11.9044C81.3358 12.5756 81.5092 13.3601 81.5092 14.2576C81.5092 15.1476 81.3358 15.9302 80.9888 16.6052C80.6419 17.2765 80.1478 17.8007 79.5067 18.1778C78.8694 18.5512 78.1114 18.7379 77.2327 18.7379ZM77.244 16.8711C77.6437 16.8711 77.9775 16.7579 78.2452 16.5317C78.513 16.3016 78.7148 15.9886 78.8505 15.5926C78.9901 15.1967 79.0598 14.746 79.0598 14.2406C79.0598 13.7353 78.9901 13.2846 78.8505 12.8887C78.7148 12.4927 78.513 12.1797 78.2452 11.9496C77.9775 11.7196 77.6437 11.6045 77.244 11.6045C76.8404 11.6045 76.501 11.7196 76.2257 11.9496C75.9542 12.1797 75.7487 12.4927 75.6091 12.8887C75.4734 13.2846 75.4055 13.7353 75.4055 14.2406C75.4055 14.746 75.4734 15.1967 75.6091 15.5926C75.7487 15.9886 75.9542 16.3016 76.2257 16.5317C76.501 16.7579 76.8404 16.8711 77.244 16.8711ZM84.4848 18.7152C84.1114 18.7152 83.7909 18.5832 83.5231 18.3192C83.2591 18.0515 83.1271 17.7309 83.1271 17.3576C83.1271 16.988 83.2591 16.6712 83.5231 16.4072C83.7909 16.1432 84.1114 16.0112 84.4848 16.0112C84.8468 16.0112 85.1636 16.1432 85.4351 16.4072C85.7066 16.6712 85.8424 16.988 85.8424 17.3576C85.8424 17.6065 85.7783 17.8346 85.6501 18.0421C85.5256 18.2457 85.3616 18.4098 85.1579 18.5342C84.9543 18.6549 84.7299 18.7152 84.4848 18.7152ZM91.7468 18.7379C90.8567 18.7379 90.0912 18.5493 89.4501 18.1722C88.8127 17.7913 88.3225 17.2633 87.9793 16.5882C87.6399 15.9132 87.4702 15.1363 87.4702 14.2576C87.4702 13.3676 87.6418 12.587 87.9849 11.9157C88.3319 11.2406 88.824 10.7145 89.4614 10.3374C90.0987 9.95651 90.8567 9.76606 91.7354 9.76606C92.4935 9.76606 93.1572 9.90371 93.7267 10.179C94.2961 10.4543 94.7468 10.8409 95.0787 11.3387C95.4105 11.8365 95.5934 12.421 95.6274 13.0923H93.3533C93.2892 12.6586 93.1195 12.3098 92.8442 12.0458C92.5727 11.778 92.2163 11.6441 91.775 11.6441C91.4017 11.6441 91.0755 11.746 90.7964 11.9496C90.5211 12.1495 90.3061 12.4418 90.1515 12.8264C89.9969 13.2111 89.9196 13.6768 89.9196 14.2237C89.9196 14.778 89.995 15.2495 90.1459 15.6379C90.3005 16.0263 90.5173 16.3224 90.7964 16.526C91.0755 16.7297 91.4017 16.8315 91.775 16.8315C92.0503 16.8315 92.2974 16.7749 92.5161 16.6618C92.7386 16.5486 92.9215 16.3846 93.0648 16.1696C93.2119 15.9509 93.3081 15.6888 93.3533 15.3833H95.6274C95.5897 16.0471 95.4086 16.6316 95.0843 17.137C94.7638 17.6385 94.3206 18.0307 93.755 18.3136C93.1893 18.5964 92.5199 18.7379 91.7468 18.7379ZM101.096 18.7379C100.217 18.7379 99.4575 18.5512 98.8164 18.1778C98.1791 17.8007 97.6869 17.2765 97.34 16.6052C96.993 15.9302 96.8196 15.1476 96.8196 14.2576C96.8196 13.3601 96.993 12.5756 97.34 11.9044C97.6869 11.2293 98.1791 10.7051 98.8164 10.3317C99.4575 9.95462 100.217 9.76606 101.096 9.76606C101.975 9.76606 102.733 9.95462 103.37 10.3317C104.011 10.7051 104.505 11.2293 104.852 11.9044C105.199 12.5756 105.373 13.3601 105.373 14.2576C105.373 15.1476 105.199 15.9302 104.852 16.6052C104.505 17.2765 104.011 17.8007 103.37 18.1778C102.733 18.5512 101.975 18.7379 101.096 18.7379ZM101.107 16.8711C101.507 16.8711 101.841 16.7579 102.109 16.5317C102.376 16.3016 102.578 15.9886 102.714 15.5926C102.854 15.1967 102.923 14.746 102.923 14.2406C102.923 13.7353 102.854 13.2846 102.714 12.8887C102.578 12.4927 102.376 12.1797 102.109 11.9496C101.841 11.7196 101.507 11.6045 101.107 11.6045C100.704 11.6045 100.365 11.7196 100.089 11.9496C99.8177 12.1797 99.6122 12.4927 99.4726 12.8887C99.3369 13.2846 99.269 13.7353 99.269 14.2406C99.269 14.746 99.3369 15.1967 99.4726 15.5926C99.6122 15.9886 99.8177 16.3016 100.089 16.5317C100.365 16.7579 100.704 16.8711 101.107 16.8711ZM106.94 18.5681V9.8792H109.236V11.4122H109.338C109.519 10.9031 109.821 10.5015 110.243 10.2073C110.666 9.91314 111.171 9.76606 111.759 9.76606C112.355 9.76606 112.862 9.91502 113.281 10.213C113.7 10.5071 113.979 10.9069 114.118 11.4122H114.209C114.386 10.9144 114.707 10.5165 115.17 10.2186C115.638 9.91691 116.191 9.76606 116.828 9.76606C117.639 9.76606 118.297 10.0244 118.802 10.5411C119.311 11.0539 119.566 11.7818 119.566 12.7246V18.5681H117.162V13.1998C117.162 12.7171 117.033 12.355 116.777 12.1137C116.521 11.8723 116.2 11.7516 115.815 11.7516C115.378 11.7516 115.037 11.8912 114.791 12.1702C114.546 12.4455 114.424 12.8095 114.424 13.262V18.5681H112.087V13.1489C112.087 12.7227 111.965 12.3833 111.72 12.1306C111.478 11.878 111.16 11.7516 110.764 11.7516C110.496 11.7516 110.255 11.8195 110.04 11.9553C109.828 12.0873 109.661 12.2739 109.536 12.5153C109.412 12.7529 109.35 13.032 109.35 13.3525V18.5681H106.94Z" fill="#898989"/>
<defs>
<clipPath id="clip0_103_19510">
<rect width="23.2309" height="25.8858" fill="white" transform="translate(0.168457 0.249451)"/>
</clipPath>
</defs>
</svg>
