<svg width="98" height="27" viewBox="0 0 98 27" fill="none" xmlns="http://www.w3.org/2000/svg">
<path d="M43.7325 18.5681V6.98288H46.1819V12.091H46.3347L50.5038 6.98288H53.4397L49.1405 12.1702L53.4906 18.5681H50.5603L47.3868 13.8051L46.1819 15.2758V18.5681H43.7325ZM54.6701 18.5681V9.8792H57.0063V11.3952H57.0969C57.2552 10.856 57.5211 10.4487 57.8945 10.1734C58.2678 9.89428 58.6977 9.75475 59.1842 9.75475C59.3049 9.75475 59.435 9.76229 59.5746 9.77737C59.7141 9.79246 59.8367 9.8132 59.9423 9.8396V11.9779C59.8291 11.944 59.6726 11.9138 59.4727 11.8874C59.2729 11.861 59.09 11.8478 58.924 11.8478C58.5695 11.8478 58.2527 11.9251 57.9737 12.0797C57.6984 12.2306 57.4796 12.4418 57.3175 12.7133C57.1591 12.9848 57.0799 13.2978 57.0799 13.6523V18.5681H54.6701ZM63.417 18.7322C62.8626 18.7322 62.3686 18.636 61.9349 18.4437C61.5012 18.2476 61.158 17.9591 60.9053 17.5782C60.6564 17.1935 60.532 16.7146 60.532 16.1413C60.532 15.6586 60.6206 15.2532 60.7979 14.9251C60.9751 14.597 61.2165 14.333 61.5219 14.1332C61.8274 13.9333 62.1744 13.7824 62.5628 13.6806C62.955 13.5788 63.3661 13.5071 63.796 13.4657C64.3013 13.4129 64.7086 13.3638 65.0179 13.3186C65.3271 13.2695 65.5515 13.1979 65.6911 13.1036C65.8306 13.0093 65.9004 12.8698 65.9004 12.685V12.6511C65.9004 12.2928 65.7872 12.0156 65.5609 11.8195C65.3384 11.6234 65.0217 11.5253 64.6106 11.5253C64.1769 11.5253 63.8318 11.6215 63.5754 11.8138C63.3189 12.0024 63.1492 12.24 63.0663 12.5266L60.8375 12.3456C60.9506 11.8176 61.1731 11.3613 61.505 10.9766C61.8368 10.5882 62.2649 10.2903 62.7891 10.0828C63.3171 9.87166 63.928 9.76606 64.6219 9.76606C65.1046 9.76606 65.5666 9.82263 66.0078 9.93577C66.4528 10.0489 66.8469 10.2243 67.1901 10.4619C67.5371 10.6994 67.8105 11.0049 68.0104 11.3783C68.2102 11.7478 68.3102 12.191 68.3102 12.7076V18.5681H66.0248V17.3632H65.9569C65.8174 17.6348 65.6307 17.8742 65.3969 18.0817C65.1631 18.2853 64.8821 18.4456 64.554 18.5625C64.2259 18.6756 63.8469 18.7322 63.417 18.7322ZM64.1071 17.0691C64.4616 17.0691 64.7746 16.9993 65.0462 16.8598C65.3177 16.7165 65.5308 16.5241 65.6854 16.2828C65.84 16.0414 65.9173 15.768 65.9173 15.4625V14.5405C65.8419 14.5895 65.7382 14.6347 65.6062 14.6762C65.478 14.7139 65.3328 14.7498 65.1706 14.7837C65.0085 14.8139 64.8463 14.8422 64.6841 14.8686C64.522 14.8912 64.3749 14.9119 64.2429 14.9308C63.96 14.9723 63.713 15.0383 63.5018 15.1288C63.2907 15.2193 63.1266 15.3418 63.0097 15.4965C62.8928 15.6473 62.8343 15.8359 62.8343 16.0622C62.8343 16.3903 62.9531 16.641 63.1907 16.8145C63.4321 16.9842 63.7375 17.0691 64.1071 17.0691ZM72.3633 16.0678L72.369 13.1772H72.7197L75.5029 9.8792H78.2691L74.5299 14.2463H73.9586L72.3633 16.0678ZM70.1798 18.5681V6.98288H72.5896V18.5681H70.1798ZM75.6104 18.5681L73.0535 14.7837L74.66 13.081L78.4331 18.5681H75.6104ZM83.0534 18.7379C82.1596 18.7379 81.3903 18.5568 80.7454 18.1948C80.1043 17.829 79.6102 17.3123 79.2633 16.6448C78.9163 15.9735 78.7429 15.1797 78.7429 14.2633C78.7429 13.3695 78.9163 12.5851 79.2633 11.91C79.6102 11.235 80.0986 10.7089 80.7284 10.3317C81.362 9.95462 82.1049 9.76606 82.9572 9.76606C83.5305 9.76606 84.0641 9.85846 84.5581 10.0432C85.0559 10.2243 85.4896 10.4977 85.8592 10.8635C86.2325 11.2293 86.5229 11.6894 86.7304 12.2438C86.9378 12.7944 87.0415 13.4393 87.0415 14.1784V14.8403H79.7045V13.3469H84.7731C84.7731 12.9999 84.6977 12.6925 84.5468 12.4248C84.396 12.157 84.1866 11.9477 83.9189 11.7969C83.6549 11.6423 83.3475 11.5649 82.9968 11.5649C82.631 11.5649 82.3067 11.6498 82.0238 11.8195C81.7448 11.9854 81.526 12.2098 81.3676 12.4927C81.2093 12.7717 81.1282 13.0829 81.1244 13.4261V14.8459C81.1244 15.2758 81.2036 15.6473 81.362 15.9603C81.5242 16.2733 81.7523 16.5147 82.0465 16.6844C82.3406 16.8541 82.6895 16.939 83.093 16.939C83.3607 16.939 83.6059 16.9013 83.8284 16.8258C84.0509 16.7504 84.2413 16.6373 84.3997 16.4864C84.5581 16.3356 84.6788 16.1508 84.7618 15.932L86.9906 16.0791C86.8774 16.6146 86.6455 17.0823 86.2948 17.482C85.9478 17.878 85.499 18.1873 84.9484 18.4098C84.4016 18.6285 83.7699 18.7379 83.0534 18.7379ZM91.0239 13.5448V18.5681H88.6141V9.8792H90.9108V11.4122H91.0126C91.2049 10.9069 91.5274 10.5071 91.9799 10.213C92.4325 9.91502 92.9812 9.76606 93.6261 9.76606C94.2295 9.76606 94.7556 9.89805 95.2043 10.162C95.6531 10.426 96.002 10.8032 96.2509 11.2934C96.4998 11.7799 96.6242 12.3607 96.6242 13.0357V18.5681H94.2144V13.4657C94.2182 12.9339 94.0824 12.5191 93.8071 12.2211C93.5318 11.9194 93.1528 11.7686 92.6701 11.7686C92.3457 11.7686 92.0591 11.8384 91.8102 11.9779C91.5651 12.1174 91.3728 12.3211 91.2332 12.5888C91.0975 12.8528 91.0277 13.1715 91.0239 13.5448Z" fill="#898989"/>
<path d="M0.91978 19.7455C0.91978 19.1093 0.931017 18.4737 0.915811 17.8375C0.885712 16.6094 0.975821 15.3813 1.18488 14.1703C1.54188 12.1383 2.19043 10.2199 3.25085 8.44563C5.02923 5.46551 7.53681 3.27431 10.6949 1.80546C12.0897 1.14704 13.5747 0.693942 15.1025 0.46059C15.9018 0.340525 16.7044 0.242644 17.5182 0.249822C20.9758 0.275271 24.1954 1.11834 27.1043 3.0009C29.9543 4.84691 32.0937 7.28934 33.3789 10.4261C33.9721 11.8999 34.3659 13.4445 34.5504 15.0199C34.7679 16.7608 34.7784 18.509 34.7487 20.261C34.7302 21.2059 34.7341 22.1534 34.7189 23.0956C34.7117 23.5061 34.6971 23.9172 34.5867 24.3204C34.1557 25.8865 32.3442 26.5991 31.0167 25.7306C30.4217 25.3456 30.1295 24.7785 30.0251 24.0992C29.9515 23.645 29.9145 23.1857 29.9147 22.7256V17.0232C29.9147 16.278 29.6793 15.6163 29.1636 15.0656C28.2612 14.1096 26.8769 14.0731 25.8641 14.9566C25.2968 15.4545 25.039 16.0868 24.9841 16.8137C24.9623 17.0865 24.9544 17.3586 24.9544 17.6313C24.9504 19.7286 24.9583 21.8219 24.9431 23.9191C24.9319 25.1074 24.0176 26.0164 22.7892 26.0999C22.2237 26.1416 21.6628 25.9737 21.216 25.629C20.7693 25.2842 20.4689 24.7874 20.3736 24.2356C20.3214 23.9185 20.2969 23.5976 20.3002 23.2764C20.3002 21.1681 20.3041 19.0604 20.3002 16.952C20.31 16.2585 20.0412 15.5894 19.5525 15.091C18.5396 14.0404 17.0151 14.0731 16.0321 15.153C15.5494 15.6803 15.3399 16.2943 15.3399 16.9958C15.3399 19.0786 15.3359 21.1648 15.3399 23.247C15.3399 23.7847 15.2738 24.3119 15.049 24.8059C14.8693 25.2178 14.5663 25.5657 14.1806 25.8028C13.7949 26.0399 13.3449 26.155 12.8911 26.1325C11.9887 26.1031 11.2265 25.5452 10.8807 24.6493C10.7467 24.2973 10.6795 23.9239 10.6824 23.5478C10.6859 21.5306 10.6846 19.5134 10.6784 17.4963C10.6784 17.0493 10.6599 16.5984 10.5237 16.1657C10.2143 15.1732 9.54394 14.5409 8.5093 14.3739C7.45616 14.2029 6.67539 14.6936 6.09031 15.5295C5.81066 15.9295 5.7181 16.3778 5.7181 16.8561C5.7181 18.7702 5.71942 20.6843 5.72207 22.5984C5.72207 23.1615 5.73331 23.7253 5.60439 24.2813C5.39085 25.2046 4.49241 26.2115 3.13383 26.1129C2.19836 26.0438 1.29992 25.2803 1.03878 24.3028C0.950611 23.9571 0.907511 23.6016 0.910523 23.2451C0.921762 22.0705 0.921761 20.9083 0.917794 19.7449L0.91978 19.7455Z" fill="#898989"/>
</svg>
