<svg width="120" height="27" viewBox="0 0 120 27" fill="none" xmlns="http://www.w3.org/2000/svg">
<path d="M40.0412 9.65105C39.996 9.19473 39.8017 8.84023 39.4586 8.58756C39.1154 8.33489 38.6496 8.20855 38.0613 8.20855C37.6616 8.20855 37.324 8.26512 37.0487 8.37825C36.7734 8.48762 36.5622 8.64036 36.4152 8.83646C36.2719 9.03257 36.2002 9.25507 36.2002 9.50397C36.1927 9.71139 36.236 9.89241 36.3303 10.047C36.4284 10.2017 36.5622 10.3355 36.7319 10.4487C36.9017 10.558 37.0978 10.6542 37.3203 10.7372C37.5428 10.8164 37.7804 10.8842 38.033 10.9408L39.0739 11.1897C39.5792 11.3029 40.0431 11.4537 40.4655 11.6423C40.8879 11.8308 41.2537 12.0628 41.5629 12.3381C41.8722 12.6134 42.1116 12.9377 42.2813 13.311C42.4548 13.6844 42.5434 14.1124 42.5472 14.5952C42.5434 15.3041 42.3624 15.9189 42.0041 16.4393C41.6496 16.956 41.1368 17.3576 40.4655 17.6442C39.798 17.927 38.9928 18.0685 38.05 18.0685C37.1147 18.0685 36.3001 17.9252 35.6062 17.6385C34.9161 17.3519 34.3768 16.9277 33.9884 16.3658C33.6037 15.8001 33.4019 15.1005 33.3831 14.2671H35.7533C35.7797 14.6555 35.891 14.9798 36.0871 15.24C36.2869 15.4965 36.5528 15.6907 36.8847 15.8227C37.2203 15.9509 37.5993 16.015 38.0217 16.015C38.4365 16.015 38.7967 15.9547 39.1022 15.834C39.4114 15.7133 39.6509 15.5455 39.8206 15.3305C39.9903 15.1156 40.0752 14.8686 40.0752 14.5895C40.0752 14.3293 39.9978 14.1105 39.8432 13.9333C39.6924 13.756 39.4699 13.6052 39.1757 13.4807C38.8853 13.3563 38.5289 13.2432 38.1066 13.1413L36.8451 12.8246C35.8683 12.587 35.0971 12.2155 34.5314 11.7101C33.9657 11.2048 33.6848 10.5241 33.6886 9.66802C33.6848 8.96657 33.8715 8.35374 34.2486 7.82954C34.6295 7.30534 35.1518 6.89616 35.8155 6.602C36.4793 6.30784 37.2335 6.16076 38.0783 6.16076C38.9381 6.16076 39.6886 6.30784 40.3297 6.602C40.9746 6.89616 41.4762 7.30534 41.8344 7.82954C42.1927 8.35374 42.3775 8.96091 42.3888 9.65105H40.0412ZM49.7215 14.2048V9.21547H52.1314V17.9044H49.8177V16.3262H49.7272C49.5311 16.8353 49.2049 17.2445 48.7485 17.5537C48.296 17.8629 47.7435 18.0176 47.0911 18.0176C46.5103 18.0176 45.9993 17.8856 45.5581 17.6216C45.1168 17.3576 44.7718 16.9823 44.5229 16.4959C44.2777 16.0094 44.1533 15.4267 44.1495 14.7479V9.21547H46.5593V14.318C46.5631 14.8309 46.7008 15.2363 46.9723 15.5342C47.2438 15.8321 47.6077 15.9811 48.0641 15.9811C48.3545 15.9811 48.626 15.9151 48.8787 15.7831C49.1313 15.6473 49.335 15.4475 49.4896 15.1835C49.648 14.9195 49.7253 14.5933 49.7215 14.2048ZM61.2884 11.6932L59.0822 11.8289C59.0445 11.6404 58.9634 11.4707 58.839 11.3198C58.7145 11.1652 58.5505 11.0426 58.3468 10.9521C58.147 10.8578 57.9075 10.8107 57.6284 10.8107C57.2551 10.8107 56.9402 10.8899 56.6837 11.0483C56.4273 11.2029 56.299 11.4103 56.299 11.6706C56.299 11.878 56.382 12.0533 56.548 12.1966C56.7139 12.3399 56.9986 12.455 57.4021 12.5417L58.9747 12.8585C59.8195 13.032 60.4493 13.311 60.8641 13.6957C61.279 14.0804 61.4864 14.5857 61.4864 15.2118C61.4864 15.7812 61.3186 16.2809 60.9829 16.7108C60.6511 17.1407 60.1947 17.4764 59.614 17.7177C59.037 17.9553 58.3713 18.0741 57.6171 18.0741C56.4669 18.0741 55.5505 17.8347 54.8679 17.3557C54.189 16.873 53.7912 16.2168 53.6743 15.3871L56.0445 15.2627C56.1161 15.6134 56.2896 15.8811 56.5649 16.0659C56.8402 16.247 57.1928 16.3375 57.6228 16.3375C58.0451 16.3375 58.3845 16.2564 58.641 16.0942C58.9012 15.9283 59.0332 15.7152 59.037 15.455C59.0332 15.2363 58.9408 15.0571 58.7598 14.9176C58.5788 14.7743 58.2997 14.6649 57.9226 14.5895L56.4178 14.2897C55.5693 14.12 54.9376 13.8258 54.5228 13.4072C54.1117 12.9886 53.9062 12.455 53.9062 11.8063C53.9062 11.2482 54.057 10.7673 54.3587 10.3638C54.6642 9.96029 55.0922 9.64916 55.6429 9.43043C56.1972 9.2117 56.8459 9.10233 57.5888 9.10233C58.6862 9.10233 59.5499 9.33427 60.1797 9.79813C60.8132 10.262 61.1828 10.8937 61.2884 11.6932ZM65.4137 12.8811V17.9044H63.0039V6.31916H65.3458V10.7485H65.4476C65.6437 10.2356 65.9605 9.83396 66.398 9.54357C66.8354 9.24941 67.3842 9.10233 68.0441 9.10233C68.6475 9.10233 69.1736 9.23433 69.6224 9.49831C70.0749 9.75853 70.4257 10.1338 70.6746 10.624C70.9272 11.1105 71.0517 11.6932 71.0479 12.372V17.9044H68.6381V12.8019C68.6419 12.2664 68.5061 11.8497 68.2308 11.5518C67.9593 11.2538 67.5784 11.1049 67.0881 11.1049C66.76 11.1049 66.4696 11.1746 66.217 11.3142C65.968 11.4537 65.7719 11.6574 65.6286 11.9251C65.4891 12.1891 65.4174 12.5078 65.4137 12.8811ZM72.9444 17.9044V9.21547H75.3542V17.9044H72.9444ZM74.1549 8.09541C73.7967 8.09541 73.4893 7.97662 73.2329 7.73903C72.9802 7.49767 72.8539 7.20917 72.8539 6.87353C72.8539 6.54166 72.9802 6.25693 73.2329 6.01934C73.4893 5.77798 73.7967 5.6573 74.1549 5.6573C74.5132 5.6573 74.8187 5.77798 75.0714 6.01934C75.3278 6.25693 75.456 6.54166 75.456 6.87353C75.456 7.20917 75.3278 7.49767 75.0714 7.73903C74.8187 7.97662 74.5132 8.09541 74.1549 8.09541ZM83.6146 9.65105C83.5694 9.19473 83.3752 8.84023 83.032 8.58756C82.6888 8.33489 82.2231 8.20855 81.6347 8.20855C81.235 8.20855 80.8975 8.26512 80.6222 8.37825C80.3469 8.48762 80.1357 8.64036 79.9886 8.83646C79.8453 9.03257 79.7736 9.25507 79.7736 9.50397C79.7661 9.71139 79.8095 9.89241 79.9037 10.047C80.0018 10.2017 80.1357 10.3355 80.3054 10.4487C80.4751 10.558 80.6712 10.6542 80.8937 10.7372C81.1162 10.8164 81.3538 10.8842 81.6065 10.9408L82.6473 11.1897C83.1527 11.3029 83.6165 11.4537 84.0389 11.6423C84.4613 11.8308 84.8271 12.0628 85.1363 12.3381C85.4456 12.6134 85.6851 12.9377 85.8548 13.311C86.0282 13.6844 86.1169 14.1124 86.1206 14.5952C86.1169 15.3041 85.9358 15.9189 85.5776 16.4393C85.2231 16.956 84.7102 17.3576 84.0389 17.6442C83.3714 17.927 82.5662 18.0685 81.6234 18.0685C80.6882 18.0685 79.8736 17.9252 79.1797 17.6385C78.4895 17.3519 77.9502 16.9277 77.5618 16.3658C77.1771 15.8001 76.9754 15.1005 76.9565 14.2671H79.3267C79.3531 14.6555 79.4644 14.9798 79.6605 15.24C79.8604 15.4965 80.1262 15.6907 80.4581 15.8227C80.7938 15.9509 81.1728 16.015 81.5951 16.015C82.01 16.015 82.3701 15.9547 82.6756 15.834C82.9848 15.7133 83.2243 15.5455 83.394 15.3305C83.5637 15.1156 83.6486 14.8686 83.6486 14.5895C83.6486 14.3293 83.5713 14.1105 83.4167 13.9333C83.2658 13.756 83.0433 13.6052 82.7491 13.4807C82.4588 13.3563 82.1024 13.2432 81.68 13.1413L80.4185 12.8246C79.4418 12.587 78.6705 12.2155 78.1049 11.7101C77.5392 11.2048 77.2582 10.5241 77.262 9.66802C77.2582 8.96657 77.4449 8.35374 77.822 7.82954C78.2029 7.30534 78.7252 6.89616 79.389 6.602C80.0527 6.30784 80.807 6.16076 81.6517 6.16076C82.5116 6.16076 83.262 6.30784 83.9031 6.602C84.548 6.89616 85.0496 7.30534 85.4079 7.82954C85.7661 8.35374 85.9509 8.96091 85.9622 9.65105H83.6146ZM89.437 17.9044L87.0724 9.21547H89.5105L90.8568 15.0534H90.936L92.3389 9.21547H94.7318L96.1573 15.0194H96.2309L97.5546 9.21547H99.987L97.6281 17.9044H95.0769L93.5835 12.4399H93.476L91.9826 17.9044H89.437ZM103.75 18.0685C103.196 18.0685 102.702 17.9723 102.268 17.78C101.834 17.5839 101.491 17.2954 101.239 16.9145C100.99 16.5298 100.865 16.0509 100.865 15.4776C100.865 14.9949 100.954 14.5895 101.131 14.2614C101.308 13.9333 101.55 13.6693 101.855 13.4694C102.161 13.2696 102.508 13.1187 102.896 13.0169C103.288 12.9151 103.699 12.8434 104.129 12.8019C104.635 12.7491 105.042 12.7001 105.351 12.6548C105.66 12.6058 105.885 12.5342 106.024 12.4399C106.164 12.3456 106.234 12.2061 106.234 12.0213V11.9873C106.234 11.6291 106.12 11.3519 105.894 11.1558C105.672 10.9597 105.355 10.8616 104.944 10.8616C104.51 10.8616 104.165 10.9578 103.909 11.1501C103.652 11.3387 103.482 11.5763 103.4 11.8629L101.171 11.6819C101.284 11.1539 101.506 10.6976 101.838 10.3129C102.17 9.92446 102.598 9.62654 103.122 9.41912C103.65 9.20793 104.261 9.10233 104.955 9.10233C105.438 9.10233 105.9 9.1589 106.341 9.27204C106.786 9.38518 107.18 9.56054 107.523 9.79813C107.87 10.0357 108.144 10.3412 108.344 10.7145C108.544 11.0841 108.643 11.5272 108.643 12.0439V17.9044H106.358V16.6995H106.29C106.151 16.971 105.964 17.2105 105.73 17.4179C105.496 17.6216 105.215 17.7819 104.887 17.8988C104.559 18.0119 104.18 18.0685 103.75 18.0685ZM104.44 16.4053C104.795 16.4053 105.108 16.3356 105.379 16.196C105.651 16.0527 105.864 15.8604 106.019 15.619C106.173 15.3777 106.251 15.1043 106.251 14.7988V13.8767C106.175 13.9258 106.071 13.971 105.939 14.0125C105.811 14.0502 105.666 14.086 105.504 14.12C105.342 14.1501 105.18 14.1784 105.017 14.2048C104.855 14.2275 104.708 14.2482 104.576 14.2671C104.293 14.3085 104.046 14.3745 103.835 14.465C103.624 14.5556 103.46 14.6781 103.343 14.8327C103.226 14.9836 103.168 15.1722 103.168 15.3984C103.168 15.7265 103.286 15.9773 103.524 16.1508C103.765 16.3205 104.071 16.4053 104.44 16.4053ZM110.513 21.1628V9.21547H112.889V10.6749H112.996C113.102 10.4411 113.255 10.2035 113.455 9.96218C113.658 9.71705 113.922 9.5134 114.247 9.35124C114.575 9.1853 114.982 9.10233 115.468 9.10233C116.102 9.10233 116.687 9.26827 117.222 9.60014C117.758 9.92824 118.186 10.4242 118.506 11.0879C118.827 11.7479 118.987 12.5757 118.987 13.5713C118.987 14.5405 118.831 15.3588 118.518 16.0263C118.208 16.6901 117.786 17.1935 117.25 17.5367C116.719 17.8761 116.123 18.0458 115.463 18.0458C114.995 18.0458 114.597 17.9685 114.269 17.8139C113.945 17.6593 113.679 17.4651 113.472 17.2313C113.264 16.9937 113.106 16.7542 112.996 16.5128H112.923V21.1628H110.513ZM112.872 13.5599C112.872 14.0766 112.944 14.5273 113.087 14.9119C113.23 15.2966 113.438 15.5964 113.709 15.8114C113.981 16.0226 114.311 16.1282 114.699 16.1282C115.091 16.1282 115.423 16.0207 115.695 15.8057C115.966 15.587 116.172 15.2853 116.311 14.9006C116.455 14.5122 116.526 14.0653 116.526 13.5599C116.526 13.0584 116.457 12.6171 116.317 12.2362C116.177 11.8553 115.972 11.5574 115.7 11.3425C115.429 11.1275 115.095 11.02 114.699 11.02C114.307 11.02 113.975 11.1237 113.704 11.3311C113.436 11.5386 113.23 11.8327 113.087 12.2136C112.944 12.5945 112.872 13.0433 112.872 13.5599Z" fill="#898989"/>
<path d="M6.04705 1.73749L27.9209 16.6706L22.5126 24.663L0.638672 9.6247L6.04705 1.73749Z" fill="#3E474B"/>
<path d="M27.9213 16.6857C26.0434 19.3898 19.6885 18.3382 13.6792 14.1017C7.57977 9.98528 4.27465 4.45672 6.0474 1.7375C7.92531 -0.966683 14.2802 0.0849446 20.2895 4.32151C26.4039 8.33272 29.694 13.9815 27.9213 16.6857Z" fill="#3E474B"/>
<path d="M22.513 24.5729C20.6351 27.2771 14.2802 26.2255 8.27092 21.9889C2.26162 17.7523 -1.13364 12.344 0.744266 9.51958C2.62217 6.81539 8.97702 7.86702 14.9863 12.1036C20.9956 16.3401 24.2857 21.8537 22.513 24.5729Z" fill="#3E474B"/>
<path d="M27.9215 16.6857L22.5131 24.6781C20.6352 27.3822 14.2804 26.2104 8.27105 22.0941C7.09924 21.2678 6.03259 20.2913 4.98096 19.3598C5.80724 19.2396 6.85887 18.9242 7.92552 17.7523C9.80343 15.7542 10.7499 15.2885 11.5762 15.3937C12.4025 15.3937 13.3339 16.22 14.8663 18.2181C16.3986 20.2161 18.5169 20.8021 19.8089 19.7504C19.9291 19.6302 20.0493 19.6302 20.1545 19.5101C21.2061 18.6838 21.5666 18.3382 23.5647 14.5674C24.0305 13.6209 25.683 12.1036 27.9215 12.8097C28.5224 14.327 28.5224 15.619 27.9215 16.6857Z" fill="#3F4040"/>
<path fill-rule="evenodd" clip-rule="evenodd" d="M27.1099 16.2199C25.4573 18.5786 19.7034 17.3918 14.1749 13.5158C8.51108 9.62473 5.22099 4.68208 6.87354 2.33845C8.5261 -0.0051837 14.28 1.16663 19.8086 5.04263C25.3371 8.91864 28.6272 13.8613 27.1099 16.2199ZM21.9269 12.6895C21.1006 13.8613 18.2762 13.2754 15.4518 11.3975C12.7476 9.51957 11.0951 7.04073 11.9214 5.86891C12.7476 4.6971 15.572 5.28301 18.3964 7.16091C21.1006 9.03882 22.7531 11.5026 21.9269 12.6895Z" fill="white"/>
<path d="M5.58133 4.45674C5.58133 4.33656 5.46114 4.21637 5.34096 4.33656C5.22077 4.45674 5.10059 4.45674 5.10059 4.57693C5.22077 4.92246 5.34096 5.16284 5.34096 5.40321C5.34096 5.52339 5.46114 5.64358 5.58133 5.52339C5.70152 5.52339 5.8217 5.40321 5.70152 5.28302C5.68649 5.04265 5.68649 4.80228 5.58133 4.45674Z" fill="white"/>
<path d="M6.1672 6.33467C6.1672 6.21449 6.04701 6.0943 5.92683 6.21449C5.80664 6.33467 5.80664 6.33467 5.80664 6.45486C7.09864 9.39942 9.80283 12.5693 13.3333 14.928C13.4535 15.0482 13.5737 14.928 13.6788 14.928C13.799 14.8078 13.6788 14.6876 13.6788 14.5824C10.0432 12.2088 7.4592 9.15905 6.1672 6.33467Z" fill="white"/>
<path d="M20.3947 17.8575C20.2745 17.8575 20.1543 17.8575 20.1543 17.9777C20.1543 18.0979 20.1543 18.218 20.2745 18.218C20.62 18.3382 21.1008 18.4584 21.4463 18.5636C21.5665 18.5636 21.6867 18.5636 21.6867 18.4434C21.6867 18.3232 21.6867 18.203 21.5665 18.203C21.2209 18.0979 20.7552 17.9777 20.3947 17.8575Z" fill="white"/>
<path d="M22.5128 18.3382C22.3926 18.3382 22.2725 18.4584 22.2725 18.5786C22.2725 18.6988 22.3926 18.819 22.5128 18.819C23.4593 18.9392 24.5109 19.0593 25.3372 18.9392C25.4574 18.9392 25.5776 18.819 25.5776 18.6988C25.5776 18.5786 25.4574 18.4584 25.3372 18.4584C24.3907 18.5636 23.4593 18.4434 22.5128 18.3382Z" fill="white"/>
</svg>
