<svg width="99" height="27" viewBox="0 0 99 27" fill="none" xmlns="http://www.w3.org/2000/svg">
<path d="M38.2288 6.31916H40.6782V13.8428C40.6782 14.6875 40.4764 15.4267 40.0729 16.0603C39.6732 16.6938 39.1131 17.1879 38.3928 17.5424C37.6725 17.8931 36.8334 18.0685 35.8755 18.0685C34.9139 18.0685 34.0729 17.8931 33.3526 17.5424C32.6323 17.1879 32.0722 16.6938 31.6725 16.0603C31.2727 15.4267 31.0728 14.6875 31.0728 13.8428V6.31916H33.5223V13.6335C33.5223 14.0747 33.6184 14.4669 33.8108 14.8101C34.0069 15.1533 34.2822 15.4229 34.6367 15.619C34.9912 15.8151 35.4041 15.9132 35.8755 15.9132C36.3507 15.9132 36.7636 15.8151 37.1144 15.619C37.4689 15.4229 37.7423 15.1533 37.9346 14.8101C38.1307 14.4669 38.2288 14.0747 38.2288 13.6335V6.31916ZM45.058 12.8811V17.9044H42.6482V9.21547H44.9449V10.7485H45.0467C45.239 10.2431 45.5615 9.84338 46.014 9.54923C46.4666 9.2513 47.0153 9.10233 47.6602 9.10233C48.2636 9.10233 48.7897 9.23433 49.2385 9.49831C49.6872 9.7623 50.0361 10.1394 50.285 10.6297C50.5339 11.1162 50.6583 11.697 50.6583 12.372V17.9044H48.2485V12.8019C48.2523 12.2702 48.1165 11.8553 47.8412 11.5574C47.5659 11.2557 47.1869 11.1049 46.7042 11.1049C46.3799 11.1049 46.0932 11.1746 45.8443 11.3142C45.5992 11.4537 45.4069 11.6574 45.2673 11.9251C45.1316 12.1891 45.0618 12.5078 45.058 12.8811ZM52.5576 17.9044V9.21547H54.9674V17.9044H52.5576ZM53.7682 8.09541C53.4099 8.09541 53.1026 7.97662 52.8461 7.73903C52.5934 7.49767 52.4671 7.20917 52.4671 6.87353C52.4671 6.54166 52.5934 6.25693 52.8461 6.01934C53.1026 5.77798 53.4099 5.6573 53.7682 5.6573C54.1265 5.6573 54.4319 5.77798 54.6846 6.01934C54.941 6.25693 55.0693 6.54166 55.0693 6.87353C55.0693 7.20917 54.941 7.49767 54.6846 7.73903C54.4319 7.97662 54.1265 8.09541 53.7682 8.09541ZM64.1273 11.6932L61.9211 11.8289C61.8834 11.6404 61.8024 11.4707 61.6779 11.3198C61.5535 11.1652 61.3894 11.0426 61.1858 10.9521C60.9859 10.8578 60.7464 10.8107 60.4673 10.8107C60.094 10.8107 59.7791 10.8899 59.5226 11.0483C59.2662 11.2029 59.138 11.4103 59.138 11.6706C59.138 11.878 59.2209 12.0533 59.3869 12.1966C59.5528 12.3399 59.8375 12.455 60.2411 12.5417L61.8137 12.8585C62.6584 13.032 63.2882 13.311 63.7031 13.6957C64.1179 14.0804 64.3253 14.5857 64.3253 15.2118C64.3253 15.7812 64.1575 16.2809 63.8219 16.7108C63.49 17.1407 63.0337 17.4764 62.4529 17.7177C61.8759 17.9553 61.2103 18.0741 60.456 18.0741C59.3058 18.0741 58.3894 17.8347 57.7068 17.3557C57.028 16.873 56.6301 16.2168 56.5132 15.3871L58.8834 15.2627C58.9551 15.6134 59.1285 15.8811 59.4038 16.0659C59.6791 16.247 60.0318 16.3375 60.4617 16.3375C60.8841 16.3375 61.2235 16.2564 61.4799 16.0942C61.7401 15.9283 61.8721 15.7152 61.8759 15.455C61.8721 15.2363 61.7797 15.0571 61.5987 14.9176C61.4177 14.7743 61.1386 14.6649 60.7615 14.5895L59.2568 14.2897C58.4082 14.12 57.7766 13.8258 57.3617 13.4072C56.9506 12.9886 56.7451 12.455 56.7451 11.8063C56.7451 11.2482 56.896 10.7673 57.1977 10.3638C57.5031 9.96029 57.9312 9.64916 58.4818 9.43043C59.0361 9.2117 59.6848 9.10233 60.4277 9.10233C61.5252 9.10233 62.3888 9.33427 63.0186 9.79813C63.6522 10.262 64.0217 10.8937 64.1273 11.6932ZM67.5568 17.9044L65.1922 9.21547H67.6303L68.9767 15.0534H69.0559L70.4588 9.21547H72.8516L74.2772 15.0194H74.3507L75.6744 9.21547H78.1069L75.7479 17.9044H73.1967L71.7033 12.4399H71.5958L70.1024 17.9044H67.5568ZM81.8701 18.0685C81.3157 18.0685 80.8217 17.9723 80.388 17.78C79.9543 17.5839 79.6111 17.2954 79.3584 16.9145C79.1095 16.5298 78.9851 16.0509 78.9851 15.4776C78.9851 14.9949 79.0737 14.5895 79.251 14.2614C79.4282 13.9333 79.6696 13.6693 79.975 13.4694C80.2805 13.2696 80.6275 13.1187 81.0159 13.0169C81.4081 12.9151 81.8192 12.8434 82.2491 12.8019C82.7544 12.7491 83.1617 12.7001 83.471 12.6548C83.7802 12.6058 84.0046 12.5342 84.1441 12.4399C84.2837 12.3456 84.3535 12.2061 84.3535 12.0213V11.9873C84.3535 11.6291 84.2403 11.3519 84.014 11.1558C83.7915 10.9597 83.4748 10.8616 83.0637 10.8616C82.63 10.8616 82.2849 10.9578 82.0285 11.1501C81.772 11.3387 81.6023 11.5763 81.5194 11.8629L79.2906 11.6819C79.4037 11.1539 79.6262 10.6976 79.9581 10.3129C80.2899 9.92446 80.718 9.62654 81.2422 9.41912C81.7702 9.20793 82.3811 9.10233 83.075 9.10233C83.5577 9.10233 84.0197 9.1589 84.4609 9.27204C84.9059 9.38518 85.3 9.56054 85.6432 9.79813C85.9902 10.0357 86.2636 10.3412 86.4635 10.7145C86.6633 11.0841 86.7633 11.5272 86.7633 12.0439V17.9044H84.4779V16.6995H84.41C84.2705 16.971 84.0838 17.2105 83.85 17.4179C83.6162 17.6216 83.3352 17.7819 83.0071 17.8988C82.679 18.0119 82.3 18.0685 81.8701 18.0685ZM82.5602 16.4053C82.9147 16.4053 83.2277 16.3356 83.4993 16.196C83.7708 16.0527 83.9839 15.8604 84.1385 15.619C84.2931 15.3777 84.3704 15.1043 84.3704 14.7988V13.8767C84.295 13.9258 84.1913 13.971 84.0593 14.0125C83.9311 14.0502 83.7859 14.086 83.6237 14.12C83.4616 14.1501 83.2994 14.1784 83.1372 14.2048C82.9751 14.2275 82.828 14.2482 82.696 14.2671C82.4131 14.3085 82.1661 14.3745 81.9549 14.465C81.7438 14.5556 81.5797 14.6781 81.4628 14.8327C81.3459 14.9836 81.2874 15.1722 81.2874 15.3984C81.2874 15.7265 81.4062 15.9773 81.6438 16.1508C81.8852 16.3205 82.1906 16.4053 82.5602 16.4053ZM88.6329 21.1628V9.21547H91.0088V10.6749H91.1162C91.2218 10.4411 91.3746 10.2035 91.5744 9.96218C91.7781 9.71705 92.0421 9.5134 92.3664 9.35124C92.6945 9.1853 93.1018 9.10233 93.5883 9.10233C94.2219 9.10233 94.8064 9.26827 95.3419 9.60014C95.8774 9.92824 96.3055 10.4242 96.626 11.0879C96.9466 11.7479 97.1069 12.5757 97.1069 13.5713C97.1069 14.5405 96.9504 15.3588 96.6373 16.0263C96.3281 16.6901 95.9057 17.1935 95.3702 17.5367C94.8385 17.8761 94.2426 18.0458 93.5826 18.0458C93.115 18.0458 92.7171 17.9685 92.389 17.8139C92.0647 17.6593 91.7988 17.4651 91.5914 17.2313C91.384 16.9937 91.2256 16.7542 91.1162 16.5128H91.0427V21.1628H88.6329ZM90.9918 13.5599C90.9918 14.0766 91.0634 14.5273 91.2067 14.9119C91.3501 15.2966 91.5575 15.5964 91.829 15.8114C92.1005 16.0226 92.4305 16.1282 92.819 16.1282C93.2112 16.1282 93.543 16.0207 93.8146 15.8057C94.0861 15.587 94.2916 15.2853 94.4312 14.9006C94.5745 14.5122 94.6461 14.0653 94.6461 13.5599C94.6461 13.0584 94.5764 12.6171 94.4368 12.2362C94.2973 11.8553 94.0918 11.5574 93.8202 11.3425C93.5487 11.1275 93.2149 11.02 92.819 11.02C92.4267 11.02 92.0949 11.1237 91.8233 11.3311C91.5556 11.5386 91.3501 11.8327 91.2067 12.2136C91.0634 12.5945 90.9918 13.0433 90.9918 13.5599Z" fill="#898989"/>
<path d="M7.49828 3.15397C7.18641 3.10445 7.17328 3.0977 7.31991 3.0752C7.60114 3.03018 8.26646 3.09207 8.72497 3.20348C9.79408 3.46568 10.7669 4.13523 11.8065 5.32468L12.0822 5.63977L12.4762 5.57563C14.1395 5.29993 15.8323 5.51936 17.2472 6.19117C17.6368 6.37572 18.2507 6.74369 18.3273 6.83934C18.3524 6.8686 18.3973 7.06328 18.4268 7.27034C18.5319 7.98716 18.4794 8.5363 18.2671 8.94704C18.1511 9.16985 18.1445 9.23962 18.2222 9.43092C18.2591 9.50994 18.3168 9.57672 18.3888 9.62367C18.4607 9.67062 18.5441 9.69585 18.6293 9.6965C18.9816 9.6965 19.3603 9.11134 19.5353 8.29774L19.6054 7.97478L19.7433 8.1357C20.5005 9.01794 21.0947 10.2209 21.1965 11.0761L21.2238 11.3001L21.0958 11.0975C20.8769 10.7487 20.6581 10.5101 20.3757 10.3177C19.868 9.9722 19.3307 9.85516 17.9082 9.77752C16.6235 9.70775 15.8958 9.59522 15.1757 9.35328C13.9491 8.94254 13.3308 8.39452 11.8732 6.42861C11.2265 5.55537 10.826 5.07261 10.4288 4.68438C9.52379 3.79989 8.63523 3.33627 7.49828 3.15397Z" fill="#898989"/>
<path d="M18.617 5.10402C18.6499 4.51886 18.7265 4.13288 18.8818 3.78066C18.9431 3.64112 19.0011 3.52634 19.0099 3.52634C19.0001 3.60533 18.9799 3.68257 18.9497 3.7559C18.837 4.09799 18.8184 4.56612 18.8961 5.10964C18.9945 5.80058 19.0515 5.89961 19.7605 6.64568C20.0943 6.99565 20.4817 7.43677 20.6217 7.62695L20.8767 7.9713L20.6217 7.72485C20.3099 7.4244 19.592 6.83586 19.4334 6.75259C19.3272 6.69632 19.3108 6.69745 19.2451 6.76384C19.185 6.82686 19.1718 6.91913 19.1642 7.35913C19.151 8.04331 19.0602 8.48443 18.8403 8.9233C18.7221 9.15962 18.7035 9.1101 18.8107 8.84116C18.8906 8.64085 18.8983 8.55308 18.8983 7.89027C18.8983 6.55791 18.744 6.23832 17.8412 5.68918C17.5695 5.52708 17.2905 5.37837 17.0052 5.24355C16.8642 5.18539 16.7274 5.11695 16.5959 5.03875C16.6211 5.01287 17.5009 5.27619 17.8543 5.41685C18.3818 5.62503 18.4682 5.65204 18.5328 5.62616C18.5754 5.60928 18.5962 5.48099 18.617 5.10402ZM8.10429 7.38276C7.4707 6.48589 7.07895 5.10964 7.16321 4.08111L7.18947 3.76265L7.33392 3.78966C7.6053 3.8403 8.07256 4.01922 8.29141 4.15651C8.89108 4.53123 9.15151 5.02524 9.41523 6.29234C9.49293 6.66369 9.5947 7.08343 9.64175 7.22634C9.71616 7.45478 10.0007 7.9893 10.2327 8.33702C10.399 8.58684 10.2874 8.70499 9.9197 8.67124C9.35724 8.61835 8.59562 8.0782 8.10429 7.38276ZM17.8488 14.0615C14.8866 12.8349 13.8438 11.7703 13.8438 9.97434C13.8438 9.70989 13.8525 9.49383 13.8624 9.49383C13.8733 9.49383 13.9882 9.58048 14.1173 9.68739C14.7181 10.1825 15.3911 10.3941 17.2525 10.6732C18.3478 10.8386 18.965 10.9714 19.534 11.1649C21.3418 11.7816 22.4601 13.0329 22.7271 14.7366C22.8037 15.2318 22.7589 16.1601 22.633 16.6497C22.5345 17.0368 22.2314 17.7333 22.1515 17.7603C22.1297 17.7671 22.1078 17.6804 22.1012 17.56C22.0706 16.9209 21.7565 16.2974 21.228 15.8304C20.6272 15.3004 19.8207 14.8773 17.8477 14.0615H17.8488ZM15.7697 14.5701C15.7347 14.3527 15.6868 14.1378 15.6264 13.9264L15.5498 13.6946L15.6909 13.8566C15.8846 14.0817 16.0389 14.3675 16.168 14.7501C16.2676 15.0416 16.2786 15.1282 16.2775 15.602C16.2775 16.0679 16.2654 16.1646 16.1735 16.428C16.0457 16.8141 15.8317 17.164 15.5487 17.4497C15.007 18.0169 14.3121 18.3297 13.3076 18.4603C13.1325 18.4828 12.6248 18.521 12.1772 18.5447C11.0501 18.6054 10.3093 18.7292 9.64284 18.97C9.58275 18.9977 9.5182 19.0138 9.45244 19.0173C9.42618 18.9892 9.87921 18.7112 10.2545 18.5255C10.7831 18.2633 11.3083 18.1204 12.4869 17.919C13.069 17.8188 13.6709 17.6984 13.823 17.6501C15.2652 17.1954 16.0061 16.0229 15.7686 14.5701H15.7697Z" fill="#898989"/>
<path d="M17.127 17.0504C16.7331 16.1805 16.6434 15.3399 16.8589 14.5567C16.8819 14.4734 16.9191 14.4048 16.941 14.4048C17.0151 14.4324 17.0848 14.471 17.1478 14.5196C17.3295 14.6456 17.6928 14.8572 18.6612 15.3996C19.8704 16.0781 20.5598 16.6036 21.0292 17.2023C21.4396 17.7278 21.6935 18.3265 21.816 19.0557C21.885 19.4687 21.8445 20.4623 21.7416 20.8787C21.4166 22.1908 20.6605 23.2216 19.5837 23.8225C19.4821 23.8829 19.3768 23.9367 19.2685 23.9834C19.2532 23.9834 19.3101 23.8337 19.3966 23.6492C19.7577 22.8705 19.8004 22.112 19.5257 21.268C19.3583 20.7515 19.0158 20.1202 18.3253 19.0557C17.5221 17.8178 17.3251 17.487 17.127 17.0504ZM6.00151 21.744C7.10126 20.7898 8.46801 20.1123 9.71439 19.9042C10.2506 19.8141 11.1457 19.8501 11.6425 19.9807C12.4391 20.19 13.1526 20.6604 13.5236 21.2196C13.8847 21.7665 14.0412 22.2437 14.202 23.3037C14.2677 23.7223 14.3366 24.1421 14.3574 24.2377C14.4778 24.7869 14.7152 25.2268 15.0085 25.4474C15.4736 25.7974 16.2757 25.8188 17.0636 25.5037C17.1459 25.4648 17.2327 25.4368 17.3218 25.4204C17.3503 25.4497 16.9541 25.7231 16.674 25.8671C16.3434 26.0491 15.9732 26.1412 15.5983 26.135C14.8761 26.135 14.2764 25.758 13.7764 24.9872C13.6779 24.8352 13.4568 24.3817 13.2839 23.9778C12.7565 22.7399 12.496 22.3618 11.8833 21.9488C11.3482 21.5887 10.6598 21.5246 10.1423 21.7857C9.46161 22.1289 9.2723 23.0235 9.75926 23.5895C9.95295 23.8146 10.3141 24.0093 10.6095 24.0464C10.7384 24.064 10.8695 24.0529 10.9938 24.0139C11.1182 23.9749 11.2329 23.9088 11.3303 23.8203C11.4278 23.7318 11.5055 23.6227 11.5585 23.5006C11.6114 23.3785 11.6382 23.2461 11.637 23.1124C11.637 22.7388 11.497 22.5272 11.1468 22.3641C10.6686 22.1424 10.1543 22.4012 10.1565 22.8637C10.1576 23.0606 10.2407 23.1844 10.4333 23.2744C10.557 23.3307 10.5592 23.3363 10.4585 23.315C10.0197 23.2204 9.91683 22.6769 10.2703 22.3157C10.6938 21.8813 11.5703 22.0726 11.8712 22.6645C11.9982 22.9132 12.0124 23.4095 11.9019 23.7088C11.6556 24.3784 10.9356 24.7295 10.2057 24.5382C9.70892 24.4076 9.50648 24.267 8.90791 23.6323C7.86725 22.5295 7.46346 22.3157 5.96211 22.0749L5.67432 22.0287L6.0026 21.744H6.00151Z" fill="#898989"/>
<path fill-rule="evenodd" clip-rule="evenodd" d="M0.861328 0.434001L0.966379 0.565661C5.02396 5.67455 7.1206 8.32577 7.2541 8.51482C7.47296 8.82766 7.39089 9.10786 7.01446 9.32842C6.80545 9.45108 6.3743 9.57486 6.15983 9.57486C5.9158 9.57486 5.64114 9.45445 5.44088 9.25977C5.29972 9.12136 4.7296 8.24587 3.41319 6.14493C2.79673 5.15195 2.17224 4.16427 1.53978 3.182C1.48616 3.13023 1.48726 3.13136 3.31032 6.4859C4.45494 8.59247 4.84231 9.3363 4.84231 9.43645C4.84231 9.639 4.7876 9.74478 4.54467 10.0239C4.13979 10.4886 3.95923 11.0107 3.82792 12.091C3.68128 13.303 3.26984 14.1582 2.12741 15.6223C1.4599 16.4797 1.35047 16.6373 1.18086 16.9827C0.968567 17.4171 0.91057 17.6613 0.886496 18.2105C0.861328 18.7911 0.910571 19.167 1.08347 19.7217C1.23448 20.2079 1.39205 20.5297 1.79475 21.1711C2.14273 21.7259 2.34298 22.1378 2.34298 22.2987C2.34298 22.427 2.36706 22.427 2.90653 22.3021C4.19669 22.0027 5.24391 21.475 5.83373 20.829C6.19812 20.4296 6.28348 20.209 6.28676 19.661C6.28786 19.3031 6.27582 19.2277 6.18171 19.0218C6.02851 18.6865 5.74947 18.4074 5.13449 17.9753C4.328 17.4081 3.9844 16.9512 3.8892 16.3244C3.81041 15.8102 3.90123 15.4467 4.3477 14.4857C4.80839 13.4909 4.92329 13.0678 5.00098 12.0652C5.05023 11.417 5.11917 11.1615 5.30082 10.9567C5.48903 10.7429 5.65974 10.6698 6.127 10.6045C6.88862 10.4976 7.37338 10.2951 7.7717 9.91808C8.11749 9.58949 8.26193 9.27328 8.28382 8.7984L8.30133 8.4383L8.10764 8.20649C7.82969 7.8734 5.53061 5.26494 1.20931 0.378861L1.09332 0.249451L0.861328 0.435126V0.434001ZM2.73692 18.8688C2.81327 18.7298 2.83606 18.5663 2.8008 18.4109C2.76554 18.2554 2.67479 18.1192 2.54652 18.0293C2.29702 17.8582 1.90855 17.9393 1.90855 18.1621C1.90855 18.2296 1.94466 18.2791 2.02673 18.323C2.16571 18.3961 2.17556 18.4794 2.06722 18.6471C1.9567 18.8181 1.96546 18.9689 2.09239 19.0713C2.29593 19.2356 2.58482 19.1445 2.73802 18.8688H2.73692ZM8.78172 10.7936C8.42389 10.9061 8.077 11.2966 7.96867 11.7051C7.90301 11.9538 7.94022 12.3915 8.0387 12.5265C8.19737 12.7448 8.35167 12.8022 8.76749 12.7989C9.58163 12.7932 10.2885 12.4343 10.3717 11.9853C10.4395 11.6173 10.1277 11.1075 9.69982 10.8825C9.47877 10.7677 9.00933 10.7215 8.78172 10.7936ZM9.73374 11.5588C9.85958 11.3753 9.80377 11.1762 9.59148 11.0434C9.18441 10.7879 8.56943 10.9984 8.56943 11.3945C8.56943 11.5903 8.89005 11.8052 9.18332 11.8052C9.38029 11.8052 9.64729 11.6848 9.73374 11.5588Z" fill="#898989"/>
</svg>
