<svg width="173" height="53" viewBox="0 0 173 53" fill="none" xmlns="http://www.w3.org/2000/svg">
<rect y="0.754883" width="52" height="52" rx="15" fill="#F6F6F6"/>
<g clip-path="url(#clip0_146_50586)">
<path d="M39.4184 30.9291C39.5235 31.0133 39.5926 31.086 39.6961 31.1724C39.7588 31.2246 39.7592 31.2246 39.8207 31.1676C39.8634 31.1278 39.905 31.0861 39.9489 31.0472C40.1257 30.8881 40.3637 30.8959 40.5284 31.069C40.5939 31.1384 40.6557 31.2117 40.7135 31.2886C40.8558 31.4771 40.8416 31.7237 40.6809 31.8953C40.6357 31.9435 40.5879 31.989 40.5391 32.033C40.4985 32.0695 40.4971 32.105 40.5259 32.1508C40.5853 32.2451 40.6429 32.3406 40.6987 32.4373C40.7695 32.5598 40.8326 32.6872 40.8924 32.8159C40.9492 32.9385 40.9492 32.9377 41.0673 32.8982C41.1244 32.8772 41.1826 32.8598 41.2416 32.846C41.4339 32.8067 41.6161 32.9055 41.6981 33.0959C41.7478 33.2133 41.785 33.3363 41.8089 33.4625C41.8443 33.6425 41.7409 33.8421 41.5757 33.9307C41.5116 33.9647 41.4413 33.9796 41.3745 34.0051C41.2935 34.036 41.2865 34.0421 41.2997 34.1262C41.3424 34.3912 41.3726 34.6575 41.3745 34.9267C41.375 34.9854 41.3958 35.0189 41.4537 35.0241C41.5033 35.0284 41.5524 35.0381 41.6019 35.0436C41.7986 35.0653 41.9324 35.1695 41.9907 35.3749C41.9957 35.3927 42.0087 35.763 41.9915 35.8633C41.9537 36.085 41.7913 36.2429 41.5778 36.2518C41.5318 36.2541 41.4856 36.251 41.4402 36.2425C41.356 36.2263 41.3002 36.2639 41.28 36.3502C41.2299 36.5626 41.1625 36.7689 41.0902 36.9736C41.0688 37.0328 41.0811 37.0848 41.1274 37.1263C41.1517 37.1481 41.2449 37.2549 41.26 37.2905C41.2946 37.372 41.145 37.245 41.1105 37.2239C41.0312 37.1755 40.0617 36.6063 39.7007 36.402C39.7265 36.1991 39.8198 35.9396 39.8574 35.7394C40.0487 34.72 39.8507 33.79 39.2968 32.941C38.8359 32.2349 38.2049 31.7832 37.4301 31.5592C36.748 31.3618 36.0721 31.4019 35.4088 31.6595C34.8602 31.8726 34.2594 32.2219 33.9299 32.772C33.892 32.8167 33.8742 32.8116 33.8145 32.7833C33.6083 32.6739 32.7999 32.1142 32.4713 31.9109C32.3256 31.7554 32.2292 31.501 32.3386 31.3132C32.4167 31.1793 32.5216 31.0707 32.6341 30.9731C32.7923 30.8361 33.0216 30.84 33.1895 30.9688C33.3979 31.1285 33.3977 31.1278 33.6002 30.9562C33.7058 30.8664 33.8185 30.7869 33.9294 30.705C34.0327 30.6288 34.0404 30.5981 33.9919 30.4786C33.8599 30.1528 33.9446 29.9052 34.2422 29.7441C34.3209 29.6996 34.4031 29.6626 34.4879 29.6334C34.7151 29.5598 34.9245 29.646 35.048 29.8613C35.1768 30.0858 35.1761 30.0854 35.4186 30.0261C35.5467 29.9947 35.6767 29.9724 35.806 29.9473C35.9354 29.9222 35.955 29.9005 35.9624 29.7644C35.9654 29.6964 35.9751 29.6289 35.9913 29.563C36.0255 29.4315 36.0875 29.316 36.2156 29.2642C36.4601 29.1652 36.7069 29.1462 36.9468 29.2764C37.0883 29.3532 37.1543 29.4852 37.1561 29.6563C37.1588 29.9127 37.1605 29.9148 37.396 29.9554C37.5508 29.9821 37.7024 30.0218 37.8546 30.06C37.9701 30.089 37.9999 30.0776 38.0449 29.9592C38.1588 29.6598 38.4419 29.507 38.7759 29.6814C38.8706 29.7309 38.9699 29.767 39.0527 29.8468C39.2196 30.0076 39.2314 30.2452 39.1627 30.4184C39.153 30.4428 39.1414 30.4661 39.1318 30.4907C39.0861 30.611 39.0812 30.6814 39.0812 30.6814C39.0812 30.6814 39.3149 30.8461 39.4184 30.9291Z" fill="#5F5F5F"/>
<path d="M39.6468 36.3035C39.7439 36.4024 41.041 37.1568 41.1527 37.228C41.186 37.2326 41.2117 37.256 41.2417 37.2689L41.2401 37.2678C41.2632 37.29 41.2854 37.3134 41.3063 37.338L41.3051 37.3364C41.4079 37.4893 41.4072 37.6523 41.3478 37.8211C41.3101 37.9108 41.2648 37.9966 41.2123 38.0775C41.0902 38.273 40.8649 38.3344 40.6668 38.2283C40.6065 38.196 40.5481 38.1601 40.4909 38.1215C40.4493 38.0939 40.4207 38.1013 40.3915 38.1423C40.2328 38.3655 40.0563 38.5738 39.8641 38.765C39.8254 38.8034 39.8208 38.8371 39.8535 38.8816C39.891 38.9319 39.9259 38.9845 39.9595 39.0378C40.0964 39.2536 40.0596 39.5026 39.866 39.6626C39.7986 39.7181 39.7298 39.7721 39.6583 39.8216C39.4661 39.9543 39.2407 39.9169 39.0943 39.7292C39.0538 39.6765 39.0159 39.6216 38.9807 39.5648C38.9495 39.515 38.9182 39.5037 38.866 39.5353C38.6462 39.6684 38.4141 39.7733 38.1771 39.8663C38.0909 39.9003 38.0917 39.9016 38.1085 39.9974C38.1145 40.0308 38.1192 40.0645 38.1253 40.0978C38.1804 40.3786 38.1175 40.5307 37.8865 40.6748C37.8268 40.71 37.7583 40.7045 37.6943 40.7225C37.5828 40.7509 37.47 40.7486 37.3563 40.7426H37.3558C37.3186 40.723 37.2821 40.702 37.2457 40.6808C37.1364 40.5839 37.0876 40.4563 37.0593 40.31C37.0209 40.1119 37.0443 40.144 36.8726 40.1525C36.6452 40.1639 36.4175 40.1629 36.1902 40.1495C36.1019 40.1442 36.1017 40.1439 36.0814 40.2308C36.072 40.2713 36.0614 40.3115 36.0556 40.3526C36.0187 40.6121 35.8221 40.807 35.5088 40.7435C35.4321 40.7278 35.3561 40.7068 35.2812 40.6833C35.0669 40.6164 34.943 40.3967 34.986 40.1632C34.9967 40.1039 35.0097 40.045 35.0206 39.9855C35.0353 39.9048 35.0344 39.9006 34.9581 39.8701C34.8116 39.8116 34.6657 39.7518 34.5247 39.6795C34.4414 39.6368 34.359 39.5921 34.2769 39.547C34.1915 39.5004 34.192 39.4997 34.1323 39.5848C34.1003 39.6302 34.0704 39.6772 34.0371 39.7211C33.891 39.9158 33.6606 39.9567 33.4659 39.8205C33.3916 39.7686 33.3193 39.713 33.2497 39.6544C33.072 39.5045 33.0337 39.2583 33.1558 39.0549C33.1921 38.9945 33.2325 38.9367 33.2733 38.8795C33.3016 38.8399 33.3034 38.8082 33.267 38.7717C33.0723 38.5778 32.8936 38.3663 32.733 38.1398C32.7026 38.0966 32.6725 38.0968 32.633 38.1232C32.5849 38.1553 32.535 38.1848 32.485 38.2141C32.2607 38.3439 32.027 38.2798 31.8953 38.0464C31.8482 37.9628 31.7906 37.8861 31.7582 37.7923C31.6779 37.56 31.7456 37.3447 31.9462 37.2152C31.9889 37.1877 32.0325 37.1622 32.0743 37.1346C32.1484 37.0865 32.1503 37.0851 32.1176 37.0009C32.0498 36.8262 31.9914 36.6474 31.9429 36.4655C31.9215 36.386 31.9012 36.3051 31.8835 36.2243C31.8707 36.1652 31.8416 36.1423 31.7845 36.1551C31.739 36.164 31.6931 36.1704 31.647 36.1744C31.3758 36.2048 31.1746 36.032 31.1463 35.7443C31.1385 35.6648 31.1302 35.5863 31.125 35.5071C31.1177 35.3925 31.1521 35.2794 31.221 35.1909C31.2899 35.1025 31.3881 35.0457 31.4953 35.032C31.5552 35.0242 31.6155 35.0192 31.6751 35.0093C31.7529 34.9957 31.7554 34.994 31.7566 34.9076C31.7601 34.7186 31.7737 34.53 31.7972 34.3426C31.807 34.2602 31.833 34.1801 31.8273 34.0957C31.8214 34.038 31.7984 34.0022 31.7548 33.9842C31.7249 33.975 31.7178 33.971 31.6733 33.9592C31.5855 33.9365 31.5058 33.896 31.4423 33.8276" fill="#414141"/>
<path d="M31.8314 34.1471C31.8415 34.0892 31.8181 34.0022 31.7622 33.9856C31.7143 33.9713 31.6376 33.9408 31.5899 33.9255C31.4006 33.8648 31.2818 33.7058 31.261 33.4924C31.237 33.4015 31.3123 33.1075 31.3464 33.0122C31.4229 32.8022 31.6103 32.6797 31.8216 32.7137C31.8672 32.7207 31.912 32.7331 31.9551 32.7505C32.0349 32.7834 32.0963 32.7575 32.1315 32.6769C32.2185 32.4783 32.3486 32.2815 32.4322 32.0817C32.5131 31.8886 32.4558 31.9046 32.4841 31.9113C32.5533 31.9747 33.5633 32.497 33.8817 32.7701C33.6743 33.0087 33.2135 34.089 33.1943 34.4504" fill="#414141"/>
<path d="M33.8935 32.753C34.5383 32.0118 34.9997 31.6936 35.6361 31.5013C36.0234 31.3833 36.4275 31.3404 36.8291 31.3747C37.5048 31.4326 38.1151 31.6835 38.6524 32.1271C39.1263 32.5185 39.4713 33.0142 39.7067 33.5988C39.8508 33.9564 39.9268 34.3301 39.9624 34.7176C40.0133 35.2723 39.9016 35.8921 39.7226 36.4093C39.6864 36.4433 39.027 35.9633 38.9564 35.8698C38.9403 35.8193 38.9603 35.7731 38.9724 35.7263C39.0372 35.4736 39.0792 35.217 39.0717 34.9545C39.0362 33.6927 38.2279 32.652 37.1102 32.3978C36.2852 32.2101 35.4105 32.3995 34.6098 33.265C34.5896 33.2771 34.5833 33.2511 34.4474 33.1514C34.2191 33.0038 34.1068 32.9112 33.9509 32.8106C33.8615 32.7552 33.866 32.7851 33.8935 32.753Z" fill="#414141"/>
<path d="M39.7358 36.3728C39.7143 36.4092 39.6949 36.4469 39.6777 36.4858C39.4811 36.9898 39.1661 37.4035 38.7826 37.754C38.2806 38.2128 37.6984 38.4989 37.0374 38.5908C36.8754 38.6136 36.7131 38.6382 36.5494 38.6328C36.0761 38.6167 35.6187 38.5241 35.1817 38.3216C34.9045 38.1924 34.645 38.0239 34.4103 37.8206C34.0449 37.5063 33.7481 37.1286 33.5301 36.681C33.3298 36.2687 33.2146 35.8326 33.1657 35.3729C33.123 34.9774 33.1565 34.5891 33.2344 34.2019C33.3234 33.7601 33.4896 33.3529 33.7216 32.9757C33.7546 32.922 33.8506 32.8003 33.8818 32.7697C34.0503 32.8629 34.5104 33.1859 34.5842 33.2561C34.6307 33.3208 34.5448 33.4059 34.5182 33.4473C34.3768 33.6671 34.2603 33.8992 34.1854 34.1543C33.9244 35.0427 34.044 35.8696 34.5699 36.613C35.0087 37.2332 35.6054 37.5732 36.3349 37.6512C37.3743 37.7621 38.441 37.1345 38.88 36.0267C38.9042 35.9656 38.8982 35.869 38.9968 35.8643C39.0603 35.9417 39.6613 36.3293 39.7358 36.3728Z" fill="#5F5F5F"/>
<path d="M38.9967 35.8643C38.9139 36.0901 38.8214 36.3101 38.6917 36.5109C38.2807 37.1471 37.7198 37.5419 37.0056 37.6778C36.2822 37.8155 35.62 37.6438 35.0314 37.181C34.5135 36.7737 34.1831 36.2258 34.0555 35.5549C33.9048 34.7619 34.0631 34.0321 34.5046 33.3725C34.5211 33.3479 34.5366 33.323 34.5532 33.2982C34.5699 33.2771 34.7893 33.0195 34.8961 32.9243C35.3694 32.5026 35.9108 32.2864 36.5297 32.2739C37.6891 32.2505 38.735 33.0854 39.0366 34.2984C39.1573 34.7839 39.1541 35.2706 39.0228 35.7547C39.013 35.7906 39.0053 35.8278 38.9967 35.8643Z" fill="#EDAE50"/>
<path d="M37.2487 34.9979C37.2683 35.4131 36.9099 35.7345 36.57 35.7302C36.1821 35.7253 35.8637 35.4017 35.8672 34.991C35.8705 34.5897 36.1655 34.2577 36.5748 34.2566C36.9158 34.2556 37.2676 34.5801 37.2487 34.9979Z" fill="#414141"/>
<path d="M37.2878 33.6181C37.3666 33.6096 37.4323 33.6393 37.4869 33.7015C37.5352 33.7566 37.5871 33.8084 37.6343 33.8646C37.7439 33.9949 37.677 34.2334 37.5352 34.2803C37.4733 34.3007 37.4165 34.3021 37.3621 34.2641C37.2453 34.1825 37.1458 34.0793 37.0575 33.9662C36.9636 33.846 37.0113 33.6921 37.1508 33.6399C37.1946 33.6228 37.2412 33.6154 37.2878 33.6181Z" fill="#FCD38C"/>
<path d="M18.6751 40.7003C18.4829 40.5927 18.3688 40.4255 18.3345 40.1959C18.3228 40.1176 18.3025 40.0411 18.2874 39.9631C18.2767 39.9086 18.2509 39.8904 18.1974 39.895C17.8572 39.9255 17.5154 39.9292 17.1747 39.9063C17.1285 39.9034 17.0823 39.9007 17.0365 39.895C16.9928 39.8897 16.97 39.9089 16.9611 39.9537C16.9448 40.035 16.923 40.1152 16.9104 40.1973C16.8714 40.4502 16.7412 40.6242 16.5193 40.7221C16.3774 40.7631 16.2356 40.7488 16.0937 40.7208C15.9624 40.6948 15.8275 40.6827 15.7084 40.6093C15.6627 40.5735 15.6135 40.5426 15.5739 40.4982C15.4324 40.3391 15.3739 40.1535 15.4104 39.9369C15.4242 39.8551 15.4424 39.7743 15.4579 39.6928C15.4841 39.5535 15.4839 39.5527 15.3618 39.5068C15.0838 39.4017 14.8127 39.2773 14.5501 39.1342C14.4869 39.1001 14.4228 39.066 14.3624 39.0271C14.3162 38.9969 14.2856 39.0032 14.2556 39.0498C14.2095 39.1215 14.1585 39.1895 14.1128 39.2617C13.9181 39.5692 13.536 39.6593 13.2357 39.4129C13.157 39.3482 13.0739 39.2896 12.995 39.2254C12.7163 38.9989 12.6655 38.638 12.8685 38.3321C12.9217 38.2517 12.9761 38.1722 13.0316 38.0935C13.058 38.0565 13.0576 38.0262 13.0241 37.9957C13.0079 37.9811 12.9934 37.9644 12.9779 37.9487C12.7177 37.6856 12.4774 37.4011 12.2592 37.0979C12.1973 37.0118 12.1967 37.0122 12.1058 37.0678C12.0441 37.1055 11.9828 37.1436 11.9212 37.1814C11.5972 37.3784 11.2753 37.2918 11.075 36.9542C11.0476 36.9111 11.0372 36.8954 11.0085 36.8435C10.9731 36.7705 10.9304 36.7022 10.8984 36.6267C10.7618 36.3049 10.8569 35.9756 11.1428 35.7938C11.2099 35.7511 11.278 35.7102 11.3458 35.6678C11.4359 35.611 11.4369 35.6103 11.3981 35.5116C11.2735 35.1941 11.1707 34.8674 11.0905 34.534C11.0773 34.4791 11.0627 34.4245 11.052 34.3691C11.0414 34.3136 11.011 34.2956 10.9601 34.3025C10.8649 34.3153 10.7697 34.3301 10.674 34.3359C10.4283 34.351 10.2388 34.247 10.1105 34.0229C10.0571 33.9307 10.037 33.8273 10.028 33.7205C10.0214 33.641 10.0067 33.5695 10.0017 33.4842C9.98094 33.1619 10.1544 32.7572 10.5357 32.7281C10.6172 32.722 10.6982 32.7089 10.7795 32.6994C10.8735 32.688 10.8768 32.6872 10.8789 32.5921C10.885 32.3124 10.9064 32.0333 10.943 31.7562C10.958 31.6439 10.975 31.5319 10.9936 31.4204C11.0115 31.3138 11.0116 31.3115 10.9117 31.2768C10.837 31.2509 10.7622 31.2264 10.6886 31.1999C10.3688 31.0851 10.2037 30.7612 10.2934 30.4166C10.3265 30.2892 10.3672 30.1638 10.4109 30.04C10.523 29.7209 10.8297 29.5599 11.1372 29.6565C11.2292 29.6853 11.3215 29.7142 11.411 29.7506C11.4683 29.7733 11.4937 29.7543 11.5178 29.7006C11.5745 29.5744 11.6361 29.4507 11.6958 29.3263C11.7172 29.2833 11.7369 29.249 11.7562 29.2096C11.8203 29.0846 11.8883 28.9614 11.9698 28.8476C12.0432 28.7794 24.3888 36.5015 24.354 36.5906C24.3303 36.636 24.3112 36.68 24.2885 36.7238C24.2449 36.8061 24.2038 36.8898 24.1574 36.9702C23.9813 37.275 23.6607 37.3678 23.3615 37.2016C23.2828 37.1579 23.2073 37.1077 23.1301 37.0609C23.0498 37.0123 23.0488 37.0118 22.9943 37.0868C22.8724 37.2542 22.745 37.4167 22.6119 37.5741C22.4928 37.7148 22.3669 37.848 22.2388 37.979C22.1798 38.0392 22.1799 38.041 22.2253 38.1095C22.2765 38.1868 22.3305 38.2618 22.3812 38.3393C22.578 38.6404 22.5252 39.0025 22.2519 39.2241C22.1643 39.2952 22.0753 39.3642 21.9849 39.431C21.7009 39.6404 21.3635 39.5831 21.1535 39.2903C21.1001 39.2152 21.0494 39.1372 20.996 39.0616C20.9477 38.9934 20.9459 38.9924 20.8752 39.0333C20.5852 39.2022 20.2843 39.3487 19.9746 39.4717C19.9312 39.4887 19.8875 39.5048 19.8444 39.5223C19.7663 39.5539 19.7648 39.5551 19.7803 39.6472C19.7941 39.729 19.8056 39.8119 19.8277 39.8913C19.9102 40.1883 19.738 40.5469 19.3558 40.6731C19.1905 40.7278 18.8326 40.7674 18.6751 40.7003Z" fill="#414141"/>
<path d="M24.3307 36.6128C24.0714 36.4527 21.7636 34.9404 21.602 34.8455C21.5144 34.7984 21.5429 34.7927 21.5961 34.6865C21.7848 34.2576 21.9118 33.8009 21.9729 33.3318C22.0169 32.9901 22.0145 32.6469 21.988 32.3028C21.9632 31.9786 21.9059 31.6581 21.8171 31.3468C21.704 30.9501 21.5404 30.5788 21.3384 30.224C21.1129 29.8284 20.8257 29.4905 20.5084 29.1789C20.2645 28.9394 19.9887 28.7449 19.6976 28.5758C19.2601 28.3202 18.7841 28.1477 18.291 28.0661C17.9813 28.015 17.6687 27.9898 17.356 28.0116C16.6908 28.0582 16.061 28.2442 15.4752 28.5867C15.013 28.8639 14.5994 29.2239 14.2526 29.6509C14.1642 29.7599 14.0383 29.9767 13.9516 30.0867C13.9019 30.1499 13.0737 29.5785 11.9472 28.8696C11.9887 28.7918 12.0288 28.7282 12.0732 28.6602C12.1009 28.6178 12.0986 28.5856 12.0625 28.552C11.9934 28.4868 11.9245 28.4212 11.8567 28.3544C11.641 28.1415 11.5906 27.8592 11.7257 27.582C11.7565 27.5184 11.8123 27.3692 11.8973 27.2607C11.9384 27.2082 11.9837 27.1604 12.0281 27.1114C12.2456 26.8722 12.6683 26.8682 12.8953 27.0887C13.17 27.3552 13.1339 27.2932 13.3652 27.1045C13.5629 26.9435 13.7629 26.7864 13.972 26.6421C14.0846 26.5646 14.0919 26.5271 14.0349 26.3971C13.9715 26.2522 13.9144 26.1064 13.9266 25.9408C13.9418 25.7363 14.0199 25.5614 14.177 25.4478C14.4013 25.2858 14.6394 25.1524 14.9256 25.1607C15.1619 25.1677 15.3275 25.2927 15.4475 25.4974C15.4902 25.571 15.5234 25.6514 15.558 25.7303C15.5901 25.8041 15.642 25.8282 15.7147 25.8079C16.0211 25.7226 16.3315 25.6579 16.6439 25.6042C16.7574 25.5846 16.7803 25.5492 16.7847 25.4292C16.7867 25.3876 16.7867 25.3459 16.7847 25.3043C16.7604 24.923 17.0381 24.603 17.3663 24.5809C17.5472 24.5686 17.7285 24.5541 17.9081 24.5922C18.1722 24.649 18.4322 24.9063 18.406 25.2596C18.4024 25.3085 18.405 25.3579 18.406 25.4073C18.4084 25.5525 18.434 25.5881 18.5689 25.6086C18.8612 25.6521 19.1506 25.715 19.4356 25.7967C19.5864 25.8406 19.6098 25.8247 19.6726 25.6747C19.7218 25.5573 19.7711 25.4396 19.8581 25.3453C20.0339 25.1554 20.2527 25.1247 20.4806 25.1783C20.6611 25.2208 20.8307 25.3079 20.9861 25.4156C21.2393 25.5912 21.3316 25.9067 21.2286 26.2135C21.2072 26.2775 21.1814 26.34 21.1544 26.4018C21.101 26.523 21.1101 26.5673 21.2163 26.6387C21.4393 26.7874 21.654 26.9496 21.8594 27.1246C22.0845 27.3177 22.0443 27.347 22.2926 27.108C22.5101 26.8987 22.8459 26.8737 23.0442 27.0171C23.2452 27.1622 23.42 27.3451 23.5361 27.5738C23.6394 27.7776 23.6255 28.1522 23.4198 28.3405C23.3581 28.3973 23.3034 28.4625 23.246 28.5246C23.1964 28.5786 23.1897 28.6375 23.229 28.6991C23.4128 28.987 23.5774 29.2884 23.7214 29.601C23.7568 29.6776 23.8175 29.6972 23.8923 29.6721C23.9803 29.6419 24.0701 29.618 24.1611 29.6005C24.4044 29.5551 24.6724 29.6687 24.7973 29.8959C24.9187 30.1159 24.9932 30.3574 25.0008 30.6157C25.009 30.8997 24.876 31.0963 24.6483 31.227C24.5727 31.2694 24.493 31.303 24.4106 31.3272C24.3236 31.3536 24.2863 31.4099 24.3038 31.5044C24.3652 31.8431 24.3856 32.186 24.4058 32.5294C24.4111 32.6203 24.4525 32.6705 24.5383 32.6731C24.6024 32.6752 24.6655 32.6879 24.7289 32.6968C25.0554 32.7422 25.2787 33.0123 25.2799 33.3637C25.2804 33.4317 25.2774 33.4997 25.2708 33.5674C25.2601 33.6742 25.2242 33.8272 25.196 33.9271C25.1142 34.218 24.8382 34.3772 24.5536 34.358C24.4614 34.3519 24.3698 34.3361 24.2777 34.3265C24.1932 34.3176 24.1889 34.3187 24.1678 34.408C24.1046 34.6759 24.0357 34.942 23.9453 35.2012C23.9032 35.3217 23.8598 35.4418 23.8122 35.5599C23.7908 35.6123 23.7998 35.6444 23.8455 35.6718C23.9353 35.7258 24.0259 35.7787 24.1125 35.8384C24.3436 35.9974 24.4391 36.2867 24.355 36.5629C24.3481 36.5802 24.34 36.5969 24.3307 36.6128Z" fill="#666059"/>
<path d="M14.9174 30.6422C15.0242 30.5059 15.1255 30.3644 15.2425 30.2366C15.7941 29.6337 16.4607 29.2797 17.2477 29.1855C17.9437 29.1021 18.6041 29.231 19.214 29.596C20.153 30.1579 20.7131 31.0146 20.8897 32.1435C20.9924 32.7995 20.9146 33.4397 20.6697 34.0544C20.6559 34.0892 20.6461 34.1256 20.6345 34.1613C20.6611 34.2205 20.6352 34.2713 20.6119 34.3226C20.4932 34.5839 20.3369 34.8183 20.1561 35.0327C19.6361 35.6496 18.9997 36.0584 18.2273 36.1999C17.202 36.3875 16.277 36.1352 15.4727 35.4301C14.8205 34.8581 14.4275 34.1176 14.3009 33.2297C14.2024 32.5385 14.2844 31.8652 14.5536 31.222C14.6189 31.0661 14.6981 30.9187 14.7779 30.7709C14.8105 30.7094 14.853 30.6633 14.9174 30.6422Z" fill="#EDAE50"/>
<path d="M15.5126 32.6787C15.495 31.405 16.5193 30.4344 17.6059 30.4285C18.6716 30.4227 19.7351 31.3253 19.7369 32.6901C19.7387 33.9569 18.772 34.9198 17.6436 34.9322C16.4143 34.9457 15.4901 33.8668 15.5126 32.6787Z" fill="#45423D"/>
<path d="M19.6993 30.6009C19.7169 30.7888 19.4956 30.9361 19.3418 30.8275C19.2375 30.7539 19.1389 30.6789 19.0563 30.5808C18.9372 30.4397 18.9643 30.2934 19.122 30.2011C19.2389 30.133 19.3478 30.1281 19.4557 30.2259C19.5316 30.2946 19.6052 30.364 19.6597 30.4536C19.6873 30.497 19.7012 30.5486 19.6993 30.6009Z" fill="#FCD38C"/>
<path d="M15.9377 32.6941C15.9116 31.7739 16.6126 30.8765 17.6301 30.8804C18.5806 30.8845 19.3226 31.6953 19.3131 32.7094C19.3038 33.7091 18.5245 34.4929 17.5983 34.4808C16.6379 34.4682 15.9118 33.6085 15.9377 32.6941Z" fill="#EDAE50"/>
<path d="M17.6197 33.4151C17.2411 33.4151 16.9255 33.0802 16.9282 32.6767C16.9307 32.2791 17.2203 31.9464 17.6241 31.9419C17.9923 31.938 18.3139 32.2617 18.3119 32.6829C18.3099 33.0934 18.0066 33.4155 17.6197 33.4151Z" fill="#414141"/>
<path d="M18.419 31.4609C18.4587 31.4609 18.4976 31.4656 18.5314 31.4893C18.6782 31.5929 18.7568 31.737 18.7516 31.9264C18.7488 32.0237 18.6176 32.1261 18.5281 32.1045C18.3767 32.0679 18.2534 31.9881 18.1691 31.8448C18.0963 31.7207 18.1107 31.6169 18.2198 31.5292C18.2789 31.4822 18.3464 31.463 18.419 31.4609Z" fill="#FCD38C"/>
<path d="M14.9174 30.6422C14.8072 30.8277 14.7005 31.0148 14.6153 31.2155C14.4721 31.5542 14.3791 31.9144 14.3396 32.2834C14.2872 32.7486 14.3234 33.2203 14.446 33.6704C14.5686 34.1205 14.7752 34.5396 15.0534 34.903C15.4763 35.4552 16.0092 35.8356 16.6477 36.0478C17.0178 36.1709 17.3988 36.2273 17.7848 36.2002C18.7945 36.1292 19.618 35.6719 20.2472 34.8256C20.3793 34.6471 20.4933 34.4543 20.5872 34.2502C20.6013 34.2199 20.6187 34.1913 20.6345 34.1619C20.7223 34.2056 21.4053 34.6748 21.5217 34.7614C21.5679 34.7955 21.547 34.841 21.525 34.8825C21.4051 35.1104 21.2783 35.3338 21.1257 35.539C20.7921 35.988 20.4031 36.3707 19.9429 36.6707C19.4962 36.9621 19.0055 37.1691 18.4925 37.2826C18.0956 37.3716 17.6936 37.3848 17.2928 37.3582C16.7596 37.3233 16.2487 37.1798 15.7623 36.9397C15.4291 36.7772 15.1169 36.57 14.8331 36.3232C14.2751 35.8341 13.8422 35.2432 13.5622 34.5296C13.3832 34.0715 13.2713 33.587 13.2304 33.0929C13.1663 32.356 13.2761 31.6467 13.52 30.9572C13.6094 30.7048 13.7273 30.4679 13.8533 30.2351C13.8657 30.2123 13.8796 30.1896 13.8939 30.1684C13.9705 30.0526 13.985 30.049 14.0989 30.1181C14.2901 30.234 14.6578 30.4766 14.845 30.5981C14.87 30.6111 14.8942 30.6259 14.9174 30.6422Z" fill="#666059"/>
<path d="M20.8534 33.4288C20.95 32.9716 20.959 32.4984 20.88 32.0374C20.801 31.5765 20.6355 31.1371 20.3935 30.7457C19.9889 30.1907 19.4806 29.7233 18.9166 29.4346C18.5645 29.2733 18.1873 29.1834 17.8042 29.1696C16.7928 29.1313 15.9258 29.4877 15.2196 30.2622C15.1085 30.3862 15.0042 30.5169 14.9072 30.6536C14.8241 30.6007 14.059 30.1856 13.9515 30.0868C13.9088 30.0475 14.2423 29.6454 14.4137 29.4577C14.7884 29.0471 15.2119 28.7079 15.6985 28.4595C16.1539 28.2095 16.6744 28.0668 17.1997 28.0073C17.6024 27.961 18.0091 27.9725 18.409 28.0414C18.936 28.1338 19.422 28.3519 19.8828 28.6435C20.1989 28.8411 20.4898 29.0809 20.7486 29.3571C21.257 29.904 21.6313 30.5386 21.8421 31.2787C21.9764 31.7538 22.0415 32.248 22.0351 32.7441C22.0282 33.4841 21.8535 34.1641 21.5999 34.7116C21.5496 34.8202 21.5952 34.8175 21.4494 34.7116C21.2703 34.5753 20.8234 34.2906 20.6348 34.1619C20.6231 34.1524 20.7771 33.7933 20.8534 33.4288Z" fill="#45423D"/>
<path d="M16.1581 14.1407C16.0803 13.8776 16.0206 13.6093 15.9552 13.3427C15.9379 13.2725 15.9573 13.2536 16.0277 13.2354C19.9222 12.228 24.6582 12.9978 27.0906 13.7815C27.4761 13.9286 27.8513 14.0996 28.1984 14.3335C28.349 14.435 28.4919 14.5469 28.6042 14.697C28.6355 14.7381 28.6637 14.7818 28.6885 14.8276C28.7473 14.9391 28.7605 15.0514 28.7051 15.1733C28.577 15.4561 28.4376 15.7325 28.287 16.0026C28.1897 16.1784 28.0896 16.3526 27.991 16.5276C27.9445 16.6126 27.8924 16.6939 27.8349 16.7709C27.7846 16.8207 27.7281 16.7968 27.6739 16.7838C27.4357 16.727 27.1951 16.6826 26.9583 16.6206C26.9409 16.616 26.9232 16.6238 26.9055 16.6244C26.6575 16.539 26.3957 16.5292 26.1438 16.4654C26.1108 16.457 26.0821 16.4782 26.0505 16.4726C25.6368 16.387 25.2174 16.3438 24.8009 16.283C24.6544 16.2615 24.5032 16.2728 24.3612 16.2172C24.3069 16.1562 24.2971 16.0764 24.2789 15.9995C24.1739 15.5458 24.0375 15.1055 23.7876 14.7145C23.7495 14.6551 23.7082 14.5984 23.6649 14.5432C23.5349 14.3772 23.3797 14.2785 23.169 14.2491C22.6194 14.1722 22.0689 14.1057 21.5169 14.0559C20.5984 13.9727 19.6788 13.9585 18.7586 13.9723C18.3045 13.979 17.8508 14.0112 17.3975 14.0528C17.0222 14.0868 16.6478 14.1273 16.2744 14.1799C16.2281 14.1847 16.1882 14.1817 16.1581 14.1407Z" fill="#EDAE50"/>
<path d="M29.0723 22.062C28.8136 22.06 28.5549 22.0543 28.2963 22.0582C28.2139 22.0593 28.1956 22.0083 28.1777 21.9453C28.1076 21.9226 28.1095 21.8544 28.0988 21.7976C28.0151 21.3604 27.9364 20.9219 27.8454 20.4862C27.6217 19.4151 27.3703 18.3516 27.0644 17.3032C27.0117 17.1225 26.955 16.9433 26.9035 16.7622C26.8878 16.7071 26.8579 16.647 26.9086 16.5918C26.9273 16.5691 26.9522 16.5691 26.9768 16.5737C27.2646 16.6305 27.5523 16.6873 27.835 16.7694C28.0206 17.3251 28.1767 17.8905 28.3208 18.4597C28.5166 19.2333 28.6846 20.0141 28.8412 20.7976C28.8996 21.0902 29.0716 22.0547 29.0723 22.062Z" fill="#45423D"/>
<path d="M16.1582 14.1407C16.4983 14.0789 16.8417 14.043 17.1848 14.0103C17.4323 13.9867 17.681 13.9716 17.9291 13.9535C18.6184 13.9026 19.3084 13.9036 19.9981 13.916C20.4991 13.925 20.9997 13.9533 21.4998 13.9955C21.833 14.0237 22.1655 14.0561 22.4974 14.0964C22.7761 14.1305 23.0527 14.1797 23.3316 14.2183C23.4217 14.2307 23.4897 14.2777 23.5541 14.3403C23.7761 14.5561 23.9329 14.8201 24.056 15.1082C24.2026 15.4506 24.3032 15.8087 24.3699 16.1778C24.3544 16.2296 24.3147 16.2302 24.2745 16.2276C24.0974 16.2163 23.9199 16.203 23.7433 16.1855C23.5876 16.1702 23.4312 16.1628 23.2757 16.1535C23.0278 16.1389 22.7796 16.1103 22.5305 16.1249C22.4344 16.1307 22.3396 16.1049 22.2437 16.1034C22.1138 16.1013 22.0735 16.1312 22.0284 16.2592C21.7629 17.0143 21.5443 17.785 21.3521 18.5645C21.0552 19.7686 20.8288 20.9886 20.6384 22.2163C20.5873 22.5443 20.5458 22.874 20.5003 23.2031C20.491 23.27 20.4842 23.3386 20.4441 23.3962C20.4128 23.4296 20.373 23.4319 20.3347 23.4213C20.1562 23.3722 19.9789 23.3175 19.8007 23.2671C19.7868 23.2637 19.7738 23.2568 19.763 23.2469C19.7522 23.237 19.7438 23.2244 19.7386 23.2103C19.7098 23.1281 19.7279 23.0446 19.7394 22.9637C19.921 21.6358 20.1432 20.3161 20.4356 19.0105C20.6423 18.0871 20.8779 17.1731 21.1798 16.2792C21.2255 16.144 21.1998 16.1047 21.0663 16.1031C20.5372 16.0969 20.009 16.1164 19.4801 16.1433C19.2144 16.157 18.9488 16.1686 18.6837 16.1922C18.666 16.1922 18.6481 16.1929 18.6303 16.193C18.3536 16.1949 18.3472 16.2014 18.2599 16.4753C17.7521 18.0677 17.3971 19.7001 17.1228 21.3543C17.0408 21.849 16.9689 22.3453 16.8958 22.8415C16.8892 22.887 16.8845 22.9317 16.8576 22.9698C16.832 23.0137 16.7897 23.0196 16.7472 23.0266C16.5265 23.0606 16.3046 23.0844 16.085 23.1258C16.0355 23.1353 15.9748 23.1465 15.9648 23.0618C16.0017 22.8003 16.0385 22.5388 16.0755 22.2773C16.1712 21.597 16.2796 20.9192 16.4006 20.2438C16.5593 19.3589 16.7409 18.4809 16.9651 17.6134C17.0719 17.202 17.1823 16.7914 17.3165 16.3888C17.3635 16.2477 17.3633 16.2477 17.2617 16.1503C17.0167 15.9143 16.7726 15.6775 16.5263 15.443C16.481 15.4008 16.4493 15.3445 16.4356 15.2821C16.3522 14.9383 16.2647 14.5956 16.1787 14.2524C16.1638 14.2173 16.1568 14.179 16.1584 14.1406L16.1582 14.1407Z" fill="#45423D"/>
<path d="M16.1586 14.1401C16.1716 14.1761 16.1864 14.2117 16.1789 14.2519C16.1575 14.218 16.1304 14.1846 16.1586 14.1401Z" fill="#A9A9A9"/>
<path d="M21.8128 24.0143C21.4036 23.7805 20.9745 23.5963 20.5357 23.4367C20.4958 23.4221 20.4538 23.4113 20.4233 23.3764C20.4685 23.0435 20.5103 22.71 20.5594 22.3777C20.6733 21.6084 20.8064 20.8429 20.9585 20.0813C21.1903 18.9269 21.4675 17.7857 21.8321 16.6699C21.8904 16.4913 21.9508 16.3135 22.0115 16.136C22.0421 16.0461 22.0435 16.0458 22.134 16.0485C22.6387 16.0637 23.1434 16.0843 23.6474 16.1179C23.8884 16.1339 24.129 16.1575 24.3699 16.1778C24.7678 16.2184 25.1644 16.2706 25.5602 16.3302C25.7284 16.3557 25.8966 16.3791 26.0636 16.4121C26.1598 16.4529 26.2192 16.5311 26.2772 16.6208C26.4977 16.9624 26.6734 17.3313 26.8195 17.7114C26.9724 18.109 27.1123 18.5145 27.2067 18.9347C27.2439 19.1001 27.2967 19.2613 27.3349 19.4261C27.4599 19.9686 27.5984 20.5075 27.6994 21.0562C27.7512 21.3376 27.8062 21.6187 27.8745 21.8968C27.8926 21.9708 27.9227 22.0545 27.8331 22.1078C27.8235 22.1191 27.8156 22.1333 27.8039 22.14C27.6454 22.2292 27.5382 22.3744 27.4342 22.5224C27.2603 22.7695 27.0882 23.0179 26.9154 23.2659C26.8667 23.2886 26.8265 23.2698 26.7867 23.2394C26.5786 23.0809 26.3685 22.925 26.1566 22.772C26.0488 22.6939 26.0405 22.6549 26.1128 22.5397C26.2154 22.3761 26.3257 22.2182 26.4316 22.057C26.4723 21.995 26.5158 21.9346 26.5491 21.8676C26.609 21.7461 26.587 21.6249 26.4949 21.5523C26.4028 21.4797 26.2881 21.4944 26.1998 21.5998C26.0884 21.7327 26.0006 21.885 25.9055 22.0314C25.6034 22.4944 25.3008 22.957 24.9977 23.4193C24.9691 23.4627 24.9401 23.5061 24.9208 23.5556C24.8764 23.6681 24.9073 23.7839 24.9971 23.8463C25.09 23.9108 25.1969 23.8981 25.2757 23.8022C25.3858 23.6682 25.4729 23.5155 25.5687 23.3705C25.6298 23.2775 25.6907 23.1844 25.7537 23.0929C25.7976 23.0293 25.8461 23.0199 25.9093 23.063C26.1398 23.2206 26.3598 23.3941 26.5846 23.5601C26.6223 23.588 26.6594 23.6209 26.6579 23.6779C26.5876 23.7998 26.5175 23.922 26.4467 24.0434C26.4112 24.1044 26.373 24.1637 26.3379 24.2252C26.1917 24.4793 26.1872 24.742 26.3132 25.0029C26.6526 25.7052 27.0053 26.4001 27.4033 27.0676C27.4528 27.1507 27.5061 27.2309 27.5559 27.3135C27.6961 27.546 27.9055 27.6393 28.152 27.6471C28.3898 27.6546 28.627 27.6269 28.8638 27.6047C28.8584 28.6563 28.5754 29.6184 28.0458 30.5037C27.9715 30.6276 27.8913 30.6806 27.7467 30.676C27.3633 30.6639 26.9794 30.6737 26.5956 30.6749C26.5181 30.6635 26.5209 30.5906 26.5102 30.5358C26.4647 30.3102 26.4049 30.089 26.3416 29.8685C26.099 29.0178 25.7472 28.2067 25.2961 27.4583C25.1503 27.2163 24.9875 26.9878 24.8349 26.7514C24.6929 26.5544 24.5399 26.3668 24.3819 26.1849C24.1006 25.8608 23.8086 25.5476 23.489 25.2647C23.0267 24.858 22.5316 24.4956 22.0094 24.1815C21.9371 24.1353 21.8504 24.1066 21.8128 24.0143Z" fill="#B9E1E1"/>
<path d="M27.81 22.1341C27.8396 22.066 27.837 21.9719 27.8216 21.9077C27.6868 21.3482 26.7342 17.4477 26.1955 16.5893C26.1302 16.4853 26.1148 16.4577 26.0635 16.4121C26.3165 16.433 26.5646 16.4898 26.8154 16.5271C26.8346 16.5294 26.853 16.5366 26.8691 16.5479C26.8852 16.5593 26.8985 16.5745 26.9081 16.5924C27.2445 17.6792 27.5331 18.7802 27.774 19.8953C27.9216 20.5748 28.0731 21.3051 28.1935 21.9908C28.1938 21.9923 28.1944 21.9938 28.1952 21.9952C28.2195 22.043 28.2257 22.0298 28.0848 22.0486C27.9974 22.0605 27.88 22.102 27.81 22.1341Z" fill="#DCF9FB"/>
<path d="M19.7633 23.197C19.5443 23.1515 19.3254 23.1019 19.1058 23.0619C18.8439 23.0147 18.5797 22.9821 18.3145 22.9643C18.0636 22.9469 17.8147 22.9416 17.5633 22.941C17.422 22.941 17.2789 22.9557 17.1367 22.9446C17.0785 22.8971 17.089 22.8327 17.0974 22.768C17.218 21.8431 17.3582 20.9221 17.541 20.0076C17.6691 19.3634 17.8134 18.7239 17.991 18.0936C18.1606 17.4915 18.3582 16.9 18.6644 16.3578C18.7106 16.2763 18.7178 16.2088 18.669 16.1323C18.7028 16.1179 18.7387 16.118 18.774 16.1163C19.5799 16.0775 20.3857 16.0353 21.1928 16.0432C21.2277 16.0432 21.2639 16.0344 21.2977 16.0528C21.3113 16.0936 21.2886 16.1269 21.277 16.1608C20.9211 17.1946 20.6522 18.2561 20.4207 19.3283C20.2243 20.238 20.0612 21.1546 19.9206 22.0757C19.864 22.449 19.8159 22.8233 19.7633 23.197Z" fill="#B9E1E1"/>
<path d="M18.7396 16.1183C18.8839 16.1003 18.8702 16.1087 18.7837 16.266C18.5501 16.6904 18.3534 17.1267 18.2031 17.5871C18.116 17.854 18.0315 18.1233 17.9662 18.3986C17.895 18.6989 17.8109 18.9958 17.7448 19.2977C17.6779 19.6033 17.6214 19.9112 17.5594 20.2179C17.496 20.532 17.4312 20.8457 17.383 21.1628C17.3082 21.6551 17.236 22.1477 17.1664 22.6406C17.1523 22.7409 17.1343 22.8419 17.1372 22.9446C17.1012 22.9618 16.8547 22.9888 16.8359 22.9446C16.8522 22.703 16.8948 22.465 16.9299 22.2263C17.0169 21.6365 17.1145 21.0486 17.223 20.4627C17.476 19.1086 17.7878 17.7704 18.2056 16.4626C18.2319 16.3804 18.2631 16.2997 18.2865 16.2166C18.3002 16.1678 18.3274 16.1498 18.3711 16.1484C18.4712 16.1431 18.7218 16.1175 18.7396 16.1183Z" fill="#DCF9FB"/>
<path d="M32.0629 32.7752C31.8144 32.7549 31.5375 32.5469 31.3397 33.0841C31.1431 33.6167 31.4321 33.8218 31.3885 33.8039C31.367 33.801 31.3453 33.8003 31.3237 33.8017C31.1609 33.8038 30.9926 33.7751 30.8301 33.7749C30.7726 33.7468 30.7861 33.6968 30.7958 33.6482C30.8776 33.2296 31.003 32.8219 31.1696 32.4327C31.39 31.9224 31.6599 31.4444 31.998 31.0105C32.4679 30.4078 33.0186 29.9085 33.6589 29.5207C34.3253 29.117 35.0407 28.8673 35.7985 28.7585C36.1647 28.706 36.5339 28.6863 36.9039 28.7139C37.0444 28.7244 37.1541 28.6635 37.2296 28.5404C37.2603 28.4903 37.2943 28.4521 37.347 28.4322C37.408 28.4315 37.4635 28.459 37.5217 28.4729C37.6498 28.5034 37.6632 28.4985 37.7194 28.3752C37.8101 28.1759 37.9042 27.9786 38.0215 27.7947C38.0503 27.7749 38.0744 27.7481 38.0918 27.7166C38.2438 27.4691 38.4381 27.2644 38.6666 27.0964C38.673 27.0932 38.6802 27.0919 38.6873 27.0928C38.77 27.0928 38.7915 27.1599 38.8115 27.2256C38.899 27.5135 38.9973 27.7966 39.119 28.071C39.3204 28.5254 39.5693 28.9457 39.8886 29.3166C39.9362 29.3719 39.9964 29.4212 39.9685 29.5114C39.8022 29.8219 39.6358 30.1324 39.4695 30.4429C39.4451 30.4884 39.418 30.5327 39.3922 30.5775C39.3459 30.6557 39.2937 30.7298 39.2362 30.7989C39.2212 30.7874 39.2053 30.7773 39.1887 30.7686C39.1791 30.7636 39.161 30.7466 39.1517 30.7411C38.9775 30.6404 39.0021 30.6337 39.0889 30.4458C39.1433 30.3273 39.1716 30.2072 39.1373 30.0736C39.1237 30.0185 39.0995 29.9669 39.0663 29.9221C39.0331 29.8774 38.9915 29.8404 38.9443 29.8136C38.8329 29.7492 38.7173 29.6886 38.59 29.6602C38.4114 29.6208 38.2248 29.7088 38.1389 29.8806C38.1105 29.9374 38.0906 29.9983 38.0641 30.0562C38.0263 30.1406 38.0045 30.1524 37.9222 30.1275C37.703 30.061 37.4817 30.0067 37.255 29.9798C37.2336 29.9772 37.2134 29.9684 37.1923 29.9664C37.1317 29.9588 37.1062 29.9209 37.1069 29.8588C37.1069 29.7982 37.103 29.7376 37.1069 29.677C37.1208 29.4481 36.9837 29.2934 36.7847 29.2516C36.6412 29.2214 36.4933 29.2234 36.3506 29.2575C36.1682 29.3012 36.0602 29.4197 36.0348 29.621C36.0245 29.6957 36.0186 29.771 36.0168 29.8465C36.0158 29.9448 36.0095 29.9531 35.9161 29.9725C35.8011 29.9965 35.685 30.0146 35.5699 30.0379C35.4511 30.062 35.3336 30.092 35.2174 30.128C35.1419 30.1515 35.1242 30.1421 35.0927 30.0671C35.0636 29.9982 35.0364 29.9284 34.999 29.8638C34.9004 29.6934 34.7222 29.6147 34.5398 29.6646C34.4087 29.7011 34.284 29.7597 34.1705 29.8382C34.005 29.9518 33.9446 30.1663 34.0146 30.3686C34.0355 30.4287 34.0661 30.4848 34.0905 30.5437C34.1212 30.6177 34.1186 30.6354 34.0575 30.6751C33.8418 30.8155 33.6422 30.9794 33.4437 31.1451C33.3857 31.1936 33.3698 31.1942 33.3155 31.1409C33.2672 31.0907 33.216 31.0439 33.1621 31.0006C33.0095 30.8831 32.8011 30.8816 32.6576 31.0105C32.5575 31.1004 32.4629 31.1984 32.3917 31.3184C32.2837 31.5002 32.3086 31.716 32.4558 31.8637C32.5153 31.9235 32.5214 31.928 32.6182 31.9983C32.4695 32.1565 32.1793 32.5832 32.0942 32.7514" fill="#414141"/>
<path d="M30.0749 33.7537C29.4773 33.753 28.8798 33.7523 28.2821 33.7517C27.3324 33.7517 26.3827 33.7517 25.4328 33.7517C25.2139 33.7517 25.2102 33.7444 25.2406 33.5158C25.262 33.3493 25.2658 33.1831 25.1779 33.0315C25.0832 32.8682 24.9494 32.7634 24.7696 32.7341C24.6819 32.7188 24.5934 32.7092 24.5046 32.7055C24.3978 32.7022 24.3785 32.6739 24.3745 32.5593C24.3617 32.189 24.3332 31.8209 24.2663 31.4559C24.2397 31.3116 24.247 31.2995 24.3831 31.2595C24.4932 31.2272 24.6004 31.1871 24.6987 31.1243C24.9428 30.968 25.0145 30.701 24.956 30.4266C24.9293 30.3016 24.8886 30.1795 24.8492 30.0581C24.7467 29.7429 24.4754 29.579 24.1677 29.6404C24.0623 29.6614 23.9613 29.6972 23.8597 29.7312C23.7762 29.7596 23.7658 29.7568 23.727 29.6706C23.5654 29.3081 23.3748 28.9611 23.1572 28.6334C23.1163 28.5723 23.1185 28.5531 23.1807 28.5033C23.2662 28.4345 23.3354 28.3471 23.4146 28.2715C23.6053 28.0897 23.6018 27.7071 23.4878 27.5244C23.3803 27.3526 23.2442 27.2064 23.096 27.0779C22.9097 26.9158 22.5828 26.91 22.3756 27.1081C22.3043 27.1763 22.2233 27.2331 22.1602 27.3109C22.1224 27.3576 22.0875 27.3586 22.0427 27.3184C21.9371 27.2231 21.8304 27.1289 21.7208 27.0388C21.5491 26.8977 21.3684 26.7706 21.1851 26.6466C21.0263 26.5391 21.0337 26.5633 21.1144 26.3853C21.1481 26.3144 21.1777 26.2414 21.2031 26.1667C21.2955 25.8758 21.2117 25.557 20.9171 25.398C20.79 25.3298 20.6623 25.2595 20.5253 25.2199C20.3331 25.1642 20.1454 25.1744 19.9765 25.3079C19.9079 25.3628 19.8529 25.4345 19.8163 25.517C19.7708 25.6154 19.7308 25.7166 19.6872 25.8159C19.6542 25.8908 19.647 25.8954 19.5725 25.8706C19.2869 25.7751 18.9949 25.7099 18.6996 25.6601C18.6295 25.6487 18.5591 25.6373 18.4888 25.6267C18.387 25.611 18.3791 25.6026 18.3773 25.4889C18.3759 25.3943 18.3762 25.2997 18.3773 25.2049C18.3797 24.9422 18.2492 24.7732 18.0379 24.6636C17.9772 24.631 17.9107 24.6123 17.8428 24.6087C17.6832 24.6029 17.5233 24.5921 17.364 24.6201C17.0601 24.6741 16.8714 24.8997 16.862 25.2264C16.8597 25.3096 16.862 25.3929 16.8611 25.4764C16.8596 25.6039 16.8546 25.6078 16.7392 25.6273C16.3844 25.6871 16.0307 25.7523 15.6859 25.8633C15.6037 25.8896 15.5939 25.884 15.5563 25.7976C15.5205 25.7153 15.4856 25.6325 15.4495 25.5501C15.3074 25.2228 14.978 25.1171 14.6745 25.2347C14.5608 25.2785 14.4498 25.3299 14.3422 25.3887C14.1657 25.4858 14.0493 25.6357 14.0112 25.8493C13.9915 25.9614 14.0014 26.0771 14.0398 26.1836C14.0729 26.2797 14.1168 26.3705 14.1582 26.4626C14.1934 26.5408 14.1894 26.5586 14.1222 26.6019C13.8389 26.7848 13.5742 26.9952 13.3159 27.2153C13.2827 27.2436 13.2518 27.2757 13.2198 27.3047C13.1645 27.354 13.1476 27.3539 13.0916 27.3026C13.0298 27.2458 12.966 27.191 12.9081 27.1298C12.6899 26.8991 12.2814 26.9004 12.0696 27.1456C12.0071 27.2178 11.9476 27.2933 11.8836 27.3637C11.806 27.4489 11.8009 27.446 11.7214 27.368C11.6539 27.3017 11.4948 27.1529 11.4835 27.144C11.3774 27.0182 11.3818 27.0173 11.4891 26.8884C12.4017 25.7928 13.5586 24.9587 14.8534 24.4629C15.5061 24.213 16.1777 24.0501 16.8679 23.9869C17.2894 23.9496 17.713 23.9454 18.1351 23.9741C18.7067 24.0106 19.2733 24.1104 19.8254 24.272C20.2785 24.4037 20.7191 24.5796 21.1418 24.7974C21.4306 24.9422 21.7107 25.1059 21.9806 25.2874C22.3586 25.5421 22.7165 25.8291 23.0506 26.1457C23.3703 26.4511 23.6704 26.7788 23.949 27.1267C23.9868 27.1767 24.0222 27.2288 24.055 27.2826C24.3157 27.5956 24.5249 27.9473 24.7203 28.307C25.1131 29.0275 25.407 29.8041 25.593 30.6131C25.658 30.8961 25.7012 31.1833 25.7492 31.4696C25.7909 31.7196 25.9633 31.8051 26.1748 31.6841C26.4401 31.5325 26.6085 31.1719 26.57 30.8526C26.5616 30.7833 26.5166 30.7049 26.5865 30.6398C26.6419 30.6066 26.703 30.6094 26.7634 30.6091C27.0838 30.6081 27.4035 30.6047 27.7235 30.6107C27.8556 30.6132 27.9441 30.5607 28.0149 30.4443C28.2795 30.0082 28.4811 29.5323 28.613 29.0326C28.7169 28.6426 28.7916 28.2466 28.817 27.841C28.82 27.7994 28.8194 27.7576 28.815 27.7161C28.8095 27.6668 28.8211 27.6262 28.864 27.6004C28.9334 27.5991 29.0852 27.5898 29.0921 27.5891C29.3578 27.5724 29.3578 27.5725 29.3583 27.8566C29.3583 28.0725 29.3571 28.2883 29.359 28.5034C29.3607 28.7007 29.4101 28.7615 29.5914 28.8102C30.0255 28.9277 30.4648 28.9657 30.9126 28.9409C31.1194 28.9296 31.3217 28.89 31.5269 28.8728C31.5694 28.8677 31.611 28.8562 31.6504 28.8387C31.775 28.7879 31.8117 28.7364 31.8135 28.5924C31.8167 28.3238 31.8125 28.0553 31.8158 27.7867C31.8166 27.7281 31.8052 27.6638 31.8541 27.6164C31.9347 27.5505 32.0117 27.6008 32.0838 27.6328C32.2618 27.7123 32.3958 27.8537 32.5188 28.0065C32.7465 28.2894 32.9156 28.6126 33.0759 28.9414C33.09 28.9678 33.096 28.9984 33.093 29.0286C33.0873 29.1021 33.0371 29.1388 32.9862 29.174C32.5666 29.4625 32.1899 29.8048 31.8434 30.187C31.446 30.6249 31.1164 31.1145 30.8373 31.6437C30.5131 32.2582 30.2926 32.9134 30.1624 33.6039C30.1512 33.6618 30.1623 33.7439 30.0749 33.7537Z" fill="#45423D"/>
<path d="M30.0746 33.7536C30.1016 33.6246 30.1273 33.4953 30.1557 33.3673C30.3879 32.3149 30.834 31.3757 31.4782 30.5414C31.9058 29.9839 32.4131 29.5012 32.9814 29.1108C33.0141 29.0881 33.0501 29.0699 33.0703 29.0313C33.0959 28.9859 35.0342 27.6591 37.2019 28.0855C37.3309 28.1851 37.3461 28.3768 37.276 28.5504C37.2075 28.7199 37.0799 28.7733 36.8754 28.7681C36.6867 28.7632 36.4984 28.7524 36.3105 28.7633C35.9946 28.7802 35.6804 28.8227 35.3707 28.8905C34.522 29.0796 33.749 29.4464 33.0555 29.9999C32.2453 30.6465 31.6338 31.4643 31.2139 32.4439C31.0438 32.844 30.9156 33.2628 30.8317 33.6928C30.8266 33.7186 30.7569 34.1341 30.7356 34.3176C30.7161 34.488 30.6394 34.6068 30.4848 34.663C30.2576 34.7455 30.0149 34.5692 30.01 34.3141C30.0073 34.1855 30.0333 34.059 30.0515 33.9322C30.0588 33.882 30.0667 33.7618 30.0746 33.7536Z" fill="#A19D98"/>
<path d="M28.2256 32.8687C27.8381 32.8687 27.4505 32.87 27.063 32.8681C26.8814 32.8672 26.7499 32.7729 26.675 32.6C26.6001 32.4271 26.6232 32.2592 26.7319 32.1092C26.8182 31.9905 26.9417 31.9449 27.0789 31.9403C27.1713 31.9372 27.2638 31.939 27.3566 31.9391C28.0108 31.9396 28.665 31.94 29.3192 31.9405C29.4432 31.9405 29.5586 31.9632 29.6569 32.0527C29.7925 32.1765 29.8477 32.3773 29.7913 32.5561C29.7637 32.6467 29.7099 32.7258 29.6376 32.782C29.5653 32.8383 29.4782 32.8689 29.3886 32.8694C29.001 32.8716 28.6135 32.8701 28.226 32.8701L28.2256 32.8687Z" fill="#FCBE4F"/>
<path d="M15.9644 23.0608C15.9886 23.0813 16.0164 23.0819 16.0449 23.0759C16.2873 23.0254 16.5326 22.9963 16.778 22.9693C16.7993 22.9668 16.7887 22.9671 16.8492 22.961C17.7111 22.8929 18.86 22.9431 19.7634 23.1968C19.9626 23.2555 20.1633 23.2991 20.3627 23.3572C20.3831 23.3585 21.359 23.7381 21.7382 23.9549C21.7721 23.9807 21.7887 23.9944 21.8129 24.0142C21.8285 24.2002 21.7742 24.3399 21.6721 24.4668C21.5299 24.6436 21.3421 24.7704 21.1319 24.8507C20.8616 24.7258 20.5924 24.5978 20.3132 24.4953C19.8192 24.3138 19.3102 24.1822 18.793 24.1021C18.3424 24.0339 17.8872 24.0046 17.4321 24.0147C16.8952 24.0242 16.3606 24.0925 15.8367 24.2186C14.2109 24.6069 12.7368 25.5178 11.6141 26.8275C11.5782 26.8695 11.5416 26.9108 11.5056 26.9524C11.4309 27.0397 11.3982 27.0963 11.3431 27.1657C11.2515 27.2811 11.1625 27.3989 11.0733 27.5165C10.865 27.7908 10.499 27.8056 10.271 27.5179C10.1167 27.3231 10.1428 27.0295 10.2684 26.8444C10.4054 26.6464 10.5518 26.456 10.7071 26.2739C10.8658 26.085 11.0204 25.8921 11.1944 25.7186C11.4382 25.4758 11.681 25.231 11.9462 25.0143C12.8517 24.2746 13.8443 23.7104 14.9381 23.3542C15.2272 23.2598 15.5208 23.1818 15.8176 23.1206C15.87 23.1102 15.9249 23.1062 15.9644 23.0608Z" fill="#EDAE50"/>
<path d="M24.8645 26.7181C25.1294 27.0515 25.3451 27.4208 25.5533 27.795C25.7982 28.2352 26.0019 28.6969 26.1744 29.1742C26.3326 29.6125 26.4694 30.0576 26.5604 30.5177C26.571 30.5695 26.584 30.6199 26.5958 30.6719C26.6196 30.813 26.647 30.9528 26.6179 31.0983C26.5584 31.3966 26.4187 31.6301 26.1518 31.7602C25.9283 31.8692 25.7342 31.7552 25.6977 31.4963C25.6016 30.8147 25.4446 30.1493 25.2053 29.5072C24.9221 28.7477 24.5511 28.0418 24.0791 27.3955C24.0578 27.3658 24.0377 27.3345 24.0171 27.3039C24.0681 27.1236 24.174 26.9778 24.2758 26.8279C24.3329 26.7438 24.4212 26.7575 24.4949 26.7329C24.6141 26.693 24.7393 26.6604 24.8645 26.7181Z" fill="#EDAE50"/>
<path d="M24.8041 26.7025C24.2198 26.6523 24.0362 27.2654 24.0175 27.3038C23.7651 26.9769 23.4989 26.6638 23.2091 26.3734C22.6202 25.7815 21.952 25.2859 21.2262 24.9027C21.1942 24.886 21.1633 24.8686 21.1318 24.8507C21.1591 24.8167 21.3995 24.7666 21.5999 24.4759C21.7695 24.2299 21.8095 24.0632 21.8129 24.0142C22.0042 24.0906 22.1712 24.2148 22.3447 24.3251C22.6446 24.5142 22.9329 24.7233 23.2078 24.9512C23.4563 25.1588 23.6973 25.3751 23.9268 25.6075C24.0841 25.7666 24.2315 25.935 24.3802 26.1018C24.5532 26.2958 24.7276 26.491 24.8645 26.7181" fill="#FCD38C"/>
<path d="M39.9595 29.509C39.8967 29.3975 39.8013 29.3159 39.7245 29.2162C39.3116 28.6806 39.0157 28.0775 38.8073 27.4236C38.7834 27.3485 38.7615 27.2726 38.7376 27.1974C38.7275 27.1656 38.7199 27.1292 38.6772 27.1304C38.151 26.651 37.5157 26.3837 36.8936 26.0909C35.9538 25.6493 34.9725 25.3457 33.9798 25.0782C33.2012 24.8684 32.4123 24.7128 31.6212 24.5688C31.5492 24.5558 31.4722 24.5494 31.4225 24.4779C31.4095 24.4261 31.4095 24.3732 31.4094 24.3204C31.4083 23.6945 31.4086 23.0685 31.4103 22.4426C31.4103 22.3744 31.3906 22.296 31.4598 22.2456C31.6158 22.2864 31.7769 22.2864 31.9351 22.3098C32.2342 22.3539 32.5352 22.3867 32.8338 22.4347C33.2204 22.4963 33.6083 22.5511 33.9918 22.6329C34.2567 22.6897 34.523 22.7375 34.7873 22.7975C35.097 22.8678 35.4067 22.9389 35.7126 23.0217C36.2225 23.1595 36.7323 23.2994 37.2292 23.4853C37.427 23.5593 37.6232 23.6391 37.8234 23.7048C38.0275 23.7716 38.1875 23.9049 38.3397 24.0551C38.6708 24.3817 39.001 24.7092 39.3206 25.0487C39.5342 25.2759 39.7489 25.5015 39.9525 25.7391C40.0408 25.842 40.1384 25.9362 40.2302 26.0363C40.3889 26.2097 40.5366 26.3938 40.6992 26.5635C40.8297 26.6998 40.9069 26.8715 40.9165 27.068C40.93 27.3441 40.9217 27.6179 40.8558 27.8896C40.7344 28.3894 40.5106 28.8303 40.2072 29.2289C40.1311 29.3281 40.0525 29.4256 39.9595 29.509Z" fill="#EDAE50"/>
<path d="M26.6578 23.6753L25.9225 23.1328C25.9103 23.125 25.8987 23.1162 25.8879 23.1064C25.8434 23.061 25.8167 23.0819 25.7886 23.1292C25.7469 23.1994 25.7001 23.2663 25.6553 23.3343C25.549 23.4951 25.4449 23.6575 25.3356 23.8159C25.2545 23.9334 25.1515 23.9697 25.0379 23.9319C24.8677 23.8751 24.7909 23.6802 24.8752 23.5115C24.9017 23.4584 24.9368 23.41 24.9693 23.3604C25.3433 22.7902 25.7176 22.22 26.0921 21.65C26.1156 21.6121 26.1415 21.5761 26.1696 21.5421C26.2673 21.4303 26.4153 21.4128 26.5273 21.4966C26.5818 21.5372 26.6203 21.5976 26.6355 21.6665C26.6506 21.7354 26.6414 21.8078 26.6095 21.8698C26.5762 21.9363 26.5336 21.9975 26.4929 22.0594C26.3768 22.2359 26.2596 22.4116 26.1427 22.5875C26.0962 22.6577 26.0952 22.6592 26.1617 22.7086C26.4124 22.8945 26.6635 23.0798 26.9148 23.2646L26.6578 23.6753Z" fill="#45423E"/>
<path d="M29.6891 22.1052C29.7234 22.1309 29.7211 22.1703 29.7211 22.2074C29.722 22.8707 29.722 23.534 29.7211 24.1972C29.722 24.2198 29.7184 24.2424 29.7104 24.2634C29.6664 24.3202 29.6036 24.318 29.5443 24.3182C29.3243 24.3193 29.1043 24.3068 28.8847 24.3023C28.2705 24.2882 27.6564 24.2967 27.0416 24.298C26.9989 24.298 26.9561 24.3005 26.9165 24.3207C26.8931 24.332 26.8718 24.3484 26.8751 24.3796C26.8784 24.4109 26.9031 24.4205 26.9278 24.4275C26.9451 24.4322 26.9628 24.4344 26.9806 24.4339C27.2821 24.427 27.5834 24.4403 27.8854 24.4202C28.1754 24.4008 28.4668 24.4067 28.7581 24.4253C29.0093 24.4413 29.2613 24.448 29.5131 24.4577C29.5772 24.4601 29.6412 24.4554 29.6983 24.496C29.7268 24.648 29.7714 24.7984 29.741 24.9566C29.7403 24.9711 29.7364 24.9852 29.7297 24.9977C29.6827 25.0573 29.6096 25.0585 29.5486 25.0856C29.4331 25.1367 29.3756 25.2201 29.3793 25.3557C29.3958 25.9752 29.3499 26.5939 29.3579 27.2133C29.3589 27.2851 29.3602 27.3566 29.3677 27.4282C29.3838 27.5829 29.3437 27.6339 29.1968 27.6497C29.158 27.6538 29.1189 27.6551 29.0794 27.6561C29.0111 27.6571 28.9429 27.6574 28.8748 27.6518C28.6751 27.6849 28.4729 27.6873 28.2717 27.7019C27.8987 27.7286 27.6246 27.5671 27.4303 27.2247C27.1604 26.7498 26.8883 26.2765 26.6414 25.7873C26.5306 25.5678 26.4278 25.3442 26.3112 25.1277C26.1237 24.7799 26.1217 24.4399 26.3407 24.107C26.4362 23.9619 26.5059 23.7985 26.62 23.667C26.6834 23.5088 26.7859 23.377 26.878 23.2381C27.0893 22.9066 27.3123 22.5842 27.5525 22.2757C27.6258 22.1815 27.7278 22.1234 27.8219 22.0559C27.9465 22.02 28.3986 22.0104 28.5133 22.0064C28.6435 22.0018 28.774 22.0046 28.9044 22.0064C28.9665 22.0069 29.5695 22.0417 29.6891 22.1052Z" fill="#EDAE50"/>
<path d="M37.3517 28.4829C37.3115 28.4592 37.2865 28.4261 37.2892 28.374C37.2974 28.2149 37.2006 28.1366 37.0823 28.0779C36.9246 28.0168 35.7237 27.8967 34.5297 28.3379C34.1098 28.4825 33.7049 28.663 33.3239 28.9018C33.2538 28.9458 33.1761 28.9757 33.1103 29.0285C33.101 29.0359 33.0834 29.0312 33.0696 29.0321C32.9761 28.8897 32.914 28.7284 32.8297 28.5804C32.699 28.3514 32.5608 28.1292 32.3843 27.9361C32.2455 27.7845 32.0883 27.6683 31.8896 27.6257C31.8349 27.6301 31.8268 27.5876 31.8201 27.5462C31.8142 27.4974 31.8121 27.4483 31.8139 27.3992C31.8139 27.0555 31.8081 26.7118 31.8153 26.3683C31.8219 26.0431 31.787 25.7197 31.7912 25.3949C31.7928 25.2713 31.7378 25.1875 31.631 25.1395C31.5885 25.1203 31.5471 25.0983 31.5072 25.0736C31.4768 25.0545 31.4438 25.0348 31.4572 24.9863L31.4612 24.7406C31.4966 24.6885 31.5446 24.6958 31.5959 24.704C32.1869 24.7985 32.7738 24.9154 33.3566 25.0545C34.0574 25.2231 34.7541 25.4081 35.4364 25.6493C35.9831 25.8424 36.5242 26.0523 37.0482 26.3093C37.2966 26.4312 37.5502 26.5432 37.7771 26.7084C37.8626 26.7705 37.9312 26.8531 37.9962 26.9391C38.1508 27.1436 38.1117 27.381 38.0973 27.6137C38.0929 27.6864 38.0604 27.7538 38.0546 27.827C37.9208 28.0434 37.8066 28.2727 37.7136 28.512C37.6946 28.5618 37.669 28.5802 37.6159 28.5611C37.5299 28.53 37.4403 28.5087 37.3517 28.4829Z" fill="#EDAE50"/>
<path d="M38.0559 27.8273C38.0261 27.7665 38.0308 27.7007 38.0419 27.6385C38.0652 27.5069 38.0569 27.3748 38.0569 27.2428C38.0569 27.1134 37.9897 27.013 37.916 26.9208C37.8234 26.8056 37.71 26.7113 37.5825 26.6437C36.9861 26.3213 36.3686 26.053 35.7368 25.82C35.2801 25.6514 34.8195 25.4976 34.3514 25.3701C33.7597 25.209 33.1659 25.0605 32.5648 24.9385C32.2194 24.8685 31.8715 24.816 31.5258 24.7477C31.505 24.7436 31.4831 24.7428 31.4624 24.7404C31.4624 24.6571 31.4624 24.5741 31.4624 24.4912C31.6747 24.5127 31.8836 24.5576 32.0932 24.5977C32.3657 24.6498 32.6377 24.7051 32.9092 24.7637C33.1943 24.8259 33.4796 24.8862 33.7614 24.9658C33.9774 25.0267 34.1959 25.0785 34.4124 25.1385C34.9421 25.2853 35.4654 25.4539 35.9823 25.6444C36.4022 25.7991 36.8082 25.9908 37.2165 26.1762C37.605 26.3534 37.9818 26.5583 38.3442 26.7897C38.4505 26.8573 38.5482 26.9403 38.6486 27.0181C38.6842 27.0457 38.7161 27.0789 38.6776 27.1304C38.5421 27.258 38.4024 27.3803 38.2824 27.5259C38.2024 27.6228 38.1317 27.7268 38.0559 27.8273Z" fill="#FCD38C"/>
<path d="M29.6892 24.2645L29.6899 24.5136C28.9788 24.4514 27.6532 24.4514 26.984 24.4915C26.9332 24.4889 26.8825 24.4834 26.8323 24.4748C26.7949 24.4659 26.7373 24.4146 26.7383 24.3826C26.74 24.3238 26.7718 24.2954 26.8131 24.2736C26.8646 24.2461 26.9335 24.2409 26.9915 24.2409C27.6317 24.2409 28.2721 24.2307 28.9119 24.2471C29.1708 24.2537 29.4301 24.2578 29.6892 24.2645Z" fill="#FCD38C"/>
<path d="M40.6633 27.2862C40.6668 27.5306 40.6206 27.7554 40.5549 27.9762C40.4388 28.367 40.2495 28.7157 40.0088 29.0339C39.96 29.0986 39.9574 29.0988 39.9064 29.035C39.6723 28.7422 39.4849 28.4177 39.3244 28.0744C39.2037 27.8165 39.1049 27.5493 39.0165 27.2776C38.9892 27.1934 38.9924 27.1783 39.0716 27.1351C39.3488 26.9838 39.6393 26.8763 39.9491 26.8293C40.0902 26.8078 40.2327 26.8082 40.3738 26.7898C40.388 26.7884 40.4022 26.7881 40.4165 26.7889C40.5507 26.7915 40.5718 26.8097 40.6222 26.9397C40.6669 27.0556 40.6661 27.1758 40.6633 27.2862Z" fill="#FEFEFE"/>
<path d="M31.4477 22.3018C31.4477 23.024 31.4556 24.6079 31.4722 25.0522C31.4325 25.1058 31.3811 25.0863 31.3346 25.0722C30.8339 24.9167 30.3298 24.9397 29.8242 25.0381C29.7815 25.0463 29.7401 25.0575 29.7041 25.0204L29.7014 25.024C29.678 24.9899 29.7014 21.4611 29.6984 21.2351C29.697 21.1381 29.7123 21.0502 29.7577 20.965C29.8135 20.8602 29.8621 20.7513 29.9139 20.6441C29.9211 20.6363 29.9306 20.6314 29.9409 20.6304C30.5238 20.8952 31.0053 21.2025 31.4442 21.68C31.4378 21.8525 31.4442 22.0835 31.4477 22.3018Z" fill="#414141"/>
<path d="M29.943 20.5889H29.9343L29.9258 20.5872C29.9679 20.4803 29.9703 20.3683 29.9699 20.2545C29.9686 19.9146 29.9738 19.5746 29.9707 19.2348C29.9697 19.1109 30.0048 19.0105 30.0775 18.9136C30.4364 18.4354 30.8263 17.9845 31.2445 17.5642C31.5102 17.297 31.7922 17.0488 32.1022 16.8394C32.1611 16.8544 32.1359 16.8951 32.1226 16.9265C31.9325 17.3723 31.9594 17.8397 32.0191 18.3037C32.0454 18.5081 32.0987 18.7189 32.2585 18.869C32.2699 18.8785 32.2775 18.8922 32.2799 18.9073C32.2823 18.9225 32.2793 18.938 32.2715 18.9509C31.9105 19.1294 31.6271 19.4066 31.3878 19.7393C31.3524 19.7884 31.3263 19.8403 31.335 19.9051C31.3191 20.31 31.3226 20.7147 31.3359 21.3811C31.3353 21.3882 31.3344 21.3954 31.3331 21.4024C31.2797 21.4409 31.2449 21.3974 31.212 21.3677C31.0694 21.2386 30.9309 21.1047 30.7772 20.9896C30.6092 20.8636 30.4369 20.746 30.2507 20.6524C30.1526 20.6034 30.0528 20.5702 29.943 20.5889Z" fill="#A19D98"/>
<path d="M32.3349 16.7896C32.4069 16.8279 32.4436 16.8919 32.4619 16.974C32.5084 17.1828 32.5391 17.3953 32.5536 17.6093C32.5787 17.9754 32.5289 18.3296 32.4429 18.6809C32.4249 18.7541 32.4043 18.8262 32.3587 18.8867C32.3132 18.8948 32.2992 18.8598 32.2809 18.8263C32.0688 18.4387 32.0303 18.0158 32.0566 17.5802C32.0601 17.5204 32.0691 17.4606 32.0728 17.4004C32.0849 17.169 32.1784 16.9509 32.3349 16.7896Z" fill="#A19D98"/>
<path d="M31.6797 25.096C31.7904 25.1477 31.8447 25.2236 31.8492 25.3644C31.8716 26.0744 31.8655 26.7844 31.8671 27.4943C31.8671 27.5397 31.8717 27.729 31.8714 27.7816C31.8697 28.0762 31.865 28.3708 31.8689 28.6653C31.8702 28.7689 31.8298 28.8281 31.7456 28.8655C31.0424 29.0699 30.1292 29.0598 29.4888 28.8427C29.3445 28.796 29.306 28.7388 29.3049 28.5803C29.3034 28.3727 29.3049 28.1649 29.3049 27.9571C29.3049 27.8703 29.3064 27.7834 29.3049 27.6965C29.3034 27.6096 29.3262 26.2632 29.3262 26.2218C29.3262 25.9045 29.3285 25.5871 29.3255 25.2698C29.3245 25.1701 29.359 25.1101 29.4466 25.0684C30.4637 24.7267 30.9975 24.8261 31.6797 25.096Z" fill="#A19D98"/>
<path d="M29.5164 26.9654V25.434C29.5164 25.4075 29.5157 25.3811 29.5164 25.3545C29.5187 25.2493 29.5271 25.2352 29.6223 25.1983C29.9799 25.0523 31.0254 24.9143 31.5836 25.306C31.6717 25.3553 31.6858 25.4056 31.6896 25.5248C31.7039 25.793 31.679 27.7854 31.6798 28.5529C31.6798 28.5681 31.6798 28.5832 31.6798 28.5983C31.6772 28.7077 31.6703 28.7129 31.5659 28.736C30.9149 28.8799 30.2676 28.861 29.623 28.6906C29.5276 28.6655 29.5225 28.663 29.5223 28.553C29.5215 28.2013 29.5215 27.8496 29.5223 27.498C29.5223 27.3203 29.5223 27.1425 29.5223 26.9648L29.5164 26.9654Z" fill="#45423D"/>
<path d="M29.9189 20.6106C29.9313 20.5135 29.9872 20.5034 30.0946 20.5302C30.2237 20.5711 30.3472 20.6298 30.462 20.7048C30.7176 20.867 30.9623 21.0456 31.177 21.2671C31.225 21.3167 31.2806 21.358 31.3328 21.4026C31.3401 21.4353 31.3566 21.4647 31.3802 21.4871C31.448 21.5519 31.4572 21.6269 31.4434 21.7215C31.3307 21.7045 31.2674 21.6329 31.1959 21.5491C31.002 21.3219 30.7754 21.138 30.5351 20.9705C30.387 20.8674 30.1604 20.7547 29.9959 20.6849C29.9395 20.6611 29.9124 20.6625 29.9189 20.6106Z" fill="#DCF9FB"/>
<path d="M32.3349 16.7896C32.3728 16.8116 32.3973 16.8218 32.2994 16.9138C32.1759 17.0317 32.094 17.329 32.1023 17.8165C32.1103 18.1397 32.1142 18.4275 32.3586 18.8867C32.338 18.9207 32.311 18.9458 32.2712 18.951C31.8575 18.5183 31.8974 17.1867 32.1019 16.8394C32.1865 16.7461 32.2361 16.7355 32.3349 16.7896Z" fill="#DCF9FB"/>
</g>
<path d="M70.632 36.7549V19.9549H73.704V26.9389H81.24V19.9549H84.312V36.7549H81.24V29.4349H73.704V36.7549H70.632ZM91.6093 37.0429C90.5853 37.0429 89.7453 36.8829 89.0893 36.5629C88.4333 36.2269 87.9453 35.7869 87.6253 35.2429C87.3053 34.6989 87.1453 34.0989 87.1453 33.4429C87.1453 32.3389 87.5773 31.4429 88.4413 30.7549C89.3053 30.0669 90.6013 29.7229 92.3293 29.7229H95.3533V29.4349C95.3533 28.6189 95.1213 28.0189 94.6573 27.6349C94.1933 27.2509 93.6173 27.0589 92.9293 27.0589C92.3053 27.0589 91.7613 27.2109 91.2973 27.5149C90.8333 27.8029 90.5453 28.2349 90.4333 28.8109H87.4333C87.5133 27.9469 87.8013 27.1949 88.2973 26.5549C88.8093 25.9149 89.4653 25.4269 90.2653 25.0909C91.0653 24.7389 91.9613 24.5629 92.9533 24.5629C94.6493 24.5629 95.9853 24.9869 96.9613 25.8349C97.9373 26.6829 98.4253 27.8829 98.4253 29.4349V36.7549H95.8093L95.5213 34.8349C95.1693 35.4749 94.6733 36.0029 94.0333 36.4189C93.4093 36.8349 92.6013 37.0429 91.6093 37.0429ZM92.3053 34.6429C93.1853 34.6429 93.8653 34.3549 94.3453 33.7789C94.8413 33.2029 95.1533 32.4909 95.2813 31.6429H92.6653C91.8493 31.6429 91.2653 31.7949 90.9133 32.0989C90.5613 32.3869 90.3853 32.7469 90.3853 33.1789C90.3853 33.6429 90.5613 34.0029 90.9133 34.2589C91.2653 34.5149 91.7293 34.6429 92.3053 34.6429ZM101.357 36.7549V24.8509H104.093L104.381 27.0829C104.813 26.3149 105.397 25.7069 106.133 25.2589C106.885 24.7949 107.765 24.5629 108.773 24.5629V27.8029H107.909C107.237 27.8029 106.637 27.9069 106.109 28.1149C105.581 28.3229 105.165 28.6829 104.861 29.1949C104.573 29.7069 104.429 30.4189 104.429 31.3309V36.7549H101.357ZM114.089 36.7549L109.721 24.8509H112.937L115.961 33.8509L118.985 24.8509H122.201L117.809 36.7549H114.089ZM129.336 37.0429C128.136 37.0429 127.072 36.7869 126.144 36.2749C125.216 35.7629 124.488 35.0429 123.96 34.1149C123.432 33.1869 123.168 32.1149 123.168 30.8989C123.168 29.6669 123.424 28.5709 123.936 27.6109C124.464 26.6509 125.184 25.9069 126.096 25.3789C127.024 24.8349 128.112 24.5629 129.36 24.5629C130.528 24.5629 131.56 24.8189 132.456 25.3309C133.352 25.8429 134.048 26.5469 134.544 27.4429C135.056 28.3229 135.312 29.3069 135.312 30.3949C135.312 30.5709 135.304 30.7549 135.288 30.9469C135.288 31.1389 135.28 31.3389 135.264 31.5469H126.216C126.28 32.4749 126.6 33.2029 127.176 33.7309C127.768 34.2589 128.48 34.5229 129.312 34.5229C129.936 34.5229 130.456 34.3869 130.872 34.1149C131.304 33.8269 131.624 33.4589 131.832 33.0109H134.952C134.728 33.7629 134.352 34.4509 133.824 35.0749C133.312 35.6829 132.672 36.1629 131.904 36.5149C131.152 36.8669 130.296 37.0429 129.336 37.0429ZM129.36 27.0589C128.608 27.0589 127.944 27.2749 127.368 27.7069C126.792 28.1229 126.424 28.7629 126.264 29.6269H132.192C132.144 28.8429 131.856 28.2189 131.328 27.7549C130.8 27.2909 130.144 27.0589 129.36 27.0589ZM142.816 37.0429C141.76 37.0429 140.832 36.8749 140.032 36.5389C139.232 36.1869 138.592 35.7069 138.112 35.0989C137.632 34.4909 137.344 33.7869 137.248 32.9869H140.344C140.44 33.4509 140.696 33.8509 141.112 34.1869C141.544 34.5069 142.096 34.6669 142.768 34.6669C143.44 34.6669 143.928 34.5309 144.232 34.2589C144.552 33.9869 144.712 33.6749 144.712 33.3229C144.712 32.8109 144.488 32.4669 144.04 32.2909C143.592 32.0989 142.968 31.9149 142.168 31.7389C141.656 31.6269 141.136 31.4909 140.608 31.3309C140.08 31.1709 139.592 30.9709 139.144 30.7309C138.712 30.4749 138.36 30.1549 138.088 29.7709C137.816 29.3709 137.68 28.8829 137.68 28.3069C137.68 27.2509 138.096 26.3629 138.928 25.6429C139.776 24.9229 140.96 24.5629 142.48 24.5629C143.888 24.5629 145.008 24.8909 145.84 25.5469C146.688 26.2029 147.192 27.1069 147.352 28.2589H144.448C144.272 27.3789 143.608 26.9389 142.456 26.9389C141.88 26.9389 141.432 27.0509 141.112 27.2749C140.808 27.4989 140.656 27.7789 140.656 28.1149C140.656 28.4669 140.888 28.7469 141.352 28.9549C141.816 29.1629 142.432 29.3549 143.2 29.5309C144.032 29.7229 144.792 29.9389 145.48 30.1789C146.184 30.4029 146.744 30.7469 147.16 31.2109C147.576 31.6589 147.784 32.3069 147.784 33.1549C147.8 33.8909 147.608 34.5549 147.208 35.1469C146.808 35.7389 146.232 36.2029 145.48 36.5389C144.728 36.8749 143.84 37.0429 142.816 37.0429ZM155.434 36.7549C154.186 36.7549 153.186 36.4509 152.434 35.8429C151.682 35.2349 151.306 34.1549 151.306 32.6029V27.4189H149.266V24.8509H151.306L151.666 21.6589H154.378V24.8509H157.594V27.4189H154.378V32.6269C154.378 33.2029 154.498 33.6029 154.738 33.8269C154.994 34.0349 155.426 34.1389 156.034 34.1389H157.522V36.7549H155.434Z" fill="white"/>
<defs>
<clipPath id="clip0_146_50586">
<rect width="32" height="28" fill="white" transform="translate(10 12.7549)"/>
</clipPath>
</defs>
</svg>
