<svg width="16" height="14" viewBox="0 0 16 14" fill="none" xmlns="http://www.w3.org/2000/svg">
<g clip-path="url(#clip0_12_26836)">
<path d="M7.2434 0.930616C7.22319 0.932018 7.20307 0.934533 7.18313 0.93815H3.97131C3.36894 0.93815 2.86913 1.43795 2.86913 2.04033V5.76986C1.86307 6.57905 1.21587 7.81792 1.21587 9.20446C1.21487 9.28127 1.22992 9.35738 1.26007 9.42806C1.29022 9.49867 1.33479 9.56218 1.39093 9.61461C1.44708 9.66703 1.51355 9.70712 1.58609 9.73226C1.65862 9.75748 1.73563 9.76726 1.81216 9.76099C2.08408 11.6224 3.69003 13.0621 5.62458 13.0621C7.55913 13.0621 9.16511 11.6224 9.43701 9.76099C9.48116 9.7645 9.52566 9.76271 9.5694 9.75555H11.4444C11.2532 10.0816 11.1355 10.4551 11.1355 10.8577C11.1355 12.0687 12.1289 13.0621 13.3398 13.0621C14.5507 13.0621 15.5442 12.0687 15.5442 10.8577C15.5442 10.1323 15.1831 9.48965 14.6368 9.08714L15.5205 6.05725L15.5237 6.04541C15.5252 6.04005 15.5267 6.03467 15.5281 6.02927C15.5387 5.9863 15.5441 5.94221 15.5442 5.89795C15.5442 5.7518 15.4861 5.61162 15.3828 5.50828C15.2794 5.40493 15.1393 5.34686 14.9931 5.34686H12.2376V2.59142H12.7887V1.48924H11.6866C11.5404 1.48925 11.4003 1.54732 11.2969 1.65067C11.1935 1.75401 11.1355 1.89417 11.1355 2.04033V5.34686H8.81055L7.98392 2.04033H8.38002C8.45303 2.04136 8.52557 2.02787 8.59329 2.00064C8.66107 1.97341 8.72279 1.93298 8.7748 1.8817C8.82681 1.83042 8.86807 1.76932 8.89625 1.70195C8.92442 1.63457 8.93896 1.56227 8.93896 1.48924C8.93896 1.41621 8.92442 1.3439 8.89625 1.27653C8.86807 1.20915 8.82681 1.14805 8.7748 1.09678C8.72279 1.0455 8.66107 1.00507 8.59329 0.97784C8.52557 0.950608 8.45303 0.937117 8.38002 0.93815H7.36503C7.34296 0.934285 7.32067 0.931768 7.2983 0.930616C7.28001 0.929704 7.26169 0.929704 7.2434 0.930616ZM3.97131 2.04033H6.84731L7.6621 5.30058C7.0518 4.98039 6.35936 4.79577 5.62458 4.79577C5.04015 4.79577 4.48248 4.91278 3.97131 5.12083V2.04033ZM5.62458 6.44904C7.1529 6.44904 8.38002 7.67617 8.38002 9.20446C8.38002 10.7328 7.1529 11.9599 5.62458 11.9599C4.09626 11.9599 2.86913 10.7328 2.86913 9.20446C2.86913 7.67617 4.09626 6.44904 5.62458 6.44904ZM5.62458 8.10228C5.33227 8.10228 5.05192 8.21842 4.84522 8.42515C4.63852 8.63181 4.5224 8.91217 4.5224 9.20446C4.5224 9.49681 4.63852 9.77718 4.84522 9.98384C5.05192 10.1906 5.33227 10.3066 5.62458 10.3066C5.9169 10.3066 6.19724 10.1906 6.40393 9.98384C6.61063 9.77718 6.72676 9.49681 6.72676 9.20446C6.72676 8.91217 6.61063 8.63181 6.40393 8.42515C6.19724 8.21842 5.9169 8.10228 5.62458 8.10228ZM13.3398 9.75555C13.955 9.75555 14.442 10.2425 14.442 10.8577C14.442 11.473 13.955 11.9599 13.3398 11.9599C12.7246 11.9599 12.2376 11.473 12.2376 10.8577C12.2376 10.2425 12.7246 9.75555 13.3398 9.75555Z" fill="white"/>
</g>
<defs>
<clipPath id="clip0_12_26836">
<rect width="15.1549" height="12.3995" fill="white" transform="translate(0.802734 0.800293)"/>
</clipPath>
</defs>
</svg>
