<svg width="56" height="56" viewBox="0 0 56 56" fill="none" xmlns="http://www.w3.org/2000/svg">
<rect x="4" y="4" width="48" height="48" rx="24" fill="#FFD597"/>
<path d="M32 23.8868V20.3874C32 19.5557 32 19.1398 31.8248 18.8843C31.6717 18.661 31.4346 18.5093 31.1678 18.4639C30.8623 18.4119 30.4847 18.5862 29.7295 18.9347L20.859 23.0288C20.1855 23.3396 19.8488 23.4951 19.6021 23.7361C19.3841 23.9492 19.2176 24.2093 19.1155 24.4966C19 24.8216 19 25.1925 19 25.9343V30.8868M32.5 30.3868H32.51M19 27.0868L19 33.6868C19 34.8069 19 35.3669 19.218 35.7948C19.4097 36.1711 19.7157 36.4771 20.092 36.6688C20.5198 36.8868 21.0799 36.8868 22.2 36.8868H33.8C34.9201 36.8868 35.4802 36.8868 35.908 36.6688C36.2843 36.4771 36.5903 36.1711 36.782 35.7948C37 35.3669 37 34.8069 37 33.6868V27.0868C37 25.9667 37 25.4066 36.782 24.9788C36.5903 24.6025 36.2843 24.2965 35.908 24.1048C35.4802 23.8868 34.9201 23.8868 33.8 23.8868L22.2 23.8868C21.0799 23.8868 20.5198 23.8868 20.092 24.1048C19.7157 24.2965 19.4097 24.6025 19.218 24.9788C19 25.4066 19 25.9667 19 27.0868ZM33 30.3868C33 30.6629 32.7761 30.8868 32.5 30.8868C32.2239 30.8868 32 30.6629 32 30.3868C32 30.1106 32.2239 29.8868 32.5 29.8868C32.7761 29.8868 33 30.1106 33 30.3868Z" stroke="black" stroke-width="2" stroke-linecap="round" stroke-linejoin="round"/>
<rect x="4" y="4" width="48" height="48" rx="24" stroke="#FFEBCE" stroke-width="8"/>
</svg>
