<svg width="56" height="56" viewBox="0 0 56 56" fill="none" xmlns="http://www.w3.org/2000/svg">
<rect x="4" y="4" width="48" height="48" rx="24" fill="#FFD597"/>
<path d="M29 20.8867C29 21.9913 26.5376 22.8867 23.5 22.8867C20.4624 22.8867 18 21.9913 18 20.8867M29 20.8867C29 19.7821 26.5376 18.8867 23.5 18.8867C20.4624 18.8867 18 19.7821 18 20.8867M29 20.8867V22.3867M18 20.8867V32.8867C18 33.9913 20.4624 34.8867 23.5 34.8867M23.5 26.8867C23.3315 26.8867 23.1647 26.884 23 26.8786C20.1967 26.7867 18 25.93 18 24.8867M23.5 30.8867C20.4624 30.8867 18 29.9913 18 28.8867M38 27.3867C38 28.4913 35.5376 29.3867 32.5 29.3867C29.4624 29.3867 27 28.4913 27 27.3867M38 27.3867C38 26.2821 35.5376 25.3867 32.5 25.3867C29.4624 25.3867 27 26.2821 27 27.3867M38 27.3867V34.8867C38 35.9913 35.5376 36.8867 32.5 36.8867C29.4624 36.8867 27 35.9913 27 34.8867V27.3867M38 31.1367C38 32.2413 35.5376 33.1367 32.5 33.1367C29.4624 33.1367 27 32.2413 27 31.1367" stroke="black" stroke-width="2" stroke-linecap="round" stroke-linejoin="round"/>
<rect x="4" y="4" width="48" height="48" rx="24" stroke="#FFEBCE" stroke-width="8"/>
</svg>
