<svg width="56" height="56" viewBox="0 0 56 56" fill="none" xmlns="http://www.w3.org/2000/svg">
<rect x="4" y="4" width="48" height="48" rx="24" fill="#FFD597"/>
<path d="M30.5505 24.8638H21C19.6193 24.8638 18.5 23.7445 18.5 22.3638C18.5 20.9831 19.6193 19.8638 21 19.8638H30.5505M24.4495 35.8638H34C35.3807 35.8638 36.5 34.7445 36.5 33.3638C36.5 31.9831 35.3807 30.8638 34 30.8638H24.4495M18.5 33.3638C18.5 35.2968 20.067 36.8638 22 36.8638C23.933 36.8638 25.5 35.2968 25.5 33.3638C25.5 31.4308 23.933 29.8638 22 29.8638C20.067 29.8638 18.5 31.4308 18.5 33.3638ZM36.5 22.3638C36.5 24.2968 34.933 25.8638 33 25.8638C31.067 25.8638 29.5 24.2968 29.5 22.3638C29.5 20.4308 31.067 18.8638 33 18.8638C34.933 18.8638 36.5 20.4308 36.5 22.3638Z" stroke="black" stroke-width="2" stroke-linecap="round" stroke-linejoin="round"/>
<rect x="4" y="4" width="48" height="48" rx="24" stroke="#FFEBCE" stroke-width="8"/>
</svg>
