<svg width="56" height="56" viewBox="0 0 56 56" fill="none" xmlns="http://www.w3.org/2000/svg">
<rect x="4" y="4" width="48" height="48" rx="24" fill="#FFD597"/>
<path d="M36 28.3867V22.6867C36 21.0066 36 20.1665 35.673 19.5247C35.3854 18.9603 34.9265 18.5013 34.362 18.2137C33.7202 17.8867 32.8802 17.8867 31.2 17.8867H24.8C23.1198 17.8867 22.2798 17.8867 21.638 18.2137C21.0735 18.5013 20.6146 18.9603 20.327 19.5247C20 20.1665 20 21.0066 20 22.6867V33.0867C20 34.7669 20 35.607 20.327 36.2487C20.6146 36.8132 21.0735 37.2721 21.638 37.5597C22.2798 37.8867 23.1198 37.8867 24.7999 37.8867H28M30.5 34.8867L32.5 36.8867L37 32.3867" stroke="#090909" stroke-width="2" stroke-linecap="round" stroke-linejoin="round"/>
<rect x="4" y="4" width="48" height="48" rx="24" stroke="#FFEBCE" stroke-width="8"/>
</svg>
